<svg id="Layer_1" data-name="Layer 1" xmlns="http://www.w3.org/2000/svg" viewBox="0 0 62 62"><defs><style>.cls-1{fill:#4cc3c8;}.cls-2{fill:#fff;}</style></defs><title>ALLY</title><path class="cls-1" d="M31,1A30,30,0,1,0,61,31,30,30,0,0,0,31,1Zm0,58.22A28.22,28.22,0,1,1,59.22,31,28.25,28.25,0,0,1,31,59.22Z"/><path class="cls-1" d="M45.21,45.7A3.35,3.35,0,1,0,48.56,49,3.35,3.35,0,0,0,45.21,45.7Zm0,4.9A1.56,1.56,0,1,1,46.77,49,1.55,1.55,0,0,1,45.21,50.6Z"/><path class="cls-1" d="M30,13.21a3.34,3.34,0,1,0,3.34,3.34A3.35,3.35,0,0,0,30,13.21Zm0,4.9a1.56,1.56,0,1,1,1.56-1.56A1.56,1.56,0,0,1,30,18.11Z"/><path class="cls-1" d="M28.79,42.45a3.34,3.34,0,1,0-3.34,3.34A3.34,3.34,0,0,0,28.79,42.45Zm-4.9,0A1.56,1.56,0,1,1,25.45,44,1.56,1.56,0,0,1,23.89,42.45Z"/><path class="cls-1" d="M27.9,47a4.76,4.76,0,1,0,4.76,4.76A4.76,4.76,0,0,0,27.9,47Zm0,7.73a3,3,0,1,1,3-3A3,3,0,0,1,27.9,54.7Z"/><path class="cls-1" d="M15.67,44A3.35,3.35,0,1,0,19,47.35,3.35,3.35,0,0,0,15.67,44Zm0,4.9a1.56,1.56,0,1,1,1.56-1.56A1.56,1.56,0,0,1,15.67,48.91Z"/><path class="cls-1" d="M19.42,19.88A4.87,4.87,0,1,0,14.55,15,4.88,4.88,0,0,0,19.42,19.88Zm0-8A3.09,3.09,0,1,1,16.33,15,3.09,3.09,0,0,1,19.42,11.92Z"/><path class="cls-1" d="M40.5,17.44a4.87,4.87,0,1,0-4.87-4.87A4.87,4.87,0,0,0,40.5,17.44Zm0-8a3.09,3.09,0,1,1-3.09,3.09A3.09,3.09,0,0,1,40.5,9.48Z"/><path class="cls-1" d="M29.35,12a3.43,3.43,0,1,0-3.43-3.43A3.44,3.44,0,0,0,29.35,12Zm0-5.08A1.65,1.65,0,1,1,27.7,8.59,1.65,1.65,0,0,1,29.35,6.94Z"/><circle class="cls-1" cx="55.59" cy="28.88" r="0.92"/><circle class="cls-1" cx="45.21" cy="42.45" r="0.92"/><circle class="cls-1" cx="21.57" cy="47.04" r="0.92"/><circle class="cls-1" cx="20.34" cy="53.13" r="0.92"/><circle class="cls-1" cx="54.67" cy="32.96" r="0.92"/><circle class="cls-1" cx="24.97" cy="21.17" r="0.92"/><circle class="cls-1" cx="43.12" cy="19.64" r="0.92"/><circle class="cls-1" cx="48.72" cy="15.01" r="0.92"/><circle class="cls-1" cx="35.2" cy="6.75" r="0.92"/><circle class="cls-1" cx="10.28" cy="44.42" r="0.92"/><circle class="cls-1" cx="31.9" cy="44.7" r="0.92"/><path class="cls-1" d="M36.42,48.91a.92.92,0,1,0,1.11.68A.92.92,0,0,0,36.42,48.91Z"/><circle class="cls-1" cx="40.1" cy="53.5" r="0.92"/><circle class="cls-1" cx="34.8" cy="55.34" r="0.92"/><circle class="cls-1" cx="50.13" cy="46.12" r="0.92"/><path class="cls-1" d="M37.86,44.72a.93.93,0,0,0-1.11.69.92.92,0,1,0,1.11-.69Z"/><circle class="cls-1" cx="33.1" cy="40.61" r="0.92"/><circle class="cls-1" cx="23" cy="7.67" r="0.92"/><circle class="cls-1" cx="6.02" cy="28.52" r="0.92"/><circle class="cls-1" cx="18.12" cy="41" r="0.92"/><path class="cls-1" d="M27.56,37.81a3.87,3.87,0,0,0,1.72.78,4,4,0,0,0,.68.06,3.93,3.93,0,0,0,2.42-.84Z"/><path class="cls-1" d="M51.78,35.29V37.1A2,2,0,1,1,49.21,39a2,2,0,0,1,.42-1.21h-2A3.71,3.71,0,0,0,47.43,39a3.79,3.79,0,1,0,4.35-3.73Z"/><path class="cls-1" d="M42.76,37.81a3.07,3.07,0,0,1-6.11,0H34.87a4.85,4.85,0,0,0,9.67,0Z"/><path class="cls-1" d="M14.18,37.81a3.09,3.09,0,1,1-4-3.71V32.24A4.87,4.87,0,1,0,16,37.81Z"/><path class="cls-1" d="M10.22,25.08a1.56,1.56,0,1,1,2-.89h1.84a3.68,3.68,0,0,0,.06-.57,3.35,3.35,0,1,0-3.89,3.28Z"/><path class="cls-1" d="M18.05,24.19a1.55,1.55,0,0,1,2.74,0h1.89a3.33,3.33,0,0,0-6.51,0Z"/><path class="cls-1" d="M31.22,24.19a3.34,3.34,0,0,0-5.52,0Z"/><path class="cls-1" d="M40.22,24.19a3.35,3.35,0,1,0-5.15,0Zm-2.57-3.66a1.56,1.56,0,1,1-1.56,1.56A1.55,1.55,0,0,1,37.65,20.53Z"/><path class="cls-1" d="M50.13,18.1a4.82,4.82,0,0,0-4.7,6.09h1.86A3.06,3.06,0,0,1,47,23a3.09,3.09,0,1,1,4.74,2.61v2a4.86,4.86,0,0,0-1.65-9.44Z"/><path class="cls-2" d="M20,35H16.17l-.56,1.72H11.88L16,25.33h4.1l4.13,11.34H20.51Zm-1.89-5.82-1,3.15h2Z"/><path class="cls-2" d="M28.6,25.33V34H32v2.69h-7V25.33Z"/><path class="cls-2" d="M36.7,25.33V34h3.42v2.69h-7V25.33Z"/><path class="cls-2" d="M38.44,25.33H42.5l1.81,4,1.81-4h4l-4.06,7.89v3.45H42.5V33.22Z"/></svg>