<?xml version="1.0" encoding="utf-8"?>
<!-- Generator: Adobe Illustrator 22.1.0, SVG Export Plug-In . SVG Version: 6.00 Build 0)  -->
<svg version="1.1" id="Layer_1" xmlns="http://www.w3.org/2000/svg" xmlns:xlink="http://www.w3.org/1999/xlink" x="0px" y="0px"
	 viewBox="0 0 106.8 106.8" style="enable-background:new 0 0 106.8 106.8;" xml:space="preserve">
<style type="text/css">
	.st0{display:none;}
	.st1{display:inline;}
	.st2{fill:#30CFD0;}
	.st3{fill:none;stroke:#30CFD0;stroke-width:3;stroke-linecap:round;stroke-miterlimit:10;}
	.st4{fill:#30CFD0;stroke:#30CFD0;stroke-width:3;stroke-miterlimit:10;}
</style>
<title>Asset 8</title>
<g id="Layer_2_1_" class="st0">
	<g id="Layer_1-2" class="st1">
		<path class="st2" d="M100.4,6.4c-8.6-8.6-22.4-8.6-31,0c-2.8,2.8-4.7,6.2-5.7,10L4.3,54.7c-1.2-0.5-2.5-0.3-3.4,0.6
			c-1.2,1.2-1.2,3.1,0,4.2C1.4,60,2.2,60.4,3,60.3c1.7,0,3-1.3,3-3c0,0,0-0.1,0-0.1l57.1-36.8c-0.4,5.7,1.5,11.4,5.3,15.8L16,88.7
			c-1.6-0.4-3.2,0.6-3.6,2.2s0.6,3.2,2.2,3.6c1.6,0.4,3.2-0.6,3.6-2.2c0.1-0.2,0.1-0.5,0.1-0.7c0-0.2,0-0.5-0.1-0.7l52.4-52.4
			c4,3.5,9.1,5.4,14.3,5.4c0.5,0,1,0,1.4-0.1l-36.8,57.1c-0.8,0-1.6,0.3-2.2,0.8c-1.2,1.2-1.2,3.1,0,4.3c1.2,1.2,3.1,1.2,4.3,0l0,0
			c0.9-0.9,1.1-2.3,0.6-3.4l38.3-59.5c11.7-3,18.7-14.9,15.7-26.6C105.2,12.7,103.3,9.2,100.4,6.4L100.4,6.4z M98.2,35.2
			c-7.3,7.3-19.2,7.3-26.6,0s-7.3-19.2,0-26.6c7.3-7.3,19.2-7.3,26.6,0C105.6,16,105.6,27.8,98.2,35.2z"/>
		<path class="st2" d="M93.2,9.4c-4.7-3.1-10.7-3.3-15.6-0.5c-0.7,0.4-1,1.4-0.6,2.1c0.4,0.7,1.4,1,2.1,0.6l0,0
			c3.9-2.2,8.6-2,12.4,0.4c0.3,0.2,0.6,0.3,0.9,0.3c0.9,0,1.6-0.7,1.5-1.6C93.9,10.2,93.6,9.7,93.2,9.4L93.2,9.4z"/>
	</g>
</g>
<circle class="st3" cx="59.9" cy="98.7" r="3.4"/>
<line class="st4" x1="46.9" y1="93.7" x2="57.8" y2="96"/>
<line class="st4" x1="44.5" y1="98.7" x2="56.4" y2="98.8"/>
<line class="st4" x1="46.9" y1="103.9" x2="57.9" y2="101.5"/>
<circle class="st2" cx="46.9" cy="93.7" r="1.9"/>
<circle class="st2" cx="44.5" cy="98.7" r="1.9"/>
<circle class="st2" cx="46.9" cy="103.9" r="1.9"/>
</svg>
