<svg xmlns="http://www.w3.org/2000/svg" viewBox="0 0 120.25 85.2"><title>Asset 6</title><g id="Layer_2" data-name="Layer 2"><g id="Layer_1-2" data-name="Layer 1"><path d="M119.16,15.58c-3.67-8-15.56-10.52-33.49-7.06A42.86,42.86,0,0,0,75,2.69a42.57,42.57,0,0,0-57.2,35.72.77.77,0,0,0,0,.15c0,.39-.08.77-.11,1.16a1.49,1.49,0,0,0-.25.13C3,51.24-2.6,61.54,1.11,69.63,3.9,75.74,11,78.27,20.33,78.27a75.8,75.8,0,0,0,14.31-1.55,42.59,42.59,0,0,0,68-31.16c1.87-1.47,3.62-2.94,5.21-4.4C118.45,31.43,122.37,22.59,119.16,15.58ZM43.7,6.71A39.53,39.53,0,0,1,96,26.17a40.23,40.23,0,0,1,2.47,7.14c-7,6-17.87,13.44-33.25,20.48S37.17,64.25,28,65.58c-.23-.33-.47-.65-.69-1l7-3.21a1.55,1.55,0,0,0-1.29-2.82l-7.34,3.36c-.53-.94-1-1.9-1.48-2.89-.28-.61-.55-1.23-.79-1.85l7-3.18a1.55,1.55,0,1,0-1.29-2.82l-6.69,3.06a38.89,38.89,0,0,1-1.33-5.85l8.63-3.95a1.55,1.55,0,1,0-1.29-2.82l-7.69,3.52a39.3,39.3,0,0,1,.05-5.64l8.58-3.92a1.55,1.55,0,1,0-1.3-2.82l-6.82,3.12a39.36,39.36,0,0,1,2.13-7.62s.06,0,.09,0l6.33-2.89a1.56,1.56,0,0,0-1.29-2.83L25.35,24A39.26,39.26,0,0,1,43.7,6.71ZM101.09,31a43,43,0,0,0-2.23-6.08,45.24,45.24,0,0,0-3.14-5.68c8.37-.77,12,.59,12.43,1.43C108.74,21.91,106.52,25.78,101.09,31Zm-81,26a.06.06,0,0,1,0,0v0c.4,1.1.84,2.2,1.33,3.29A42.29,42.29,0,0,0,24.56,66c-7.47.73-11.85-.12-12.44-1.41-.37-.81,1-4.49,7.05-10.35C19.43,55.16,19.73,56.08,20.06,57ZM76.57,78.51a39.33,39.33,0,0,1-20.2,3.39l1.44-.66a1.55,1.55,0,0,0-1.29-2.82l-5.3,2.42A2,2,0,0,0,51,81a39.3,39.3,0,0,1-5-1.53l2.68-1.23a1.55,1.55,0,1,0-1.29-2.82l-5,2.29s-.09.07-.13.09a38.06,38.06,0,0,1-3.51-2,170.83,170.83,0,0,0,31.51-11A170.81,170.81,0,0,0,99.23,48.12,39.47,39.47,0,0,1,76.57,78.51Zm29.16-39.64C97,46.88,83.6,55.3,69,62,41.76,74.46,9.69,80.92,3.93,68.34c-2.86-6.24,2-14.94,13.64-24.62a42.37,42.37,0,0,0,.78,7.06s-.07,0-.1.06c-3.35,3.08-10.94,10.7-8.95,15,1.06,2.32,4.82,3.51,10.51,3.51a59.16,59.16,0,0,0,7.51-.56h0l.13,0c10.38-1.4,24.21-5.39,39.09-12.2s26.73-14.54,34.58-21.44l0,0c7.6-6.7,11.3-12.55,9.81-15.81-2-4.26-12.16-3.65-17.34-3a43.07,43.07,0,0,0-4.82-5.19c14.93-2.49,24.67-.47,27.53,5.78C119.61,24,112.38,32.78,105.73,38.87Z"/></g></g></svg>