<svg xmlns="http://www.w3.org/2000/svg" viewBox="0 0 104.54 104.55"><title>Asset 5</title><g id="Layer_2" data-name="Layer 2"><g id="Layer_1-2" data-name="Layer 1"><path d="M52.27,0a52.28,52.28,0,1,0,52.27,52.27A52.33,52.33,0,0,0,52.27,0Zm0,101.44a49.17,49.17,0,1,1,49.17-49.17A49.22,49.22,0,0,1,52.27,101.44Z"/><path d="M17,45.23a5.82,5.82,0,1,0-5.82-5.82A5.83,5.83,0,0,0,17,45.23Zm0-8.54a2.72,2.72,0,1,1-2.71,2.72A2.72,2.72,0,0,1,17,36.69Z"/><path d="M37.92,41.68A5.82,5.82,0,1,0,32.1,47.5,5.83,5.83,0,0,0,37.92,41.68ZM32.1,44.39a2.72,2.72,0,1,1,2.72-2.71A2.72,2.72,0,0,1,32.1,44.39Z"/><path d="M47.85,49.5A5.82,5.82,0,1,0,42,43.68,5.83,5.83,0,0,0,47.85,49.5Zm0-8.54a2.72,2.72,0,1,1-2.72,2.72A2.72,2.72,0,0,1,47.85,41Z"/><path d="M87.5,59.65a6.6,6.6,0,1,0,6.6,6.6A6.61,6.61,0,0,0,87.5,59.65Zm0,10.09A3.5,3.5,0,1,1,91,66.25,3.5,3.5,0,0,1,87.5,69.74Z"/><path d="M77,77.89a5.83,5.83,0,1,0,5.82,5.82A5.83,5.83,0,0,0,77,77.89Zm0,8.54a2.72,2.72,0,1,1,2.72-2.72A2.72,2.72,0,0,1,77,86.43Z"/><path d="M50.46,21.27a5.83,5.83,0,1,0,5.83,5.82A5.83,5.83,0,0,0,50.46,21.27Zm0,8.54a2.72,2.72,0,1,1,2.72-2.72A2.72,2.72,0,0,1,50.46,29.81Z"/><path d="M63.85,30.92a5.83,5.83,0,1,0,5.82,5.82A5.83,5.83,0,0,0,63.85,30.92Zm0,8.54a2.72,2.72,0,1,1,2.72-2.72A2.72,2.72,0,0,1,63.85,39.46Z"/><path d="M49.28,65.5a6.88,6.88,0,1,0-5.59-8A6.91,6.91,0,0,0,49.28,65.5Zm-2.54-7.43a3.79,3.79,0,0,1,3.72-3.13,3.68,3.68,0,0,1,.66.06,3.78,3.78,0,1,1-1.31,7.44,3.78,3.78,0,0,1-3.07-4.37Z"/><path d="M48.43,72.23a5.83,5.83,0,1,0-5.82,5.82A5.83,5.83,0,0,0,48.43,72.23Zm-8.54,0A2.72,2.72,0,1,1,42.61,75,2.72,2.72,0,0,1,39.89,72.23Z"/><path d="M46.88,80.1a8.29,8.29,0,1,0,8.28,8.29A8.3,8.3,0,0,0,46.88,80.1Zm0,13.47a5.18,5.18,0,1,1,5.18-5.18A5.19,5.19,0,0,1,46.88,93.57Z"/><path d="M25.55,75a5.82,5.82,0,1,0,5.83,5.82A5.83,5.83,0,0,0,25.55,75Zm0,8.53a2.72,2.72,0,1,1,2.72-2.71A2.71,2.71,0,0,1,25.55,83.48Z"/><path d="M32.1,32.9a8.49,8.49,0,1,0-8.49-8.49A8.5,8.5,0,0,0,32.1,32.9ZM32.1,19a5.39,5.39,0,1,1-5.38,5.38A5.39,5.39,0,0,1,32.1,19Z"/><path d="M68.83,28.65a8.49,8.49,0,1,0-8.49-8.49A8.5,8.5,0,0,0,68.83,28.65Zm0-13.87a5.38,5.38,0,1,1-5.38,5.38A5.38,5.38,0,0,1,68.83,14.78Z"/><path d="M85.61,46.77a8.49,8.49,0,1,0-8.49-8.48A8.49,8.49,0,0,0,85.61,46.77Zm0-13.87a5.39,5.39,0,1,1-5.38,5.39A5.39,5.39,0,0,1,85.61,32.9Z"/><path d="M67.44,72A8.49,8.49,0,1,0,59,63.53,8.49,8.49,0,0,0,67.44,72Zm0-13.87a5.38,5.38,0,1,1-5.39,5.38A5.39,5.39,0,0,1,67.44,58.15Z"/><path d="M26.27,62.75a8.49,8.49,0,1,0-8.49,8.49A8.5,8.5,0,0,0,26.27,62.75Zm-8.49,5.39a5.39,5.39,0,1,1,5.38-5.39A5.4,5.4,0,0,1,17.78,68.14Z"/><path d="M49.41,19.2a6,6,0,1,0-6-6A6,6,0,0,0,49.41,19.2Zm0-8.85a2.88,2.88,0,1,1-2.88,2.87A2.88,2.88,0,0,1,49.41,10.35Z"/><circle cx="74.37" cy="42.61" r="1.6"/><circle cx="95.12" cy="48.58" r="1.6"/><circle cx="77.04" cy="72.23" r="1.6"/><circle cx="59" cy="46.35" r="1.6"/><circle cx="36.37" cy="61.93" r="1.6"/><circle cx="35.83" cy="80.22" r="1.6"/><circle cx="33.7" cy="90.83" r="1.6"/><circle cx="93.52" cy="55.69" r="1.6"/><circle cx="41.77" cy="35.14" r="1.6"/><circle cx="73.4" cy="32.47" r="1.6"/><circle cx="80.44" cy="56.59" r="1.6"/><circle cx="83.15" cy="24.41" r="1.6"/><circle cx="59.58" cy="10.02" r="1.6"/><circle cx="32.1" cy="54.99" r="1.6"/><circle cx="16.17" cy="75.66" r="1.6"/><circle cx="39.53" cy="49.65" r="1.6"/><circle cx="53.83" cy="76.14" r="1.6"/><path d="M61.72,83.48a1.6,1.6,0,1,0,1.94,1.18A1.6,1.6,0,0,0,61.72,83.48Z"/><circle cx="68.12" cy="91.48" r="1.6"/><circle cx="58.9" cy="94.68" r="1.6"/><circle cx="85.61" cy="78.62" r="1.6"/><circle cx="77.57" cy="49.55" r="1.6"/><circle cx="86.36" cy="52.27" r="1.6"/><path d="M64.22,76.18a1.6,1.6,0,1,0,1.19,1.93A1.61,1.61,0,0,0,64.22,76.18Z"/><circle cx="55.93" cy="69.03" r="1.6"/><circle cx="68.12" cy="49.55" r="1.6"/><circle cx="38.34" cy="11.62" r="1.6"/><circle cx="8.75" cy="47.95" r="1.6"/><circle cx="22.88" cy="49.65" r="1.6"/><circle cx="29.82" cy="69.69" r="1.6"/></g></g></svg>