<svg xmlns="http://www.w3.org/2000/svg" viewBox="0 0 99.11 133.72"><title>Asset 4</title><g id="Layer_2" data-name="Layer 2"><g id="Layer_1-2" data-name="Layer 1"><path d="M99.11,72.52A49.56,49.56,0,0,0,75.69,30.44l-.16-.1A49.24,49.24,0,0,0,51.11,23V11.2a5.71,5.71,0,1,0-3.11,0V23a49.52,49.52,0,0,0-28.24,89.08l-4.19,5.86a4,4,0,0,0,.66,5.41c8,7,18.81,10.37,33.11,10.37h.25c14.42,0,25.31-3.49,33.3-10.54a4.05,4.05,0,0,0,.63-5.42l-4.13-5.71A49.48,49.48,0,0,0,99.11,72.52ZM46.93,5.72a2.62,2.62,0,1,1,2.62,2.62A2.62,2.62,0,0,1,46.93,5.72ZM3.11,72.52A46.42,46.42,0,0,1,70.31,31C54.12,34.93,41.06,46,36.19,60.1l-.56,0a17.42,17.42,0,1,0,5.13,34.06c6.55,9.82,17.11,16.92,29.54,19.92A46.41,46.41,0,0,1,3.11,72.52ZM35.63,91.81A14.32,14.32,0,1,1,50,77.5,14.33,14.33,0,0,1,35.63,91.81ZM81,119.58a.94.94,0,0,1-.17,1.27c-7.4,6.53-17.62,9.73-31.25,9.76h-.24c-13.51,0-23.68-3.14-31.07-9.59a1,1,0,0,1-.18-1.27l4.21-5.88a49.42,49.42,0,0,0,53.31.78l.14-.09,1.11-.71Zm-4.49-9.27a2.14,2.14,0,0,0-.22.1,1.22,1.22,0,0,0-.15.17c-.57.4-1.16.79-1.75,1.17-12.9-2.25-24-9.06-30.7-18.82a17.4,17.4,0,0,0-4.34-32.44c5-13.77,18.59-24.32,35-27.19a46.38,46.38,0,0,1,2.12,77Z"/><path d="M81.56,48.55a1.56,1.56,0,0,0-2.49,1.87,36.79,36.79,0,0,1,7,17,1.54,1.54,0,0,0,1.53,1.34h.22A1.55,1.55,0,0,0,89.16,67,39.86,39.86,0,0,0,81.56,48.55Z"/><path d="M70.69,38.57A1.56,1.56,0,0,0,69,41.21a36.78,36.78,0,0,1,5.43,4.12,1.56,1.56,0,0,0,1,.41,1.53,1.53,0,0,0,1.14-.51A1.55,1.55,0,0,0,76.57,43,41,41,0,0,0,70.69,38.57Z"/><path d="M35.63,66.58A10.92,10.92,0,1,0,46.55,77.5,10.93,10.93,0,0,0,35.63,66.58Zm0,18.72a7.81,7.81,0,1,1,7.81-7.8A7.82,7.82,0,0,1,35.63,85.3Z"/></g></g></svg>