<svg xmlns="http://www.w3.org/2000/svg" viewBox="0 0 104.54 104.55"><title>Asset 8</title><g id="Layer_2" data-name="Layer 2"><g id="Layer_1-2" data-name="Layer 1"><path d="M104.54,52.27A52,52,0,0,0,98,27a1,1,0,0,0-.13-.22,50.78,50.78,0,0,0-4.24-6.41,1.28,1.28,0,0,0-.23-.29,52.17,52.17,0,0,0-82.3,0,1.63,1.63,0,0,0-.23.29A53.05,53.05,0,0,0,6.65,26.8c0,.07-.09.14-.13.22A52.2,52.2,0,0,0,22.59,95.27l.09.06a52.1,52.1,0,0,0,59.2,0l.08,0A52.26,52.26,0,0,0,104.54,52.27ZM80.32,92.62H60.23a1.56,1.56,0,0,0,0,3.11h15a49.06,49.06,0,0,1-45.94,0H49.55a1.56,1.56,0,1,0,0-3.11H24.23A49.5,49.5,0,0,1,10.62,78.35H30.15a1.56,1.56,0,0,0,0-3.11H8.82A49,49,0,0,1,3.14,53.83H43a1.56,1.56,0,0,0,0-3.11H3.14A48.9,48.9,0,0,1,8.91,29.13H30.15a1.55,1.55,0,1,0,0-3.1H10.73c.7-1.11,1.44-2.2,2.22-3.24H65.86a1.56,1.56,0,0,0,0-3.11H15.5a49.08,49.08,0,0,1,73.54,0H79.12a1.56,1.56,0,0,0,0,3.11H91.59c.79,1,1.52,2.13,2.23,3.24H45.09a1.55,1.55,0,0,0,0,3.1H95.64a48.76,48.76,0,0,1,5.76,21.59H70.91a1.56,1.56,0,1,0,0,3.11H101.4a48.83,48.83,0,0,1-5.67,21.41H79.12a1.56,1.56,0,0,0,0,3.11H93.93A49.63,49.63,0,0,1,80.32,92.62Z"/><path d="M69.93,75.24H41.4a1.56,1.56,0,0,0,0,3.11H69.93a1.56,1.56,0,1,0,0-3.11Z"/></g></g></svg>