<?xml version="1.0" encoding="UTF-8" standalone="no"?>
<svg
   xmlns:dc="http://purl.org/dc/elements/1.1/"
   xmlns:cc="http://creativecommons.org/ns#"
   xmlns:rdf="http://www.w3.org/1999/02/22-rdf-syntax-ns#"
   xmlns:svg="http://www.w3.org/2000/svg"
   xmlns="http://www.w3.org/2000/svg"
   xmlns:sodipodi="http://sodipodi.sourceforge.net/DTD/sodipodi-0.dtd"
   xmlns:inkscape="http://www.inkscape.org/namespaces/inkscape"
   viewBox="0 0 104.58 104.59"
   version="1.1"
   id="svg16"
   sodipodi:docname="Asset 24.svg"
   inkscape:version="0.92.3 (unknown)">
  <metadata
     id="metadata22">
    <rdf:RDF>
      <cc:Work
         rdf:about="">
        <dc:format>image/svg+xml</dc:format>
        <dc:type
           rdf:resource="http://purl.org/dc/dcmitype/StillImage" />
      </cc:Work>
    </rdf:RDF>
  </metadata>
  <defs
     id="defs20" />
  <sodipodi:namedview
     pagecolor="#ffffff"
     bordercolor="#666666"
     borderopacity="1"
     objecttolerance="10"
     gridtolerance="10"
     guidetolerance="10"
     inkscape:pageopacity="0"
     inkscape:pageshadow="2"
     inkscape:window-width="1600"
     inkscape:window-height="835"
     id="namedview18"
     showgrid="false"
     inkscape:zoom="2.2564299"
     inkscape:cx="-6.8742555"
     inkscape:cy="52.294998"
     inkscape:window-x="0"
     inkscape:window-y="0"
     inkscape:window-maximized="1"
     inkscape:current-layer="svg16" />
  <title
     id="title2">Asset 24</title>
  <g
     id="Layer_2"
     data-name="Layer 2"
     style="stroke:#000000;stroke-opacity:1;fill:#f9f9f9">
    <g
       id="Layer_1-2"
       data-name="Layer 1"
       style="stroke:#000000;stroke-opacity:1;fill:#f9f9f9">
      <path
         d="M104.51,49.59h0A53.63,53.63,0,0,0,102.85,39v0h0A52.27,52.27,0,0,0,12.51,18.39h0A53.56,53.56,0,0,0,7.14,26a52.19,52.19,0,0,0,26.07,75,1.57,1.57,0,0,0,.3.12,51.72,51.72,0,0,0,18.7,3.53,52.79,52.79,0,0,0,13.38-1.74,52.29,52.29,0,0,0,38.92-53.26ZM94.08,78.19a6.78,6.78,0,0,0-1.8-1.57c-5.25-3.21-15.7-1.65-31,4.63C39,90.34,34,80.39,28.62,69.85a49.07,49.07,0,0,0-5.81-9.59c-3-3.56-6.5-5.47-10.31-5.67a15.58,15.58,0,0,0-9.12,2.7A49,49,0,0,1,3.53,45.8a39.63,39.63,0,0,0,5.35.36,30.51,30.51,0,0,0,14.8-3.48c1.2-.67,2.53-1.46,4-2.32C37.35,34.61,52,25.91,66.51,30.14s23.49-2,26.8-5a49.33,49.33,0,0,1,6.24,13.6c-2.41,1.62-9.8,5.89-17.48,3.37-6.61-2.16-14-1.2-18.83,2.46a10.83,10.83,0,0,0-4.63,9.19,9.42,9.42,0,0,0,3.25,6.78c5.89,5.36,17.28,5.2,20.63,5a19.38,19.38,0,0,1,14.94,6.18,48.82,48.82,0,0,1-2.67,5.31C94.54,77.45,94.31,77.82,94.08,78.19ZM82.33,62.48c-6.28.33-14.41-.6-18.39-4.22a6.39,6.39,0,0,1-2.23-4.61,7.82,7.82,0,0,1,3.4-6.58c4-3,10.41-3.82,16-2,8.19,2.68,15.79-1,19.26-3.14a50.71,50.71,0,0,1,.93,6.2c-11.51.63-14.11,4.19-14.61,6.32a4.15,4.15,0,0,0,2.24,4.61c2.83,1.5,9.88,5,11,5.5q-.52,2-1.23,4A22.18,22.18,0,0,0,82.33,62.48Zm18.29-1c-2.11-1-7.84-3.86-10.25-5.13-.14-.08-.82-.48-.66-1.17.29-1.28,3.14-3.45,11.75-3.92A48.59,48.59,0,0,1,100.62,61.47ZM39.79,4.75A48.86,48.86,0,0,1,77.07,9.83c.85.49,1.68,1,2.5,1.56-2.41,1.61-7.75,4-15.68,1.21-11-3.93-15.44-.75-23.43,5-1.42,1-3,2.14-4.71,3.33-8.49,5.82-16.88.63-19.89-1.68A48.77,48.77,0,0,1,39.79,4.75Zm-30,22.77a49.35,49.35,0,0,1,4-5.89c2.3,1.74,7.51,5.06,13.72,5.06a17.21,17.21,0,0,0,9.92-3.18c1.77-1.21,3.34-2.34,4.77-3.37,7.84-5.66,11.08-8,20.58-4.62,10.27,3.65,16.93-.29,19.38-2.22a48.89,48.89,0,0,1,9.28,9.29C89,24.91,80.78,31.05,67.38,27.15c-15.82-4.59-31.16,4.52-41.31,10.54-1.42.85-2.73,1.62-3.91,2.28-6.72,3.76-14.84,3.19-18.11,2.76A49.25,49.25,0,0,1,9.83,27.52Zm-2,45.65a11.52,11.52,0,0,1,6.73,1.77c4.53,2.81,7.85,8.9,9.67,17.68A48.72,48.72,0,0,1,7.78,73.17Zm57,26.67a48.87,48.87,0,0,1-26.61-.43c9.23-3.54,16.48-3.27,21.12-2.29A25.64,25.64,0,0,1,66,99.49Zm5.1-1.64c-1.75-1.3-14.76-10.06-36.06-.33a50.18,50.18,0,0,1-6.08-3v-.05C25.91,83.52,22,75.93,16.14,72.3A14.56,14.56,0,0,0,6.5,70.18,49,49,0,0,1,4.75,64.8c-.36-1.34-.64-2.7-.88-4.06,1.31-1,4.6-3.25,8.46-3,2.93.15,5.66,1.69,8.11,4.57a45.77,45.77,0,0,1,5.41,9c4,8,8.47,16.69,20.44,16.69,4.3,0,9.56-1.13,16.13-3.82C81,76.5,88,77.76,90.52,79.19a3.16,3.16,0,0,1,1.65,1.87A48.65,48.65,0,0,1,69.9,98.2Z"
         id="path4"
         style="stroke:#000000;stroke-opacity:1;fill:#f9f9f9" />
      <path
         d="M57,64a9.64,9.64,0,0,0-14.16-3.57L41,61.73a9.64,9.64,0,0,0,8,17.21l2.29-.6A9.64,9.64,0,0,0,57.4,64.71Zm-2.3,7.75a6.49,6.49,0,0,1-4.29,3.62l-2.29.6a6.5,6.5,0,0,1-7.79-4.05h0a6.54,6.54,0,0,1,2.38-7.6l1.91-1.34a6.53,6.53,0,0,1,3.76-1.19,6.56,6.56,0,0,1,5.84,3.61l.37.74A6.51,6.51,0,0,1,54.73,71.71Z"
         id="path6"
         style="stroke:#000000;stroke-opacity:1;fill:#f9f9f9" />
      <path
         d="M40.69,53.87A7.6,7.6,0,0,0,47,53.34l1.53-.86A7.61,7.61,0,0,0,52.15,44h0a7.57,7.57,0,0,0-8.55-5.6l-1.75.28a7.6,7.6,0,0,0-5.91,10.22l.22.58A7.59,7.59,0,0,0,40.69,53.87Zm-1.54-10a4.45,4.45,0,0,1,3.19-2.19l1.75-.28a4.37,4.37,0,0,1,.72-.06A4.5,4.5,0,0,1,47,49.78l-1.53.86a4.5,4.5,0,0,1-6.41-2.32l-.22-.58A4.49,4.49,0,0,1,39.15,43.89Z"
         id="path8"
         style="stroke:#000000;stroke-opacity:1;fill:#f9f9f9" />
      <path
         d="M32,50.8a5.32,5.32,0,0,0-4.47.68,5.3,5.3,0,0,0,.7,9.21,5.26,5.26,0,0,0,5.93-1A5.31,5.31,0,0,0,32,50.8Zm0,6.67a2.15,2.15,0,0,1-2.46.4,2.2,2.2,0,0,1-.28-3.81,2.14,2.14,0,0,1,1.22-.37,2.28,2.28,0,0,1,.63.09A2.16,2.16,0,0,1,32.52,55,2.14,2.14,0,0,1,32,57.47Z"
         id="path10"
         style="stroke:#000000;stroke-opacity:1;fill:#f9f9f9" />
      <path
         d="M75.7,48.14a4.86,4.86,0,0,0-4.09.62,4.86,4.86,0,0,0,.64,8.44,4.92,4.92,0,0,0,2.07.47,4.88,4.88,0,0,0,4.47-6.77A4.87,4.87,0,0,0,75.7,48.14Zm-.17,5.92a1.75,1.75,0,0,1-3-1.13,1.73,1.73,0,0,1,.78-1.59,1.79,1.79,0,0,1,1-.3,1.69,1.69,0,0,1,.5.08,1.74,1.74,0,0,1,1.12,1A1.7,1.7,0,0,1,75.53,54.06Z"
         id="path12"
         style="stroke:#000000;stroke-opacity:1;fill:#f9f9f9" />
    </g>
  </g>
</svg>
