<svg xmlns="http://www.w3.org/2000/svg" viewBox="0 0 94.24 113.37"><title>Asset 19</title><g id="Layer_2" data-name="Layer 2"><g id="Layer_1-2" data-name="Layer 1"><path d="M47.12,0A47.18,47.18,0,0,0,0,47.12c0,12.25,6,28.6,15.57,42.66,10.09,14.77,21.88,23.59,31.55,23.59,23.83,0,47.12-41.92,47.12-66.25A47.18,47.18,0,0,0,47.12,0Zm0,110.27c-8.64,0-19.47-8.31-29-22.24-9.27-13.58-15-29.25-15-40.91a44,44,0,0,1,88,0C91.13,72.05,67.52,110.27,47.12,110.27Z"/><path d="M81.51,41.82a1.57,1.57,0,0,0-1.29-1.2c-.66-.1-16.48-2.41-24.48,6.11s-4.68,24.16-4.53,24.82a1.54,1.54,0,0,0,1.28,1.2,39.16,39.16,0,0,0,5.56.36c5.51,0,13.81-1,18.92-6.46C85,58.12,81.65,42.49,81.51,41.82Zm-6.8,22.7c-5.78,6.16-17.12,5.63-20.66,5.29-.57-3.52-1.84-14.78,4-21s17.1-5.63,20.66-5.28C79.23,47.09,80.49,58.36,74.71,64.52Z"/><path d="M43.86,71.55c.15-.66,3.47-16.3-4.53-24.82s-23.81-6.21-24.48-6.11a1.56,1.56,0,0,0-1.28,1.2c-.15.67-3.47,16.3,4.53,24.83C23.21,72.1,31.52,73.11,37,73.11a39.16,39.16,0,0,0,5.56-.36A1.53,1.53,0,0,0,43.86,71.55ZM41,69.81c-3.55.34-14.87.89-20.67-5.29s-4.52-17.44-3.95-20.95c3.54-.35,14.86-.89,20.66,5.28S41.59,66.29,41,69.81Z"/><path d="M19.51,21a1.55,1.55,0,0,0,1.11-.47,36.8,36.8,0,0,1,12.21-8.33,1.55,1.55,0,1,0-1.2-2.86,39.76,39.76,0,0,0-13.23,9A1.55,1.55,0,0,0,19.51,21Z"/><path d="M14,28.14a1.55,1.55,0,0,0,1.33-.75c.65-1.08,1.36-2.14,2.11-3.15A1.56,1.56,0,0,0,15,22.39c-.81,1.09-1.57,2.23-2.27,3.4A1.55,1.55,0,0,0,14,28.14Z"/><path d="M52.46,96.94a20.7,20.7,0,0,0-11.64,0,1.55,1.55,0,0,0,1,3,17.7,17.7,0,0,1,9.71,0A1.67,1.67,0,0,0,52,100a1.56,1.56,0,0,0,.49-3Z"/><path d="M24.35,47.89a4.8,4.8,0,0,0-4.79,4.79,1.55,1.55,0,0,0,3.1,0A1.69,1.69,0,0,1,24.35,51a1.55,1.55,0,0,0,0-3.1Z"/><path d="M63.12,47.89a4.79,4.79,0,0,0-4.78,4.79,1.55,1.55,0,0,0,3.1,0A1.69,1.69,0,0,1,63.12,51a1.55,1.55,0,1,0,0-3.1Z"/></g></g></svg>