<svg xmlns="http://www.w3.org/2000/svg" viewBox="0 0 104.56 104.58"><title>Asset 22</title><g id="Layer_2" data-name="Layer 2"><g id="Layer_1-2" data-name="Layer 1"><path d="M60.06,47.28a1.58,1.58,0,0,0,.52-.09L90.21,36.73a1.57,1.57,0,0,0,1-2,1.55,1.55,0,0,0-2-.94L59.54,44.26a1.56,1.56,0,0,0,.52,3Z"/><path d="M38.82,19.16a1.56,1.56,0,0,0-2-.95l-4.89,1.73a1.56,1.56,0,0,0,.52,3,1.58,1.58,0,0,0,.52-.09l4.89-1.73A1.55,1.55,0,0,0,38.82,19.16Z"/><path d="M36.38,31.28,36.22,31a1,1,0,0,0-.19-.23,1.57,1.57,0,0,0-1.69-.35,1.69,1.69,0,0,0-.49.35,1.5,1.5,0,0,0-.47,1.1,1.72,1.72,0,0,0,.12.59,1.3,1.3,0,0,0,.35.49,1.38,1.38,0,0,0,.49.35,1.72,1.72,0,0,0,.59.12,1.89,1.89,0,0,0,.61-.12A1.3,1.3,0,0,0,36,33a1.46,1.46,0,0,0,.45-1.08,1.09,1.09,0,0,0,0-.31A1.63,1.63,0,0,0,36.38,31.28Z"/><path d="M30.74,44a1.52,1.52,0,0,0-.51-.34,1.6,1.6,0,0,0-1.69.34,1.56,1.56,0,0,0-.33.5,1.58,1.58,0,0,0-.12.61,1.56,1.56,0,0,0,.45,1.08,1.54,1.54,0,0,0,1.1.47,1.72,1.72,0,0,0,.59-.12,1.3,1.3,0,0,0,.51-.35.71.71,0,0,0,.19-.23,1.35,1.35,0,0,0,.15-.26c0-.1.06-.21.08-.3a1,1,0,0,0,0-.29,1.57,1.57,0,0,0-.11-.61A1.77,1.77,0,0,0,30.74,44Z"/><path d="M97.11,79.18a52.27,52.27,0,0,0,6.38-37.41h0a53.89,53.89,0,0,0-1.9-6.86A52.27,52.27,0,0,0,5.14,29.75,52.26,52.26,0,0,0,97,79.39ZM68.67,98.66A48.81,48.81,0,0,1,40,99.88l12.59-4.44a1.55,1.55,0,0,0-1-2.93L35.19,98.28s0,0-.09,0a49.44,49.44,0,0,1-9.5-4.78L68.39,78.44a1.55,1.55,0,1,0-1-2.93L22.48,91.36A48.71,48.71,0,0,1,9.55,76.56L57.37,59.67a1.55,1.55,0,1,0-1-2.92l-48.26,17a48.38,48.38,0,0,1-2.14-5.12c-.23-.65-.44-1.31-.64-2l28.42-10a1.55,1.55,0,1,0-1-2.93L4.47,63.7a50.3,50.3,0,0,1-1.19-7.64l18.17-6.41a1.55,1.55,0,0,0-1-2.93L3.15,52.82a49.29,49.29,0,0,1,4.49-21l13.88-4.9a1.55,1.55,0,1,0-1-2.93L9.72,27.79A49,49,0,0,1,70.08,6.48L52.7,12.61a1.55,1.55,0,0,0,.51,3,1.58,1.58,0,0,0,.52-.09L74.22,8.31a49.51,49.51,0,0,1,8.23,5.15L44,27.06a1.55,1.55,0,0,0,.51,3A1.54,1.54,0,0,0,45,30L85.23,15.77a48.45,48.45,0,0,1,5.67,6.06L67,30.26a1.56,1.56,0,0,0,.52,3,1.58,1.58,0,0,0,.52-.09l24.77-8.74a49.41,49.41,0,0,1,5.83,11.48,47.72,47.72,0,0,1,1.55,5.35L76.36,49.7a1.55,1.55,0,0,0,.51,3,1.58,1.58,0,0,0,.52-.09l23.42-8.27a49.18,49.18,0,0,1,.65,7.81L37,74.93a1.55,1.55,0,0,0,.52,3,1.58,1.58,0,0,0,.52-.09L101.36,55.5A48.75,48.75,0,0,1,100,64L82.3,70.22a1.55,1.55,0,0,0,.52,3,1.51,1.51,0,0,0,.51-.08L99,67.62A49.07,49.07,0,0,1,94.6,77.3L76.11,83.83a1.55,1.55,0,0,0,.51,3,1.54,1.54,0,0,0,.52-.09L91.77,81.6A48.93,48.93,0,0,1,68.67,98.66Z"/><path d="M49.76,36.36,39.07,40.13a1.56,1.56,0,0,0,.52,3,1.58,1.58,0,0,0,.52-.09l10.68-3.77a1.55,1.55,0,0,0-1-2.93Z"/><path d="M63.53,88.3a1.23,1.23,0,0,0-.29.07,1.75,1.75,0,0,0-.27.16,1.5,1.5,0,0,0-.24.18,1.56,1.56,0,0,0,0,2.21l.24.19a1.15,1.15,0,0,0,.27.14,1.23,1.23,0,0,0,.29.09c.1,0,.2,0,.3,0a1.56,1.56,0,0,0,1.1-2.66A1.57,1.57,0,0,0,63.53,88.3Z"/><path d="M27.51,78.28l-6.42,2.27a1.55,1.55,0,0,0,.52,3,1.61,1.61,0,0,0,.52-.08l6.41-2.27a1.55,1.55,0,0,0-1-2.93Z"/></g></g></svg>