<svg xmlns="http://www.w3.org/2000/svg" viewBox="0 0 104.54 104.55"><title>Asset 21</title><g id="Layer_2" data-name="Layer 2"><g id="Layer_1-2" data-name="Layer 1"><path d="M104.05,59.4v0h0a52.05,52.05,0,0,0-6.22-32.69,1.48,1.48,0,0,0-.16-.27A52.2,52.2,0,0,0,15.3,15.36l-.21.21A52.32,52.32,0,0,0,2.19,37.32s0,.09,0,.14A52.25,52.25,0,0,0,85.39,92.69a1.37,1.37,0,0,0,.18-.16,52.47,52.47,0,0,0,15.6-21.8.58.58,0,0,0,0-.14A51.57,51.57,0,0,0,104.05,59.4ZM84.44,71.62h13a49.67,49.67,0,0,1-4.06,7.54H68.34a13.44,13.44,0,0,0-7.7,2.36c-8.35,5.77-15.85,2.47-19.57,0a13.81,13.81,0,0,0-7.67-2.34H11.15A48.71,48.71,0,0,1,3.88,60.92H33.4a13.81,13.81,0,0,0,7.67-2.34c3.72-2.48,11.22-5.78,19.57,0a13.44,13.44,0,0,0,7.7,2.36h32.32a48.09,48.09,0,0,1-2,7.59H84.44a1.55,1.55,0,1,0,0,3.1ZM84.26,15H53.87a1.56,1.56,0,0,0,0,3.11H87.56a49.3,49.3,0,0,1,6,7.6H52.8a1.55,1.55,0,1,0,0,3.1H95.46a48.72,48.72,0,0,1,3.33,7.61H73.49a1.55,1.55,0,0,0,0,3.1H99.75a49.42,49.42,0,0,1,1.69,12.77,51.08,51.08,0,0,1-.32,5.56H68.34A10.38,10.38,0,0,1,62.41,56c-9.86-6.82-18.68-2.94-23.06,0a10.71,10.71,0,0,1-6,1.82h-30a48.2,48.2,0,0,1-.32-5.54c0-.69,0-1.38.05-2.06H33.3a1.56,1.56,0,0,0,0-3.11H3.38A47.85,47.85,0,0,1,4.8,39.5H24.07a1.55,1.55,0,0,0,0-3.1H5.75A49.09,49.09,0,0,1,17,18.09H38.86a1.56,1.56,0,1,0,0-3.11H20.28a49,49,0,0,1,64,0Zm-.42,75H64.22a1.56,1.56,0,0,0,0,3.11H79.73a49.08,49.08,0,0,1-54.92,0h5.51a1.56,1.56,0,1,0,0-3.11H21.53a1.55,1.55,0,0,0-.65.15,49.57,49.57,0,0,1-7.52-7.8h20a10.71,10.71,0,0,1,6,1.82A21.44,21.44,0,0,0,51,87.87a19.77,19.77,0,0,0,11.39-3.8,10.38,10.38,0,0,1,5.93-1.81H91.2A49.93,49.93,0,0,1,83.84,89.93Z"/><path d="M61.78,50.21H93.21a1.56,1.56,0,0,0,0-3.11H61.78a1.56,1.56,0,0,0,0,3.11Z"/><path d="M42.75,28.34l.24.2.26.14.3.08a1.05,1.05,0,0,0,.31,0,1,1,0,0,0,.29,0l.3-.08.26-.14a1.14,1.14,0,0,0,.23-.2,1.21,1.21,0,0,0,.34-.5,1.59,1.59,0,0,0,.13-.61,1.53,1.53,0,0,0-.13-.59,1.24,1.24,0,0,0-.34-.49,1.6,1.6,0,0,0-2.19,0,2.14,2.14,0,0,0-.34.49,1.51,1.51,0,0,0-.11.59,1.47,1.47,0,0,0,.45,1.11Z"/><path d="M25.16,26.15a1.6,1.6,0,0,0-2.19,0,1.49,1.49,0,0,0-.34.49,1.52,1.52,0,0,0-.12.59,1.58,1.58,0,0,0,.12.61,1.43,1.43,0,0,0,.34.5,1.21,1.21,0,0,0,.24.2l.26.14.3.08a1,1,0,0,0,.29,0,1.09,1.09,0,0,0,.31,0l.3-.08.26-.14.23-.2a1.43,1.43,0,0,0,.34-.5,1.57,1.57,0,0,0,.11-.61,1.51,1.51,0,0,0-.11-.59A1.49,1.49,0,0,0,25.16,26.15Z"/><path d="M34.4,36.84l-.23-.18a1.22,1.22,0,0,0-.28-.14.76.76,0,0,0-.28-.09,1.39,1.39,0,0,0-.9.09,1.69,1.69,0,0,0-.51.32,1.58,1.58,0,0,0,0,2.21,1.6,1.6,0,0,0,1.1.45c.11,0,.2,0,.31,0a1.52,1.52,0,0,0,.28-.09,1.83,1.83,0,0,0,.28-.14c.08-.05.15-.13.23-.19a1.64,1.64,0,0,0,.45-1.1,1.33,1.33,0,0,0-.12-.59A1.91,1.91,0,0,0,34.4,36.84Z"/><path d="M43.85,39.5H55.18a1.55,1.55,0,1,0,0-3.1H43.85a1.55,1.55,0,0,0,0,3.1Z"/><path d="M77.56,69a1.58,1.58,0,0,0-2.18,0,1.46,1.46,0,0,0-.35.51,1.72,1.72,0,0,0-.12.59,1.52,1.52,0,0,0,.47,1.1,1.46,1.46,0,0,0,1.08.45A1.54,1.54,0,0,0,78,70.07a1.7,1.7,0,0,0-.1-.59A1.65,1.65,0,0,0,77.56,69Z"/><path d="M39.26,90.4a1.58,1.58,0,0,0-1.69-.35,1.46,1.46,0,0,0-.51.35,1.53,1.53,0,0,0-.45,1.08,1.58,1.58,0,0,0,.12.61,1.76,1.76,0,0,0,.33.49,1.57,1.57,0,0,0,2.2,0,1.8,1.8,0,0,0,.34-.49,1.64,1.64,0,0,0,.11-.61,1.36,1.36,0,0,0-.12-.59A1.51,1.51,0,0,0,39.26,90.4Z"/><path d="M20.24,68.52h-6.8a1.55,1.55,0,0,0,0,3.1h6.8a1.55,1.55,0,1,0,0-3.1Z"/><path d="M53.91,68.52h-6.8a1.55,1.55,0,1,0,0,3.1h6.8a1.55,1.55,0,1,0,0-3.1Z"/><path d="M50.51,59.83c-6.23,0-13.2,4.31-13.2,10.08S44.28,80,50.51,80s13.2-4.31,13.2-10.09S56.74,59.83,50.51,59.83Zm0,17.07c-5.09,0-10.09-3.46-10.09-7s5-7,10.09-7,10.09,3.46,10.09,7S55.6,76.9,50.51,76.9Z"/></g></g></svg>