<svg xmlns="http://www.w3.org/2000/svg" viewBox="0 0 116.92 109.27"><defs><style>.cls-1{fill:#1d1d1b;}</style></defs><title>Asset 11</title><g id="Layer_2" data-name="Layer 2"><g id="Layer_1-2" data-name="Layer 1"><path class="cls-1" d="M100,71.18A7,7,0,0,0,95.28,73L65.57,59.26c0-.07,0-.13,0-.2a4.27,4.27,0,0,0-4.27-4.27,4.22,4.22,0,0,0-1.67.34l-9-11.26a5.55,5.55,0,0,0,1.22-3.47,5.67,5.67,0,0,0-5.67-5.67,5.84,5.84,0,0,0-1.33.17l-6-9.57a5.13,5.13,0,0,0,1-3,5.17,5.17,0,0,0-9.17-3.29L14,13a6.78,6.78,0,0,0,.11-1,7,7,0,1,0-1.2,3.92l16.54,6a2.87,2.87,0,0,0-.05.41,5.2,5.2,0,0,0,5.19,5.19,5.14,5.14,0,0,0,1.76-.33l5.79,9.22a5.66,5.66,0,0,0,4,9.64,5.72,5.72,0,0,0,1.95-.36l9.31,11.61a4.21,4.21,0,0,0,1.39,5.18L56.58,73.92h-.16a5.67,5.67,0,1,0,3.3,10.26l21.36,12A6,6,0,0,0,81,97a5.68,5.68,0,1,0,10.29-3.28L98,84.93a7,7,0,1,0,2-13.75ZM7.06,15.92A3.93,3.93,0,1,1,11,12,3.94,3.94,0,0,1,7.06,15.92ZM62.49,59.06a1.17,1.17,0,1,1-1.17-1.17A1.17,1.17,0,0,1,62.49,59.06Zm-30-36.71a2.09,2.09,0,1,1,2.08,2.08A2.09,2.09,0,0,1,32.5,22.35Zm11.1,18A2.57,2.57,0,1,1,46.17,43,2.57,2.57,0,0,1,43.6,40.4ZM56.42,82.15A2.57,2.57,0,1,1,59,79.58,2.57,2.57,0,0,1,56.42,82.15ZM86.67,99.59A2.57,2.57,0,1,1,89.23,97,2.57,2.57,0,0,1,86.67,99.59Zm2.19-7.8a5.75,5.75,0,0,0-2.19-.44,5.65,5.65,0,0,0-4.29,2L61.67,81.71a5.65,5.65,0,0,0-2.11-6.85l2.27-11.59a4.24,4.24,0,0,0,2.48-1.17L93.44,75.56a6.94,6.94,0,0,0,1.78,7.83ZM100,82.15a3.93,3.93,0,1,1,3.93-3.93A3.94,3.94,0,0,1,100,82.15Z"/><path class="cls-1" d="M109.27,30.25a1.55,1.55,0,1,0,0-3.1H107V24.86a1.55,1.55,0,1,0-3.1,0v2.29h-2.29a1.55,1.55,0,1,0,0,3.1h2.29v2.3a1.55,1.55,0,1,0,3.1,0v-2.3Z"/><path class="cls-1" d="M16.1,63.75a1.55,1.55,0,0,0-2.2,0l-1.62,1.62-1.62-1.62a1.55,1.55,0,0,0-2.19,2.19l1.62,1.62L8.47,69.18a1.55,1.55,0,0,0,2.19,2.2l1.62-1.62,1.62,1.62a1.57,1.57,0,0,0,1.1.45,1.55,1.55,0,0,0,1.1-2.65l-1.62-1.62,1.62-1.62A1.54,1.54,0,0,0,16.1,63.75Z"/><path class="cls-1" d="M42.06,102.3H39.77V100a1.55,1.55,0,1,0-3.1,0v2.29H34.38a1.56,1.56,0,1,0,0,3.11h2.29v2.29a1.55,1.55,0,0,0,3.1,0v-2.29h2.29a1.56,1.56,0,1,0,0-3.11Z"/><path class="cls-1" d="M53.9,8.09a1.57,1.57,0,0,0,1.1.45,1.55,1.55,0,0,0,1.1-.45l1.62-1.62,1.62,1.62a1.55,1.55,0,1,0,2.19-2.2L59.91,4.27l1.62-1.62A1.55,1.55,0,0,0,59.34.45L57.72,2.08,56.1.45a1.57,1.57,0,0,0-2.2,0,1.57,1.57,0,0,0,0,2.2l1.62,1.62L53.9,5.89A1.57,1.57,0,0,0,53.9,8.09Z"/><circle class="cls-1" cx="69.65" cy="27.12" r="1.58"/><circle class="cls-1" cx="115.35" cy="55.94" r="1.58"/><circle class="cls-1" cx="1.58" cy="101.14" r="1.58"/><circle class="cls-1" cx="110.17" cy="107.7" r="1.58"/><circle class="cls-1" cx="12.28" cy="36.87" r="1.58"/></g></g></svg>