<svg xmlns="http://www.w3.org/2000/svg" viewBox="0 0 126.85 129.06"><defs><style>.cls-1{fill:#1d1d1b;}</style></defs><title>Asset 12</title><g id="Layer_2" data-name="Layer 2"><g id="Layer_1-2" data-name="Layer 1"><path class="cls-1" d="M114.29,17.84a21.94,21.94,0,0,0-31,0,21.7,21.7,0,0,0-5.68,10L18.17,66.08a3.07,3.07,0,0,0-3.43.56,3,3,0,0,0,0,4.26,3,3,0,0,0,2.13.88,3,3,0,0,0,3-3s0-.06,0-.09L77,31.92a21.86,21.86,0,0,0,5.3,15.76l-52.41,52.4a3,3,0,1,0,2.3,2.91,3,3,0,0,0-.1-.72l52.4-52.4A21.89,21.89,0,0,0,98.8,55.24c.47,0,.94,0,1.41-.07L63.43,112.29a3,3,0,1,0,2.06,5.1h0a3,3,0,0,0,.56-3.45l38.28-59.43a21.87,21.87,0,0,0,10-36.67Zm-2.2,28.79a18.79,18.79,0,1,1,0-26.6A18.83,18.83,0,0,1,112.09,46.63Z"/><path class="cls-1" d="M107.05,20.87a15.07,15.07,0,0,0-15.62-.54A1.55,1.55,0,1,0,93,23a11.91,11.91,0,0,1,12.37.43,1.52,1.52,0,0,0,.86.26,1.56,1.56,0,0,0,.86-2.85Z"/><path class="cls-1" d="M44,20.72h2.29V23a1.56,1.56,0,0,0,3.11,0V20.72h2.29a1.56,1.56,0,0,0,0-3.11H49.44V15.32a1.56,1.56,0,0,0-3.11,0v2.29H44a1.56,1.56,0,0,0,0,3.11Z"/><path class="cls-1" d="M126,115.27a1.54,1.54,0,0,0-2.19,0l-1.62,1.62-1.62-1.62a1.55,1.55,0,0,0-2.2,2.19l1.62,1.62-1.62,1.62a1.56,1.56,0,0,0,2.2,2.2l1.62-1.62,1.62,1.62a1.55,1.55,0,1,0,2.19-2.2l-1.62-1.62,1.62-1.62A1.54,1.54,0,0,0,126,115.27Z"/><path class="cls-1" d="M8.09,97.69a1.55,1.55,0,0,0-2.2,0L4.27,99.31,2.65,97.69a1.55,1.55,0,0,0-2.2,2.19l1.63,1.62L.45,103.12a1.57,1.57,0,0,0,0,2.2,1.59,1.59,0,0,0,1.1.45,1.55,1.55,0,0,0,1.1-.45l1.62-1.62,1.62,1.62a1.56,1.56,0,1,0,2.2-2.2L6.47,101.5l1.62-1.62A1.56,1.56,0,0,0,8.09,97.69Z"/><circle class="cls-1" cx="34.67" cy="127.48" r="1.58"/><circle class="cls-1" cx="125.27" cy="1.58" r="1.58"/><circle class="cls-1" cx="23.45" cy="35.22" r="1.58"/><circle class="cls-1" cx="8.67" cy="7.33" r="1.58"/><path class="cls-1" d="M101.84,90A6.13,6.13,0,1,0,108,96.16,6.14,6.14,0,0,0,101.84,90Zm0,9.14a3,3,0,1,1,3-3A3,3,0,0,1,101.84,99.17Z"/></g></g></svg>