<svg xmlns="http://www.w3.org/2000/svg" viewBox="0 0 91.39 141.29"><defs><style>.cls-1{fill:#1d1d1b;}</style></defs><title>Asset 20</title><g id="Layer_2" data-name="Layer 2"><g id="Layer_1-2" data-name="Layer 1"><path class="cls-1" d="M31.83,30.34A12.16,12.16,0,0,0,44,18.26c0-6-4.45-9.37-12.2-9.37s-12.2,3.41-12.2,9.37A12.15,12.15,0,0,0,31.83,30.34Zm0-18.35c6,0,9.09,2.11,9.09,6.27a9.09,9.09,0,0,1-18.18,0C22.74,14.1,25.8,12,31.83,12Z"/><path class="cls-1" d="M88.82,12.24l-.58-.49a7.17,7.17,0,0,0-10.11.89l-1.66,2s0,.05,0,.08h0C71.64,21.14,64,24,57.66,25.3V17.48a6.24,6.24,0,0,0-6.25-6.2H48.77a18.37,18.37,0,0,0-33.89,0H13.14V4.37a1.55,1.55,0,0,0-3.1,0V11.6a6.19,6.19,0,0,0-4.36,5.88V35.69a2.21,2.21,0,0,0,.05.25A27,27,0,0,0,0,52.5V84.9a7.18,7.18,0,0,0,7.17,7.18h.76A7.1,7.1,0,0,0,12,90.8v35.8c-.26,0-.52,0-.79,0A10.38,10.38,0,0,0,.8,136.88a4.43,4.43,0,0,0,4.44,4.41H28.7a1.55,1.55,0,0,0,1.55-1.55V103.65a1.44,1.44,0,0,1,2.87,0v36.09a1.55,1.55,0,0,0,1.56,1.55H58.13a4.43,4.43,0,0,0,4.44-4.41,10.38,10.38,0,0,0-10.41-10.32c-.17,0-.34,0-.51,0V82.32h0c0-.06,0-.12,0-.18V75.28a6.22,6.22,0,0,0,6-6.17V42.53A50.71,50.71,0,0,0,88.07,24.3l1.64-1.95a7.17,7.17,0,0,0-.89-10.11ZM50.14,18.13a17.87,17.87,0,0,0-.4-3.75h1.67a3.12,3.12,0,0,1,3.14,3.1v8.34a52.25,52.25,0,0,1-6.39.46A17.78,17.78,0,0,0,50.14,18.13Zm-18.31-15a15.13,15.13,0,0,1,15.2,15,15.21,15.21,0,0,1-30.41,0A15.13,15.13,0,0,1,31.83,3.11Zm-23,14.37a3.12,3.12,0,0,1,3.14-3.1h2a17.81,17.81,0,0,0,2.35,13.26,27.17,27.17,0,0,0-7.48,4.94ZM7.93,89H7.17A4.07,4.07,0,0,1,3.11,84.9v-1H12v1A4.07,4.07,0,0,1,7.93,89ZM54.55,69.11a3.1,3.1,0,0,1-2.9,3.06V48.12a5.34,5.34,0,0,1,2.9-4.75Zm1.29-29.39a8.47,8.47,0,0,0-7.29,8.4v34c0,.06,0,.12,0,.18h0v44.74a13.23,13.23,0,0,0-6,3.53,1.56,1.56,0,0,0,2.23,2.17,10.14,10.14,0,0,1,7.35-3.09,7.27,7.27,0,0,1,7.31,7.21,1.33,1.33,0,0,1-1.34,1.31H36.23v-8.52h3.28a1.56,1.56,0,0,0,0-3.11H36.23V103.65a4.55,4.55,0,0,0-9.09,0v22.91H23.86a1.56,1.56,0,0,0,0,3.11h3.28v8.52H5.24a1.33,1.33,0,0,1-1.34-1.31,7.27,7.27,0,0,1,7.31-7.21,10.14,10.14,0,0,1,7.35,3.09,1.56,1.56,0,0,0,2.23-2.17,13.36,13.36,0,0,0-5.68-3.46V55A1.56,1.56,0,0,0,12,55V80.76H3.11V52.5A24.28,24.28,0,0,1,18.2,30.2a18.37,18.37,0,0,0,28-.84c.31,0,.93,0,1.83,0,5.54,0,20.92-1,29.86-11.58l6.83,5.72C81.81,27,71.88,37.29,55.84,39.72ZM87.33,20.35l-.66.79-6.82-5.71.66-.8a4.07,4.07,0,0,1,5.74-.5h0l.58.49A4.07,4.07,0,0,1,87.33,20.35Z"/><path class="cls-1" d="M39.82,43.83h-16a4.21,4.21,0,0,0-4.2,4.2v9.88a4.21,4.21,0,0,0,4.2,4.2h16a4.2,4.2,0,0,0,4.2-4.2V48A4.2,4.2,0,0,0,39.82,43.83Zm1.1,14.08a1.1,1.1,0,0,1-1.1,1.1h-16a1.09,1.09,0,0,1-1.09-1.1V48a1.1,1.1,0,0,1,1.09-1.1h16a1.1,1.1,0,0,1,1.1,1.1Z"/></g></g></svg>