<svg xmlns="http://www.w3.org/2000/svg" viewBox="0 0 97.76 109.28"><title>Asset 16</title><g id="Layer_2" data-name="Layer 2"><g id="Layer_1-2" data-name="Layer 1"><path d="M97.51,17.71,86.35.7A1.55,1.55,0,0,0,84.2.25l-29,19a1.55,1.55,0,0,0-.45,2.15l1.29,2L28.28,41.59a1.6,1.6,0,0,0-.67,1,1.54,1.54,0,0,0,.23,1.16l.59.91L.7,62.84A1.54,1.54,0,0,0,.26,65l4,6.07a1.56,1.56,0,0,0,1.3.7,1.58,1.58,0,0,0,.85-.25L34.12,53.32l.6.91a1.48,1.48,0,0,0,1,.67,1.63,1.63,0,0,0,.31,0,1.57,1.57,0,0,0,.86-.25l14.64-9.61L24.17,103.28A3,3,0,1,0,27,104.59L52.7,49.85V103.7a3,3,0,1,0,3.11,0V49.85l25.71,54.74a3,3,0,1,0,2.82-1.31l-28.64-61,8.89-5.83,1.29,2a1.61,1.61,0,0,0,1,.67,1.73,1.73,0,0,0,.32,0A1.52,1.52,0,0,0,68,38.9l29-19A1.55,1.55,0,0,0,97.51,17.71ZM6,68.06,3.7,64.58,30.13,47.25l2.28,3.48ZM36.46,51.23l-5.18-7.89L57.71,26l3.41,5.19,1.77,2.7ZM67.63,35.45l-1.29-2h0l-.12-.17L58.17,21,84.6,3.7l9.46,14.42Z"/></g></g></svg>