<svg xmlns="http://www.w3.org/2000/svg" viewBox="0 0 137.43 95.3"><defs><style>.cls-1{fill:#1d1d1b;}</style></defs><title>Asset 10</title><g id="Layer_2" data-name="Layer 2"><g id="Layer_1-2" data-name="Layer 1"><path class="cls-1" d="M48.37,71.31a5.19,5.19,0,1,0,5.19,5.19A5.2,5.2,0,0,0,48.37,71.31Zm0,7.27a2.08,2.08,0,1,1,2.09-2.08A2.08,2.08,0,0,1,48.37,78.58Z"/><path class="cls-1" d="M133.45,43a4,4,0,1,0-4-4A4,4,0,0,0,133.45,43Zm0-4.84a.87.87,0,1,1-.86.86A.87.87,0,0,1,133.45,38.12Z"/><path class="cls-1" d="M85.79,23.28a7,7,0,1,0-7-7A7,7,0,0,0,85.79,23.28Zm0-11a3.93,3.93,0,1,1-3.93,3.93A3.93,3.93,0,0,1,85.79,12.32Z"/><path class="cls-1" d="M8.64,9.56h2.29v2.29a1.56,1.56,0,0,0,3.11,0V9.56h2.29a1.56,1.56,0,0,0,0-3.11H14V4.16a1.56,1.56,0,0,0-3.11,0V6.45H8.64a1.56,1.56,0,0,0,0,3.11Z"/><path class="cls-1" d="M126.47,84.93h-2.29V82.64a1.56,1.56,0,0,0-3.11,0v2.29h-2.29a1.56,1.56,0,0,0,0,3.11h2.29v2.29a1.56,1.56,0,0,0,3.11,0V88h2.29a1.56,1.56,0,0,0,0-3.11Z"/><path class="cls-1" d="M111.12,8.09a1.55,1.55,0,0,0,1.1.45,1.57,1.57,0,0,0,1.1-.45l1.62-1.62,1.62,1.62a1.55,1.55,0,1,0,2.19-2.2l-1.62-1.62,1.62-1.62a1.55,1.55,0,0,0-2.19-2.2l-1.62,1.63L113.32.45a1.57,1.57,0,0,0-2.2,0,1.55,1.55,0,0,0,0,2.2l1.62,1.62-1.62,1.62A1.55,1.55,0,0,0,111.12,8.09Z"/><path class="cls-1" d="M18.05,82.67a1.55,1.55,0,0,0-2.2,0l-1.62,1.62-1.62-1.62a1.55,1.55,0,0,0-2.19,2.2L12,86.49l-1.62,1.62a1.54,1.54,0,0,0,0,2.19,1.53,1.53,0,0,0,2.19,0l1.62-1.62,1.62,1.62a1.55,1.55,0,0,0,2.2,0,1.56,1.56,0,0,0,0-2.19l-1.62-1.62,1.62-1.62A1.57,1.57,0,0,0,18.05,82.67Z"/><circle class="cls-1" cx="40.24" cy="93.72" r="1.58"/><circle class="cls-1" cx="114.94" cy="44.46" r="1.58"/><circle class="cls-1" cx="49.95" cy="4.27" r="1.58"/><path class="cls-1" d="M35.77,72.94C15.62,67.55,3.11,57.68,3.11,47.18c0-16.44,29.37-29.82,65.47-29.82a1.56,1.56,0,0,0,0-3.11C30.12,14.25,0,28.72,0,47.18,0,59.33,13.07,70.09,35,75.94a1.39,1.39,0,0,0,.4.06,1.56,1.56,0,0,0,.4-3.06Z"/><path class="cls-1" d="M135.6,45.63a1.54,1.54,0,0,0-1.55,1.55C134.05,63.63,104.68,77,68.58,77c-2.13,0-4.28-.05-6.4-.14a1.58,1.58,0,0,0-1.62,1.48A1.55,1.55,0,0,0,62,80c2.17.09,4.36.14,6.54.14,38.45,0,68.57-14.46,68.57-32.93A1.54,1.54,0,0,0,135.6,45.63Z"/><path class="cls-1" d="M101.38,21.42c11,2.95,19.88,7.26,25.67,12.47a1.55,1.55,0,0,0,2.19-.11,1.56,1.56,0,0,0-.11-2.2C123,26,113.66,21.49,102.18,18.42a1.55,1.55,0,1,0-.8,3Z"/><path class="cls-1" d="M33.5,31.38c-8.95,4.69-13.7,10.71-13.38,16.93S25.79,60,35.18,63.78C45,67.7,57.3,69.6,69.87,69.6c16.92,0,34.35-3.45,46.95-10.06a1.55,1.55,0,0,0,.66-2.09,1.57,1.57,0,0,0-2.1-.66c-21.27,11.16-56.74,13-79,4.1C28.25,57.67,23.48,53,23.22,48.15s4-10,11.72-14c13.49-7.08,36-8.24,50.13-2.6,5,2,7.88,4.77,8,7.66s-2.47,6-7.2,8.45c-8.5,4.47-22.69,5.2-31.61,1.64a1.56,1.56,0,0,0-1.15,2.89c9.66,3.85,25,3,34.21-1.78,5.93-3.11,9.07-7.14,8.85-11.36s-3.76-7.91-10-10.39C71.34,22.71,47.69,23.93,33.5,31.38Z"/><path class="cls-1" d="M63.66,44.46A1.54,1.54,0,0,0,65.21,46a22.33,22.33,0,0,0,9.46-1.79,1.55,1.55,0,0,0-1.39-2.78,19.45,19.45,0,0,1-8.07,1.47A1.54,1.54,0,0,0,63.66,44.46Z"/><path class="cls-1" d="M69.07,35.16a30.08,30.08,0,0,0-3.86-.24c-4.21,0-8,.84-10.24,2.24A1.55,1.55,0,0,0,55.8,40a1.59,1.59,0,0,0,.83-.24c1.68-1.07,5-1.76,8.58-1.76a27.17,27.17,0,0,1,3.45.22,1.55,1.55,0,1,0,.41-3.08Z"/></g></g></svg>