<svg xmlns="http://www.w3.org/2000/svg" viewBox="0 0 132.29 133.85"><title>Asset 3</title><g id="Layer_2" data-name="Layer 2"><g id="Layer_1-2" data-name="Layer 1"><path d="M132.29,49.79a7,7,0,1,0-7,7A7,7,0,0,0,132.29,49.79Zm-7,3.93a3.94,3.94,0,1,1,3.93-3.93A3.94,3.94,0,0,1,125.26,53.72Z"/><path d="M5.78,1.43A11.25,11.25,0,0,0,8.19,22.09a11.31,11.31,0,0,0,3.09.44,11.26,11.26,0,1,0-5.5-21.1Zm9.46,17A8.14,8.14,0,0,1,4.15,15.24,8.44,8.44,0,0,1,3.62,14l6.68-3.73A1.55,1.55,0,1,0,8.78,7.6L3.14,10.75A7.73,7.73,0,0,1,3.42,9a8.14,8.14,0,0,1,7.83-5.93,8.17,8.17,0,0,1,7.14,4.17A8.45,8.45,0,0,1,19,8.67l-.09,0L11.13,13a1.55,1.55,0,0,0,.75,2.9,1.59,1.59,0,0,0,.76-.19L19.38,12A8.13,8.13,0,0,1,15.24,18.38Z"/><path d="M120,13.26l1.62-1.62,1.62,1.62a1.55,1.55,0,0,0,1.1.45,1.55,1.55,0,0,0,1.1-2.65l-1.62-1.62,1.62-1.62a1.56,1.56,0,0,0-2.2-2.2l-1.62,1.62L120,5.62a1.55,1.55,0,0,0-2.19,2.2l1.62,1.62-1.62,1.62a1.55,1.55,0,0,0,2.19,2.2Z"/><path d="M14.73,68.76H12.44v-2.3a1.56,1.56,0,0,0-3.11,0v2.3H7a1.55,1.55,0,0,0,0,3.1H9.33v2.29a1.56,1.56,0,0,0,3.11,0V71.86h2.29a1.55,1.55,0,1,0,0-3.1Z"/><circle cx="112.78" cy="68.95" r="1.58"/><circle cx="16.71" cy="39.36" r="1.58"/><circle cx="129.16" cy="124.92" r="1.58"/><circle cx="5.46" cy="117.47" r="1.58"/><path d="M63.45,86.2A21.48,21.48,0,0,0,42,107.66V132.3a1.55,1.55,0,1,0,3.1,0V107.66a18.36,18.36,0,1,1,36.72,0V132.3a1.56,1.56,0,0,0,3.11,0V107.66A21.48,21.48,0,0,0,63.45,86.2Z"/><path d="M73.1,108.47H53.84A3.86,3.86,0,0,0,50,112.33v10.29a3.86,3.86,0,0,0,3.86,3.85H73.1A3.86,3.86,0,0,0,77,122.62V112.33A3.86,3.86,0,0,0,73.1,108.47Zm.76,14.15a.76.76,0,0,1-.76.75H53.84a.76.76,0,0,1-.75-.75V112.33a.75.75,0,0,1,.75-.75H73.1a.75.75,0,0,1,.76.75Z"/><path d="M95.91,76.79c0-.08,0-.15,0-.24V74a4,4,0,0,0-4-4h0c2.28-2,4.36-4.07,4.49-4.21a1.56,1.56,0,0,0-.08-2.27L94.5,62a33.48,33.48,0,0,0,0-42.37l1.82-1.56a1.57,1.57,0,0,0,.16-2.19,37.76,37.76,0,0,0-66.4,24.93A38.07,38.07,0,0,0,44.18,70.45,4,4,0,0,0,42,74v2.44a1.53,1.53,0,0,0-.59.28,43.94,43.94,0,0,0-16.92,34.75V132.3a1.56,1.56,0,0,0,3.11,0V111.47A40.85,40.85,0,0,1,43.09,79.32a3.93,3.93,0,0,0,2.85,1.21H92a3.89,3.89,0,0,0,2.51-.92,40.85,40.85,0,0,1,12.22,16.47H98.9a6.44,6.44,0,0,0-6.43,6.43V117a6.44,6.44,0,0,0,6.43,6.43h10.75v8.86a1.56,1.56,0,0,0,3.11,0V111.47A43.81,43.81,0,0,0,95.91,76.79Zm3-36A30.45,30.45,0,0,1,92.15,60L75.4,45.47a8.83,8.83,0,0,0,0-9.35L92.15,21.64A30.48,30.48,0,0,1,99,40.8ZM67.68,19.42a1.24,1.24,0,1,1,1.21-1.24A1.23,1.23,0,0,1,67.68,19.42ZM67.88,35a5.81,5.81,0,1,1-5.75,5.8A5.78,5.78,0,0,1,67.88,35ZM67,31.93l.7-8.58.7,8.56-.5,0C67.58,31.89,67.28,31.9,67,31.93ZM33.17,40.79A34.67,34.67,0,0,1,93.08,16.73L73.34,33.79a8.93,8.93,0,0,0-1.78-1.09l-.93-11.37a4.32,4.32,0,1,0-5.9,0l-1,11.58a8.91,8.91,0,0,0,4.1,16.79,8.77,8.77,0,0,0,5.46-1.91L93,64.79A58.17,58.17,0,0,1,86.93,70H48.8A35,35,0,0,1,33.17,40.79ZM92,77.43h-46a.87.87,0,0,1-.87-.88V74a.87.87,0,0,1,.87-.87H92a.88.88,0,0,1,.88.87v2.55A.88.88,0,0,1,92,77.43Zm7,42.9A3.32,3.32,0,0,1,95.58,117v-14.5a3.33,3.33,0,0,1,3.32-3.33h8.89a41.3,41.3,0,0,1,1.86,12.29v8.86Z"/></g></g></svg>