<svg xmlns="http://www.w3.org/2000/svg" viewBox="0 0 128.66 132.92"><title>Asset 14</title><g id="Layer_2" data-name="Layer 2"><g id="Layer_1-2" data-name="Layer 1"><path d="M119.87,118.62a1.55,1.55,0,0,0-2.2,0l-1.62,1.62-1.62-1.62a1.55,1.55,0,0,0-2.2,2.19l1.62,1.62-1.62,1.63a1.56,1.56,0,0,0,0,2.19,1.6,1.6,0,0,0,1.1.46,1.56,1.56,0,0,0,1.1-.46l1.62-1.62,1.62,1.62a1.56,1.56,0,0,0,1.1.46,1.58,1.58,0,0,0,1.1-.46,1.56,1.56,0,0,0,0-2.19l-1.62-1.63,1.62-1.62A1.56,1.56,0,0,0,119.87,118.62Z"/><path d="M9.18,14.26a1.55,1.55,0,0,0,2.2,0,1.56,1.56,0,0,0,0-2.19L9.76,10.45l1.62-1.62a1.57,1.57,0,0,0,0-2.2,1.55,1.55,0,0,0-2.2,0L7.56,8.25,5.94,6.63a1.55,1.55,0,0,0-2.19,2.2l1.62,1.62L3.75,12.07a1.54,1.54,0,0,0,0,2.19,1.53,1.53,0,0,0,2.19,0l1.62-1.62Z"/><circle cx="63.17" cy="1.58" r="1.58"/><circle cx="36.25" cy="131.34" r="1.58"/><circle cx="1.58" cy="36.26" r="1.58"/><circle cx="127.08" cy="42.23" r="1.58"/><path d="M115.76,52.85a1.55,1.55,0,0,0-3,.8,51.35,51.35,0,0,1-64,62.57,1.55,1.55,0,1,0-.87,3,54.46,54.46,0,0,0,67.84-66.35Z"/><path d="M24.67,105.42a54.59,54.59,0,0,0,7,6,1.56,1.56,0,0,0,2.16-.37,1.56,1.56,0,0,0-.37-2.17,51.33,51.33,0,1,1,71.57-71.56,1.55,1.55,0,1,0,2.53-1.8,53.64,53.64,0,0,0-5.94-7,54.44,54.44,0,0,0-77,77Z"/><path d="M96.81,16.84c8-3,13.89-3.07,16.7-.26,3.06,3.05,2.7,9.66-1,18.6-3.41,8.21-9.38,17.85-17.3,27.88a1.56,1.56,0,0,0,.26,2.18,1.52,1.52,0,0,0,1,.34A1.56,1.56,0,0,0,97.65,65c8.09-10.26,14.22-20.16,17.72-28.63,4.28-10.32,4.4-17.92.34-22-3.78-3.78-10.69-3.94-20-.46a1.55,1.55,0,0,0,1.09,2.91Z"/><path d="M61.69,99.07a1.55,1.55,0,0,0-2.18-.25c-10.12,8-19.84,14-28.1,17.45-8.93,3.7-15.54,4.06-18.59,1-2.81-2.82-2.72-8.75.26-16.7a1.55,1.55,0,0,0-2.91-1.09c-3.48,9.29-3.33,16.2.45,20,2,2,4.79,3,8.34,3,3.76,0,8.34-1.1,13.64-3.29,8.52-3.53,18.49-9.72,28.83-17.89A1.56,1.56,0,0,0,61.69,99.07Z"/><path d="M91.64,79a8.61,8.61,0,0,0,1.79-3l1.16-3.27a3.53,3.53,0,0,0-4.32-4.56l-3.33,1a8.69,8.69,0,0,0-3.08,1.62l-9.82,8a2.38,2.38,0,0,1-1.74.52L64,78.42a3.41,3.41,0,0,0-2.3.6l-1.34,1a3.38,3.38,0,0,0-.88,4.64l4.2,4.83a3,3,0,0,0-1,2.86A7.84,7.84,0,0,0,65,95.77l.6.64C66.75,97.6,67.71,98.62,69,99a2.76,2.76,0,0,0,.75.1,3.06,3.06,0,0,0,2.17-.94l4.42,4.31.16.14a3.37,3.37,0,0,0,4.68-.63l1-1.29a3.36,3.36,0,0,0,.73-2.26L82.51,90a2.37,2.37,0,0,1,.62-1.7Zm-21.94,17a9.1,9.1,0,0,1-1.81-1.65l-.61-.65a12.28,12.28,0,0,1-1.61-1.86l6.93-4.51a1.42,1.42,0,0,1,1.83.21,1.44,1.44,0,0,1,.11,1.84Zm11.13-9.68a5.42,5.42,0,0,0-1.42,3.93l.39,8.34a.31.31,0,0,1-.07.2l-1,1.29a.28.28,0,0,1-.34.08l-4.6-4.48,3.28-4.47a4.54,4.54,0,0,0-6.15-6.49l-4.64,3L62,82.85a.28.28,0,0,1,.1-.34l1.34-1a.29.29,0,0,1,.2,0l8.31.84a5.46,5.46,0,0,0,4-1.21l9.82-8a5.49,5.49,0,0,1,2-1.05l3.32-1a.42.42,0,0,1,.52.55L90.5,74.93a5.7,5.7,0,0,1-1.15,1.94Z"/></g></g></svg>