<svg xmlns="http://www.w3.org/2000/svg" viewBox="0 0 85.8 129.72"><title>Asset 18</title><g id="Layer_2" data-name="Layer 2"><g id="Layer_1-2" data-name="Layer 1"><path d="M42.46,19a5.58,5.58,0,1,0-3.66-1.35A5.59,5.59,0,0,0,42.46,19Zm0-8a2.47,2.47,0,1,1-1.63,4.32A2.43,2.43,0,0,1,40,13.41,2.48,2.48,0,0,1,42.46,11Z"/><path d="M58.16,37.23a12.9,12.9,0,0,0,3.73-4.75s0,0,0,0c13.36-1.93,23.89-6,23.89-11.87C85.8,12.44,67,9.3,59.54,8.37a20.73,20.73,0,0,0-33.28,0c-7,.86-26.26,4-26.26,12.2,0,5.92,10.55,10,23.93,11.87a13,13,0,0,0,3.35,4.42L.7,114.25a6.44,6.44,0,0,0,1.64,6.88c5.65,5.14,22,8.59,40.56,8.59s34.89-3.45,40.54-8.58a6.44,6.44,0,0,0,1.64-6.92ZM42.9,3.11A17.55,17.55,0,0,1,60.51,20.57c-.09,1.15-6.19,3.84-17.61,3.84s-17.52-2.69-17.61-3.84A17.55,17.55,0,0,1,42.9,3.11ZM3.11,20.57c0-3,7.23-6.79,21.09-8.79a20.26,20.26,0,0,0-2,8.79c0,4.77,10.74,6.94,20.72,6.94s20.71-2.17,20.71-6.94a20.29,20.29,0,0,0-2-8.79c13.72,2,21.09,5.89,21.09,8.79,0,4.21-15.14,10.07-39.79,10.07S3.11,24.78,3.11,20.57ZM42.9,33.75A139.37,139.37,0,0,0,58,32.93c-2.89,3.94-8,4.79-15.11,4.79s-12.19-.86-15.1-4.79A138.58,138.58,0,0,0,42.9,33.75Zm38.46,85.09c-5,4.58-20.86,7.77-38.46,7.77s-33.43-3.2-38.47-7.78a3.37,3.37,0,0,1-.79-3.57L30,38.61c3.71,1.84,8.31,2.22,13,2.22,4.25,0,8.77-.23,12.52-2l26.71,76.38A3.4,3.4,0,0,1,81.36,118.84Z"/><path d="M42.46,60.11A1.56,1.56,0,0,0,44,58.56V49a1.56,1.56,0,0,0-3.11,0v9.58A1.56,1.56,0,0,0,42.46,60.11Z"/><path d="M42.46,86.42A1.55,1.55,0,0,0,40.91,88v9.85a1.56,1.56,0,1,0,3.11,0V88A1.55,1.55,0,0,0,42.46,86.42Z"/><path d="M42.46,108.5a1.55,1.55,0,0,0-1.55,1.55V115A1.56,1.56,0,0,0,44,115v-4.92A1.55,1.55,0,0,0,42.46,108.5Z"/><path d="M52.5,71.91a2.88,2.88,0,0,0-3-.91l-5,1.44-2-1.06,0,0a4.05,4.05,0,0,0,2.63-2.58L46,66.52a1.55,1.55,0,0,0-3-1l-.74,2.26a1,1,0,0,1-.61.6l-2.92.92L38,68.93a3.73,3.73,0,0,0-1.94-3.55,3.75,3.75,0,0,0-5.37,4.36,3.78,3.78,0,0,0,3.58,2.68,4,4,0,0,0,1.08-.16,3.63,3.63,0,0,0,1.17-.61l.37.2c0,.69,0,1.69.08,3.23a4,4,0,0,0,1,2.45l2.48,2.79a1.53,1.53,0,0,0,1.16.52,1.49,1.49,0,0,0,1-.39,1.55,1.55,0,0,0,.13-2.19l-2.48-2.79a1,1,0,0,1-.24-.57c0-.52-.05-1-.06-1.36l3.41,1.85,3.4,3a.63.63,0,0,1,.21.51l-.32,3.86a1.55,1.55,0,0,0,1.42,1.68h.13A1.54,1.54,0,0,0,49.82,83l.32-3.86a3.72,3.72,0,0,0-1.25-3.1l-1.4-1.24L50.22,74l3.49,4.14a1.55,1.55,0,0,0,1.19.56,1.53,1.53,0,0,0,1-.37,1.55,1.55,0,0,0,.19-2.19Zm-18-2.63a.61.61,0,0,1-.48,0,.66.66,0,0,1-.31-.37A.63.63,0,0,1,34.3,68a.64.64,0,0,1,.3.08.63.63,0,0,1,.26.86h0A.61.61,0,0,1,34.48,69.28Z"/></g></g></svg>