<svg xmlns="http://www.w3.org/2000/svg" viewBox="0 0 145.88 98.73"><defs><style>.cls-1{fill:#1d1d1b;}</style></defs><title>Asset 15</title><g id="Layer_2" data-name="Layer 2"><g id="Layer_1-2" data-name="Layer 1"><path class="cls-1" d="M49.47,77a4.09,4.09,0,1,0,4.08,4.09A4.1,4.1,0,0,0,49.47,77Zm0,5.07a1,1,0,1,1,1-1A1,1,0,0,1,49.47,82.11Z"/><path class="cls-1" d="M43.13,81a1.23,1.23,0,1,0,1.22,1.22A1.23,1.23,0,0,0,43.13,81Z"/><path class="cls-1" d="M40.32,75.17a10.75,10.75,0,1,0,15.21,0A10.76,10.76,0,0,0,40.32,75.17Zm6,15.06a1.65,1.65,0,0,1,2.47.1A7.6,7.6,0,0,1,46.33,90.23Zm9.1-6a1.21,1.21,0,0,0-.78,2.15,7.56,7.56,0,0,1-1.32,1.85,7.7,7.7,0,0,1-1.49,1.13,4.81,4.81,0,0,0-8.42-.39,7.86,7.86,0,0,1-.9-.74,7.64,7.64,0,1,1,12.91-4Z"/><path class="cls-1" d="M116,30.07a1.55,1.55,0,0,0-2.19.08L56.58,91.56a12.26,12.26,0,0,1-8.85,4.06,12.46,12.46,0,0,1-9-3.61,12.37,12.37,0,0,1,.46-17.91l61.4-57.16a1.55,1.55,0,1,0-2.12-2.27L37.05,71.82A15.46,15.46,0,0,0,47.41,98.73h.4a15.3,15.3,0,0,0,11.06-5.06L116,32.26A1.55,1.55,0,0,0,116,30.07Z"/><path class="cls-1" d="M51.28,69.94a1.57,1.57,0,0,0,2.2,0L110.34,14.8a1.55,1.55,0,0,0-2.16-2.23L51.32,67.75A1.55,1.55,0,0,0,51.28,69.94Z"/><path class="cls-1" d="M57.57,73a1.56,1.56,0,0,0,2.19,0l60.46-60.46a1.55,1.55,0,1,0-2.2-2.19L57.57,70.83A1.55,1.55,0,0,0,57.57,73Z"/><path class="cls-1" d="M115.79,20.27,60.62,77.12a1.55,1.55,0,0,0,0,2.19,1.56,1.56,0,0,0,2.2,0L118,22.43a1.55,1.55,0,0,0-2.23-2.16Z"/><path class="cls-1" d="M145.15,76.71A133.23,133.23,0,0,0,97.64,58.39a1.55,1.55,0,1,0-.53,3.06,130.22,130.22,0,0,1,46.4,17.89,1.56,1.56,0,0,0,.82.24,1.55,1.55,0,0,0,.82-2.87Z"/><path class="cls-1" d="M41,62.19a1.54,1.54,0,0,0-1.89-1.11C16.05,67,1.33,76.32.71,76.72a1.54,1.54,0,0,0-.46,2.14,1.53,1.53,0,0,0,2.14.47c.15-.09,15-9.48,37.53-15.25A1.55,1.55,0,0,0,41,62.19Z"/><path class="cls-1" d="M130,11.43h2.29v2.29a1.55,1.55,0,0,0,3.1,0V11.43h2.29a1.55,1.55,0,1,0,0-3.1H135.4V6a1.55,1.55,0,0,0-3.1,0v2.3H130a1.55,1.55,0,1,0,0,3.1Z"/><path class="cls-1" d="M6.39,26.24a1.55,1.55,0,0,0,1.1.45,1.57,1.57,0,0,0,1.1-.45l1.62-1.62,1.62,1.62A1.55,1.55,0,1,0,14,24L12.4,22.42,14,20.8a1.55,1.55,0,0,0-2.19-2.2l-1.62,1.62L8.59,18.6a1.57,1.57,0,0,0-2.2,0,1.55,1.55,0,0,0,0,2.2L8,22.42,6.39,24A1.55,1.55,0,0,0,6.39,26.24Z"/><circle class="cls-1" cx="80.83" cy="6.03" r="1.58"/><circle class="cls-1" cx="55.44" cy="31.45" r="1.58"/><circle class="cls-1" cx="22.12" cy="46.47" r="1.58"/><circle class="cls-1" cx="133.85" cy="53.97" r="1.58"/><circle class="cls-1" cx="18.97" cy="2.88" r="1.58"/><path class="cls-1" d="M47,17.36a8.68,8.68,0,1,0-8.68-8.68A8.69,8.69,0,0,0,47,17.36ZM47,3.11A5.57,5.57,0,1,1,41.4,8.68,5.58,5.58,0,0,1,47,3.11Z"/></g></g></svg>