<svg xmlns="http://www.w3.org/2000/svg" viewBox="0 0 129.49 99.79"><defs><style>.cls-1{fill:#cecece;}</style></defs><title>Asset 2</title><g id="Layer_2" data-name="Layer 2"><g id="Layer_1-2" data-name="Layer 1"><path class="cls-1" d="M99.75,75H102v2.29a1.55,1.55,0,0,0,3.1,0V75h2.29a1.56,1.56,0,1,0,0-3.11h-2.29V69.57a1.55,1.55,0,0,0-3.1,0v2.29H99.75a1.56,1.56,0,1,0,0,3.11Z"/><path class="cls-1" d="M43.53,77a4.09,4.09,0,1,0,4.09,4.09A4.09,4.09,0,0,0,43.53,77Zm0,5.07a1,1,0,1,1,1-1A1,1,0,0,1,43.53,82.11Z"/><path class="cls-1" d="M37.19,81a1.23,1.23,0,1,0,1.23,1.22A1.22,1.22,0,0,0,37.19,81Z"/><path class="cls-1" d="M34.39,75.17a10.75,10.75,0,1,0,15.2,0A10.74,10.74,0,0,0,34.39,75.17Zm6,15.06a1.67,1.67,0,0,1,1.19-.51,1.71,1.71,0,0,1,1.28.61A7.58,7.58,0,0,1,40.4,90.23Zm9.1-6a1.22,1.22,0,0,0-1.22,1.22,1.2,1.2,0,0,0,.44.93,7.83,7.83,0,0,1-1.32,1.85,8.36,8.36,0,0,1-1.49,1.13,4.81,4.81,0,0,0-8.42-.39,8,8,0,0,1-.91-.74,7.65,7.65,0,1,1,12.92-4Z"/><path class="cls-1" d="M110,30.07a1.56,1.56,0,0,0-2.2.08L50.64,91.56a12.26,12.26,0,0,1-8.85,4.06,12.42,12.42,0,0,1-9-3.61,12.34,12.34,0,0,1,.46-17.91L94.61,16.94a1.55,1.55,0,0,0-2.11-2.27L31.12,71.82A15.45,15.45,0,0,0,41.47,98.73h.4a15.29,15.29,0,0,0,11.06-5.06l57.16-61.4A1.55,1.55,0,0,0,110,30.07Z"/><path class="cls-1" d="M45.35,69.94a1.51,1.51,0,0,0,1.11.47A1.54,1.54,0,0,0,47.54,70L104.4,14.8a1.55,1.55,0,1,0-2.16-2.23L45.38,67.75A1.55,1.55,0,0,0,45.35,69.94Z"/><path class="cls-1" d="M51.63,73a1.57,1.57,0,0,0,2.2,0l60.45-60.46a1.55,1.55,0,0,0-2.19-2.19L51.63,70.83A1.57,1.57,0,0,0,51.63,73Z"/><path class="cls-1" d="M109.85,20.27,54.68,77.12a1.55,1.55,0,0,0,2.23,2.16l55.17-56.85a1.55,1.55,0,0,0-2.23-2.16Z"/><path class="cls-1" d="M.45,26.24a1.59,1.59,0,0,0,1.1.45,1.55,1.55,0,0,0,1.1-.45l1.62-1.62,1.62,1.62a1.55,1.55,0,0,0,1.1.45A1.55,1.55,0,0,0,8.09,24L6.47,22.42,8.09,20.8a1.56,1.56,0,0,0-2.2-2.2L4.27,20.22,2.65,18.6a1.57,1.57,0,0,0-2.2,0,1.57,1.57,0,0,0,0,2.2l1.63,1.62L.45,24A1.57,1.57,0,0,0,.45,26.24Z"/><circle class="cls-1" cx="74.89" cy="6.03" r="1.58"/><circle class="cls-1" cx="49.5" cy="31.45" r="1.58"/><circle class="cls-1" cx="16.19" cy="46.47" r="1.58"/><circle class="cls-1" cx="127.91" cy="53.97" r="1.58"/><circle class="cls-1" cx="116.11" cy="98.21" r="1.58"/><circle class="cls-1" cx="13.03" cy="2.88" r="1.58"/><path class="cls-1" d="M41,17.36a8.68,8.68,0,1,0-8.68-8.68A8.69,8.69,0,0,0,41,17.36ZM41,3.11a5.57,5.57,0,1,1-5.58,5.57A5.58,5.58,0,0,1,41,3.11Z"/></g></g></svg>