<svg xmlns="http://www.w3.org/2000/svg" viewBox="0 0 668 240"><defs><style>.cls-1{fill:none;stroke:#00fbff;stroke-miterlimit:10;}</style></defs><title>Asset 3</title><g id="Layer_2" data-name="Layer 2"><g id="wide"><g id="text"><path class="cls-1" d="M642.5,189.5H555.38a25,25,0,0,0-11.88-47H480.06a25,25,0,0,0-3.75-44H577.5a25,25,0,0,0,0-50H488.31A25,25,0,0,0,478.5.5h-186a25,25,0,0,0-9.81,48H111.5a25,25,0,0,0-9.81,48H41.39C18.81,96.5.5,107.69.5,121.5s18.31,25,40.89,25H193.94a25,25,0,0,0,1.68,43H144.34c-20.35,0-36.84,11.19-36.84,25s16.49,25,36.84,25H294.66c20.35,0,36.84-11.19,36.84-25,0-9.51-7.82-17.77-19.33-22H444.62a25,25,0,0,0,11.88,47h186a25,25,0,0,0,0-50Z"/></g></g></g></svg>