<svg xmlns="http://www.w3.org/2000/svg" version="1.1" viewBox="0 0 94.24 113.37">
 <title>Asset 19</title>
 <style>.cls-1{fill:#cecece;}</style>
 <g style="fill:#e6e6e6" data-name="Layer 2">
  <g style="fill:#e6e6e6" data-name="Layer 1">
   <path style="fill:#e6e6e6" d="m47.12 0a47.18 47.18 0 0 0 -47.12 47.12c0 12.25 6 28.6 15.57 42.66 10.09 14.77 21.88 23.59 31.55 23.59 23.83 0 47.12-41.92 47.12-66.25a47.18 47.18 0 0 0 -47.12 -47.12zm0 110.27c-8.64 0-19.47-8.31-29-22.24-9.27-13.58-15-29.25-15-40.91a44 44 0 0 1 88 0c0.01 24.93-23.6 63.15-44 63.15z"/>
   <path style="fill:#e6e6e6" d="m81.51 41.82a1.57 1.57 0 0 0 -1.29 -1.2c-0.66-0.1-16.48-2.41-24.48 6.11s-4.68 24.16-4.53 24.82a1.54 1.54 0 0 0 1.28 1.2 39.16 39.16 0 0 0 5.56 0.36c5.51 0 13.81-1 18.92-6.46 8.03-8.53 4.68-24.16 4.54-24.83zm-6.8 22.7c-5.78 6.16-17.12 5.63-20.66 5.29-0.57-3.52-1.84-14.78 4-21s17.1-5.63 20.66-5.28c0.52 3.56 1.78 14.83-4 20.99z"/>
   <path style="fill:#e6e6e6" d="m43.86 71.55c0.15-0.66 3.47-16.3-4.53-24.82s-23.81-6.21-24.48-6.11a1.56 1.56 0 0 0 -1.28 1.2c-0.15 0.67-3.47 16.3 4.53 24.83 5.11 5.45 13.42 6.46 18.9 6.46a39.16 39.16 0 0 0 5.56 -0.36 1.53 1.53 0 0 0 1.3 -1.2zm-2.86-1.74c-3.55 0.34-14.87 0.89-20.67-5.29s-4.52-17.44-3.95-20.95c3.54-0.35 14.86-0.89 20.66 5.28s4.55 17.44 3.96 20.96z"/>
   <path style="fill:#e6e6e6" d="m19.51 21a1.55 1.55 0 0 0 1.11 -0.47 36.8 36.8 0 0 1 12.21 -8.33 1.55 1.55 0 1 0 -1.2 -2.86 39.76 39.76 0 0 0 -13.23 9 1.55 1.55 0 0 0 1.11 2.66z"/>
   <path style="fill:#e6e6e6" d="m14 28.14a1.55 1.55 0 0 0 1.33 -0.75c0.65-1.08 1.36-2.14 2.11-3.15a1.56 1.56 0 0 0 -2.44 -1.85c-0.81 1.09-1.57 2.23-2.27 3.4a1.55 1.55 0 0 0 1.27 2.35z"/>
   <path style="fill:#e6e6e6" d="m52.46 96.94a20.7 20.7 0 0 0 -11.64 0 1.55 1.55 0 0 0 1 3 17.7 17.7 0 0 1 9.71 0 1.67 1.67 0 0 0 0.47 0.06 1.56 1.56 0 0 0 0.49 -3z"/>
   <path style="fill:#e6e6e6" d="m24.35 47.89a4.8 4.8 0 0 0 -4.79 4.79 1.55 1.55 0 0 0 3.1 0 1.69 1.69 0 0 1 1.69 -1.68 1.55 1.55 0 0 0 0 -3.1z"/>
   <path style="fill:#e6e6e6" d="m63.12 47.89a4.79 4.79 0 0 0 -4.78 4.79 1.55 1.55 0 0 0 3.1 0 1.69 1.69 0 0 1 1.68 -1.68 1.55 1.55 0 1 0 0 -3.1z"/>
  </g>
 </g>
</svg>
