<svg xmlns="http://www.w3.org/2000/svg" viewBox="0 0 120.07 62.03"><title>Asset 17</title><g id="Layer_2" data-name="Layer 2"><g id="Layer_1-2" data-name="Layer 1"><path d="M120.07,28.66c0-9.07-18.77-14.57-36.84-16.77a28.57,28.57,0,0,0-46.39,0C18.91,14.07,0,19.59,0,28.66,0,35.19,11.66,42,33.69,45.1a29,29,0,0,0,52.64.25c0-.08,0-.17.06-.25C108.41,42,120.07,35.19,120.07,28.66ZM60,3.11A25.58,25.58,0,0,1,85.59,28.66c0,2.08-9,6.12-25.55,6.12s-25.56-4-25.56-6.12A25.59,25.59,0,0,1,60,3.11Zm0,55.81A26,26,0,0,1,37.41,45.58,201.36,201.36,0,0,0,60,46.77a199.92,199.92,0,0,0,22.68-1.2A26,26,0,0,1,60.06,58.92Zm0-15.25c-33.55,0-56.93-7.91-56.93-15,0-4.45,9.93-10.39,31.59-13.35a28.36,28.36,0,0,0-3.32,13.35c0,6.06,14.41,9.23,28.66,9.23S88.7,34.72,88.7,28.66A28.41,28.41,0,0,0,85.37,15.3c21.67,3,31.6,8.88,31.6,13.36C117,35.76,93.59,43.67,60,43.67Z"/><path d="M59.42,27.29a7.3,7.3,0,1,0-4.76-1.78A7.29,7.29,0,0,0,59.42,27.29Zm0-11.45A4.19,4.19,0,0,1,63,17.89,4.24,4.24,0,0,1,63.59,20a4.17,4.17,0,1,1-4.17-4.17Z"/></g></g></svg>