<svg xmlns="http://www.w3.org/2000/svg" viewBox="0 0 104.55 104.55"><title>Asset 23</title><g id="Layer_2" data-name="Layer 2"><g id="Layer_1-2" data-name="Layer 1"><path d="M101.57,34.88a52.28,52.28,0,1,0-31.9,66.69A52.34,52.34,0,0,0,101.57,34.88ZM88.22,18.77l-7.11,2.51a9.54,9.54,0,0,1-4.59.44l-2.8-.42a6.91,6.91,0,0,0-2.64.13l-6.63,1.65a.64.64,0,0,1-.55-.1.67.67,0,0,1-.27-.49l-.27-3.24a.67.67,0,0,1,.38-.66l6-2.86A7.12,7.12,0,0,0,73,12.56l2-3.84A49,49,0,0,1,88.22,18.77ZM59.07,3.61C54,6.09,49,4.86,45.83,3.53a49.38,49.38,0,0,1,6.4-.43A48.64,48.64,0,0,1,59.07,3.61ZM37.7,31.46a2.58,2.58,0,0,1-.43,2.84L21.82,51.18A3.4,3.4,0,0,0,23,56.62l9,3.79a4.84,4.84,0,0,0,5.52-1.27l1-1.13a1.27,1.27,0,0,1,1.19-.42l20.06,3.57a2.19,2.19,0,0,1,1.8,2.08l.26,9.06a2.12,2.12,0,0,1-.39,1.32c-.5.71-1.28,1.63-2.11,2.61-2.39,2.82-4.86,5.74-4.82,8.13A5.45,5.45,0,0,0,56.1,88c.31.41.69.9,1.15,1.54a.65.65,0,0,1,.08.64.63.63,0,0,1-.49.4l-.84.17a2.61,2.61,0,0,1-2.43-.82l-4.94-4.11a4.91,4.91,0,0,1-1.05-2.07l-1.73-7.37a5.15,5.15,0,0,0-4.69-4,16.81,16.81,0,0,0-3.28.17c-1.76.21-2.92.35-4.49-.66-1.15-.74-1.15-1.71-1-3.35a5.35,5.35,0,0,0-.42-3.11c-1.44-2.51-11.62-6-14.1-6.72a5.63,5.63,0,0,1-2.52-1.48L3.61,45.44a49.14,49.14,0,0,1,4.65-15l25.87-9.14c.42.17,1.32.56,3.25,1.46a1.38,1.38,0,0,1,.75,1.56l-.8,3.43A5.76,5.76,0,0,0,37.7,31.46ZM45.57,101c5-2.4,9.92-1.24,13,.07A48.64,48.64,0,0,1,45.57,101Zm23.07-2.32a47.66,47.66,0,0,1-5.1,1.49c-1.32-.86-12.44-7.72-22.51,0A49.12,49.12,0,0,1,3.19,49.43l9.91,10A8.62,8.62,0,0,0,17,61.74C21.77,63,28.48,66.07,29.24,67a5.5,5.5,0,0,1,0,1.37c-.11,1.65-.28,4.4,2.46,6.16a8.78,8.78,0,0,0,6.54,1.13A14.31,14.31,0,0,1,41,75.52a2.06,2.06,0,0,1,1.87,1.58l1.72,7.37A8.07,8.07,0,0,0,46.39,88l5,4.12a5.77,5.77,0,0,0,4.18,1.8,6.56,6.56,0,0,0,1.07-.1l.84-.17a3.77,3.77,0,0,0,2.35-5.89c-.49-.68-.89-1.21-1.23-1.64-.87-1.12-.92-1.22-.93-1.81,0-1.22,2.55-4.25,4.08-6.06.88-1,1.7-2,2.28-2.84a5.24,5.24,0,0,0,1-3.19l-.27-9.06a5.31,5.31,0,0,0-4.36-5L40.25,54.53A4.38,4.38,0,0,0,36.19,56l-1,1.13a1.73,1.73,0,0,1-2,.46l-9-3.79a.29.29,0,0,1-.18-.22.28.28,0,0,1,.07-.27L39.56,36.39a5.69,5.69,0,0,0,1-6.24,2.62,2.62,0,0,1-.17-1.68L41.16,25A4.5,4.5,0,0,0,38.7,20c-4.33-2-4.47-2-5.12-1.74l-23,8.13A48.88,48.88,0,0,1,35.91,5.91a49.64,49.64,0,0,1,5-1.47A23.55,23.55,0,0,0,53,8.12a17,17,0,0,0,10.6-3.67,48.78,48.78,0,0,1,8.58,2.93l-1.93,3.76a4.06,4.06,0,0,1-1.85,1.79l-6,2.86a3.78,3.78,0,0,0-2.13,3.71l.26,3.24a3.78,3.78,0,0,0,3.76,3.47,4,4,0,0,0,.91-.11l6.63-1.66a3.62,3.62,0,0,1,1.43-.06l2.8.41a12.86,12.86,0,0,0,6.09-.58l8.26-2.92a47.21,47.21,0,0,1,3.23,4.42L79.88,30.57a5.9,5.9,0,0,1-3.17.22,16.8,16.8,0,0,1-2.36-.73c-1.78-.65-3.81-1.39-6.13-.57A21.42,21.42,0,0,0,63.68,32a7.85,7.85,0,0,0-3.35,6.87L60.62,44a6.46,6.46,0,0,0,3.06,5.12l3.51,2.17a8.15,8.15,0,0,0,7.24.63l2.61-1a4.31,4.31,0,0,1,5.07,1.48l3.6,5a3.4,3.4,0,0,1,.61,1.51l.47,3.28a7.64,7.64,0,0,0,3.94,5.63l6.79,3.65A49.07,49.07,0,0,1,68.64,98.64Zm30-30.1L92.2,65.07a4.54,4.54,0,0,1-2.34-3.33l-.46-3.28a6.59,6.59,0,0,0-1.17-2.9l-3.61-5A7.4,7.4,0,0,0,75.9,48l-2.62,1a5,5,0,0,1-4.46-.39l-3.51-2.16a3.39,3.39,0,0,1-1.59-2.66l-.29-5.13a4.71,4.71,0,0,1,2-4.14,17.9,17.9,0,0,1,3.81-2.17c1.2-.42,2.31-.07,4,.56a19.18,19.18,0,0,0,2.8.86,9.19,9.19,0,0,0,4.82-.34l14.36-5.07a50.13,50.13,0,0,1,3.37,7.48A49,49,0,0,1,98.64,68.54Z"/></g></g></svg>