<svg xmlns="http://www.w3.org/2000/svg" viewBox="0 0 106.85 106.84"><defs><style>.cls-1{fill:#1d1d1b;}</style></defs><title>Asset 1</title><g id="Layer_2" data-name="Layer 2"><g id="Layer_1-2" data-name="Layer 1"><path class="cls-1" d="M100.44,6.41a21.93,21.93,0,0,0-31,0,21.61,21.61,0,0,0-5.68,10L4.32,54.65a3.09,3.09,0,0,0-3.44.56A3,3,0,0,0,3,60.35a3,3,0,0,0,3-3s0-.06,0-.09L63.11,20.49A21.82,21.82,0,0,0,68.4,36.24L16,88.65a3,3,0,1,0,2.3,2.91,3.57,3.57,0,0,0-.1-.72l52.4-52.4a21.86,21.86,0,0,0,14.34,5.37c.47,0,1,0,1.42-.07L49.58,100.85a3.09,3.09,0,0,0-2.21.85A3,3,0,0,0,51.64,106h0a3,3,0,0,0,.56-3.45L90.47,43.08a21.87,21.87,0,0,0,10-36.67ZM98.24,35.2a18.8,18.8,0,1,1,0-26.6A18.83,18.83,0,0,1,98.24,35.2Z"/><path class="cls-1" d="M93.2,9.44A15.05,15.05,0,0,0,77.58,8.9a1.55,1.55,0,1,0,1.53,2.7A11.91,11.91,0,0,1,91.48,12a1.5,1.5,0,0,0,.86.26,1.56,1.56,0,0,0,.86-2.85Z"/></g></g></svg>