<svg xmlns="http://www.w3.org/2000/svg" version="1.1" viewBox="0 0 85.8 129.72">
 <title>Asset 18</title>
 <style>.cls-1{fill:#cecece;}</style>
 <g style="fill:#e6e6e6" data-name="Layer 2">
  <g style="fill:#e6e6e6" data-name="Layer 1">
   <path style="fill:#e6e6e6" d="m42.46 19a5.58 5.58 0 1 0 -3.66 -1.35 5.59 5.59 0 0 0 3.66 1.35zm0-8a2.47 2.47 0 1 1 -1.63 4.32 2.43 2.43 0 0 1 -0.83 -1.91 2.48 2.48 0 0 1 2.46 -2.41z"/>
   <path style="fill:#e6e6e6" d="m58.16 37.23a12.9 12.9 0 0 0 3.73 -4.75s0 0 0 0c13.36-1.93 23.89-6 23.89-11.87 0.02-8.17-18.78-11.31-26.24-12.24a20.73 20.73 0 0 0 -33.28 0c-7 0.86-26.26 4-26.26 12.2 0 5.92 10.55 10 23.93 11.87a13 13 0 0 0 3.35 4.42l-26.58 77.39a6.44 6.44 0 0 0 1.64 6.88c5.65 5.14 22 8.59 40.56 8.59s34.89-3.45 40.54-8.58a6.44 6.44 0 0 0 1.64 -6.92zm-15.26-34.12a17.55 17.55 0 0 1 17.61 17.46c-0.09 1.15-6.19 3.84-17.61 3.84s-17.52-2.69-17.61-3.84a17.55 17.55 0 0 1 17.61 -17.46zm-39.79 17.46c0-3 7.23-6.79 21.09-8.79a20.26 20.26 0 0 0 -2 8.79c0 4.77 10.74 6.94 20.72 6.94s20.71-2.17 20.71-6.94a20.29 20.29 0 0 0 -2 -8.79c13.72 2 21.09 5.89 21.09 8.79 0 4.21-15.14 10.07-39.79 10.07s-39.82-5.86-39.82-10.07zm39.79 13.18a139.37 139.37 0 0 0 15.1 -0.82c-2.89 3.94-8 4.79-15.11 4.79s-12.19-0.86-15.1-4.79a138.58 138.58 0 0 0 15.11 0.82zm38.46 85.09c-5 4.58-20.86 7.77-38.46 7.77s-33.43-3.2-38.47-7.78a3.37 3.37 0 0 1 -0.79 -3.57l26.36-76.65c3.71 1.84 8.31 2.22 13 2.22 4.25 0 8.77-0.23 12.52-2l26.71 76.38a3.4 3.4 0 0 1 -0.87 3.63z"/>
   <path style="fill:#e6e6e6" d="m42.46 60.11a1.56 1.56 0 0 0 1.54 -1.55v-9.56a1.56 1.56 0 0 0 -3.11 0v9.58a1.56 1.56 0 0 0 1.57 1.53z"/>
   <path style="fill:#e6e6e6" d="m42.46 86.42a1.55 1.55 0 0 0 -1.55 1.58v9.85a1.56 1.56 0 1 0 3.11 0v-9.85a1.55 1.55 0 0 0 -1.56 -1.58z"/>
   <path style="fill:#e6e6e6" d="m42.46 108.5a1.55 1.55 0 0 0 -1.55 1.55v4.95a1.56 1.56 0 0 0 3.09 0v-4.92a1.55 1.55 0 0 0 -1.54 -1.58z"/>
   <path style="fill:#e6e6e6" d="m52.5 71.91a2.88 2.88 0 0 0 -3 -0.91l-5 1.44-2-1.06a4.05 4.05 0 0 0 2.63 -2.58l0.87-2.28a1.55 1.55 0 0 0 -3 -1l-0.74 2.26a1 1 0 0 1 -0.61 0.6l-2.92 0.92-0.73-0.37a3.73 3.73 0 0 0 -1.94 -3.55 3.75 3.75 0 0 0 -5.37 4.36 3.78 3.78 0 0 0 3.58 2.68 4 4 0 0 0 1.08 -0.16 3.63 3.63 0 0 0 1.17 -0.61l0.37 0.2c0 0.69 0 1.69 0.08 3.23a4 4 0 0 0 1 2.45l2.48 2.79a1.53 1.53 0 0 0 1.16 0.52 1.49 1.49 0 0 0 1 -0.39 1.55 1.55 0 0 0 0.13 -2.19l-2.48-2.79a1 1 0 0 1 -0.24 -0.57c0-0.52-0.05-1-0.06-1.36l3.41 1.85 3.4 3a0.63 0.63 0 0 1 0.21 0.51l-0.32 3.86a1.55 1.55 0 0 0 1.42 1.68h0.13a1.54 1.54 0 0 0 1.61 -1.44l0.32-3.86a3.72 3.72 0 0 0 -1.25 -3.1l-1.4-1.24 2.73-0.8 3.49 4.14a1.55 1.55 0 0 0 1.19 0.56 1.53 1.53 0 0 0 1 -0.37 1.55 1.55 0 0 0 0.19 -2.19zm-18-2.63a0.61 0.61 0 0 1 -0.48 0 0.66 0.66 0 0 1 -0.31 -0.37 0.63 0.63 0 0 1 0.59 -0.91 0.64 0.64 0 0 1 0.3 0.08 0.63 0.63 0 0 1 0.26 0.86 0.61 0.61 0 0 1 -0.38 0.34z"/>
  </g>
 </g>
</svg>
