<svg xmlns="http://www.w3.org/2000/svg" viewBox="0 0 120.3 110.12"><defs><style>.cls-1{fill:#1d1d1b;}</style></defs><title>Asset 9</title><g id="Layer_2" data-name="Layer 2"><g id="Layer_1-2" data-name="Layer 1"><path class="cls-1" d="M118.75,7a1.56,1.56,0,0,0,0-3.11h-2.3V1.55a1.55,1.55,0,0,0-3.1,0V3.84h-2.29a1.56,1.56,0,0,0,0,3.11h2.29V9.24a1.55,1.55,0,0,0,3.1,0V7Z"/><path class="cls-1" d="M8.09,85a1.55,1.55,0,0,0-2.2,0L4.27,86.58,2.65,85a1.55,1.55,0,0,0-2.2,2.19l1.63,1.63L.45,90.4a1.56,1.56,0,0,0,0,2.19,1.6,1.6,0,0,0,1.1.46,1.56,1.56,0,0,0,1.1-.46L4.27,91l1.62,1.62a1.56,1.56,0,0,0,1.1.46,1.58,1.58,0,0,0,1.1-.46,1.56,1.56,0,0,0,0-2.19L6.47,88.78l1.62-1.63A1.56,1.56,0,0,0,8.09,85Z"/><circle class="cls-1" cx="118.29" cy="102.41" r="1.58"/><circle class="cls-1" cx="9.02" cy="5.4" r="1.58"/><path class="cls-1" d="M89.91,30.78a7.47,7.47,0,0,0-12.56-7.94A37.06,37.06,0,0,0,27.25,57a6.11,6.11,0,0,0,1.8,11.92A37,37,0,0,0,83,89.42,9,9,0,0,0,95.85,76.83a37,37,0,0,0-5.94-46Zm-6.73-7.67a4.4,4.4,0,1,1-4.4,4.4A4.4,4.4,0,0,1,83.18,23.11ZM26.11,62.76a3,3,0,1,1,3,3A3,3,0,0,1,26.11,62.76Zm63,25.95a5.9,5.9,0,1,1,5.9-5.9A5.91,5.91,0,0,1,89.13,88.71Zm4.28-13.83A9,9,0,0,0,81.14,86.94,33.89,33.89,0,0,1,32.06,68.11a6.1,6.1,0,0,0-1.7-11.35,33.86,33.86,0,0,1,45.57-31.1A7.41,7.41,0,0,0,83.18,35,7.4,7.4,0,0,0,88,33.23a33.85,33.85,0,0,1,5.43,41.65Z"/><path class="cls-1" d="M64.28,5.33A51.79,51.79,0,0,0,43.44,9.68,9,9,0,0,0,28.5,19.55a52.13,52.13,0,0,0-1.86,74.06A10.64,10.64,0,0,0,25,99.35a10.75,10.75,0,0,0,19.42,6.38A52.17,52.17,0,1,0,64.28,5.33Zm-27.89,4a5.89,5.89,0,1,1-5.89,5.88A5.89,5.89,0,0,1,36.39,9.36ZM35.73,107a7.66,7.66,0,1,1,7.65-7.66A7.66,7.66,0,0,1,35.73,107Zm28.55-.44A48.83,48.83,0,0,1,45.85,103a10.9,10.9,0,0,0,.64-3.63,10.75,10.75,0,0,0-17.82-8.11A49,49,0,0,1,30.46,22a9,9,0,0,0,14.92-6.74,8.82,8.82,0,0,0-.46-2.82,49.07,49.07,0,1,1,19.36,94.15Z"/><path class="cls-1" d="M64.28,42.77A14.74,14.74,0,1,0,79,57.51,14.75,14.75,0,0,0,64.28,42.77Zm0,26.37A11.64,11.64,0,1,1,75.91,57.51,11.65,11.65,0,0,1,64.28,69.14Z"/><path class="cls-1" d="M64.28,40.3a1.55,1.55,0,0,0,1.55-1.55V35.62a1.55,1.55,0,1,0-3.1,0v3.13A1.55,1.55,0,0,0,64.28,40.3Z"/><path class="cls-1" d="M64.28,74.71a1.55,1.55,0,0,0-1.55,1.56v3.12a1.55,1.55,0,1,0,3.1,0V76.27A1.55,1.55,0,0,0,64.28,74.71Z"/><path class="cls-1" d="M86.16,56H83a1.56,1.56,0,0,0,0,3.11h3.12a1.56,1.56,0,1,0,0-3.11Z"/><path class="cls-1" d="M45.52,56H42.4a1.56,1.56,0,1,0,0,3.11h3.12a1.56,1.56,0,0,0,0-3.11Z"/><path class="cls-1" d="M78.64,69.67a1.55,1.55,0,0,0-2.19,2.2l2.21,2.21a1.55,1.55,0,0,0,2.19-2.2Z"/><path class="cls-1" d="M49.92,45.34a1.55,1.55,0,1,0,2.19-2.2L49.9,40.93a1.55,1.55,0,0,0-2.19,2.2Z"/><path class="cls-1" d="M49.92,69.67l-2.21,2.21a1.55,1.55,0,0,0,2.19,2.2l2.21-2.21a1.55,1.55,0,0,0-2.19-2.2Z"/><path class="cls-1" d="M78.66,40.93l-2.21,2.21a1.55,1.55,0,0,0,2.19,2.2l2.21-2.21a1.55,1.55,0,1,0-2.19-2.2Z"/></g></g></svg>