<svg xmlns="http://www.w3.org/2000/svg" viewBox="0 0 148.28 135.69"><defs><style>.cls-1{fill:#1d1d1b;}</style></defs><title>Asset 1</title><g id="Layer_2" data-name="Layer 2"><g id="Layer_1-2" data-name="Layer 1"><path class="cls-1" d="M51.39,31.28A11.53,11.53,0,0,0,63,19.82c0-5.66-4.21-8.91-11.57-8.91s-11.57,3.25-11.57,8.91A11.53,11.53,0,0,0,51.39,31.28Zm0-17.26c5.62,0,8.47,2,8.47,5.8a8.47,8.47,0,0,1-16.93,0C42.93,16,45.78,14,51.39,14Z"/><path class="cls-1" d="M63,57.14v-9.3a4.06,4.06,0,0,0-4.05-4.05h-15a4.06,4.06,0,0,0-4,4.05v9.3a4.06,4.06,0,0,0,4,4h15A4.06,4.06,0,0,0,63,57.14Zm-3.11,0a.94.94,0,0,1-.94.93h-15a.94.94,0,0,1-.94-.93v-9.3a.94.94,0,0,1,.94-.94h15a.94.94,0,0,1,.94.94Z"/><path class="cls-1" d="M70.52,121.64l-.38,0V88.25a6.78,6.78,0,0,0,3.74,1.13h.71a6.85,6.85,0,0,0,6.85-6.85V52.05a25.67,25.67,0,0,0-5.65-16v-17a6,6,0,0,0-6-5.92H67.4a17.38,17.38,0,0,0-32,0H33.9V6.75a1.56,1.56,0,0,0-3.11,0v6.74a5.91,5.91,0,0,0-4.1,5.59V36.23a1.46,1.46,0,0,0,0,.2,25.61,25.61,0,0,0-5.39,15.62V82.53a6.85,6.85,0,0,0,6.84,6.85h.72a6.78,6.78,0,0,0,3.74-1.13v33.43c-.22,0-.44,0-.66,0a9.86,9.86,0,0,0-9.89,9.81,4.26,4.26,0,0,0,4.27,4.24H48.44A1.56,1.56,0,0,0,50,134.14v-34a1.26,1.26,0,0,1,2.52,0v34a1.55,1.55,0,0,0,1.55,1.55H76.15a4.26,4.26,0,0,0,4.27-4.24A9.87,9.87,0,0,0,70.52,121.64Zm7.81-39.11a3.74,3.74,0,0,1-3.74,3.74h-.71a3.74,3.74,0,0,1-3.74-3.74v-.88h8.19Zm-.54-35.27H73.57V44.51H77A21.19,21.19,0,0,1,77.79,47.26Zm-8-31a2.84,2.84,0,0,1,2.86,2.81V32.82a25.79,25.79,0,0,0-6.51-4.21,16.88,16.88,0,0,0,2.2-12.34ZM51.39,5.65A14.15,14.15,0,0,1,65.61,19.7a14.22,14.22,0,0,1-28.43,0A14.14,14.14,0,0,1,51.39,5.65ZM32.66,16.27h1.76a16.88,16.88,0,0,0,2.2,12.34,25.79,25.79,0,0,0-6.82,4.47v-14A2.84,2.84,0,0,1,32.66,16.27Zm-3.75,70h-.72a3.74,3.74,0,0,1-3.74-3.74v-.88h8.2v.88A3.74,3.74,0,0,1,28.91,86.27Zm47.24,46.31H55.62v-7.83h3a1.56,1.56,0,0,0,0-3.11h-3V100.18a4.37,4.37,0,0,0-8.73,0v21.46h-3a1.56,1.56,0,1,0,0,3.11h3v7.83H26.37a1.16,1.16,0,0,1-1.17-1.13,6.75,6.75,0,0,1,6.79-6.7,9.47,9.47,0,0,1,6.85,2.88,1.58,1.58,0,0,0,1.12.47,1.55,1.55,0,0,0,1.11-2.64,12.71,12.71,0,0,0-5.32-3.26V54.43a1.55,1.55,0,1,0-3.1,0V78.55h-8.2V52.05a22.76,22.76,0,0,1,14.1-20.89,17.34,17.34,0,0,0,25.69,0A22.87,22.87,0,0,1,75.6,41.4H72A1.55,1.55,0,0,0,70.47,43v5.85A1.54,1.54,0,0,0,72,50.36h6.25c0,.56.06,1.12.06,1.69v26.5H70.14V54.26a1.56,1.56,0,0,0-3.11,0v67.88a12.5,12.5,0,0,0-5.58,3.32,1.55,1.55,0,1,0,2.22,2.17,9.49,9.49,0,0,1,6.85-2.88,6.75,6.75,0,0,1,6.79,6.7A1.15,1.15,0,0,1,76.15,132.58Z"/><path class="cls-1" d="M101.9,68.93a65.94,65.94,0,0,0,11.92-1.45c6.7-1.23,13-2.4,19.35-.07a1.55,1.55,0,0,0,1.43-.18,1.59,1.59,0,0,0,.66-1.28V41.22a1.55,1.55,0,0,0-1-1.46c-7.12-2.61-14.16-1.32-21-.07s-13,2.4-19.34.07a1.4,1.4,0,0,0-.49-.08h-.11a1.62,1.62,0,0,0-.53.11l-.06,0a1.41,1.41,0,0,0-.24.13,2,2,0,0,0-.16.14l-.07.06a1.8,1.8,0,0,0-.29.43l0,.1a1.41,1.41,0,0,0-.11.54v92.92a1.55,1.55,0,0,0,3.1,0V68.06A27,27,0,0,0,101.9,68.93Zm11.92-26.18c6.34-1.17,12.35-2.27,18.34-.42v21.5c-6.41-1.7-12.75-.54-18.9.59-6.34,1.17-12.34,2.28-18.33.42V43.34C101.34,45.05,107.68,43.88,113.82,42.75Z"/><path class="cls-1" d="M147.34,116.72a200.87,200.87,0,0,0-48.32-14,1.55,1.55,0,1,0-.48,3.07,197.51,197.51,0,0,1,47.57,13.83,1.5,1.5,0,0,0,.62.13,1.55,1.55,0,0,0,.61-3Z"/><path class="cls-1" d="M86.69,101.19c-4.46-.38-9-.59-13.44-.63h0a1.55,1.55,0,0,0,0,3.1c4.38,0,8.82.25,13.21.63h.13a1.55,1.55,0,0,0,.13-3.1Z"/><path class="cls-1" d="M30.76,107.12a1.53,1.53,0,0,0-1.89-1.1C11.23,110.67,1.18,116.56.76,116.81a1.55,1.55,0,0,0,.79,2.89,1.5,1.5,0,0,0,.79-.22c.1-.06,10.14-5.92,27.32-10.46A1.55,1.55,0,0,0,30.76,107.12Z"/><path class="cls-1" d="M88.69,5.3a1.54,1.54,0,0,0-2.19,0l-1,1-1-1a1.55,1.55,0,1,0-2.2,2.19l1,1-1,1a1.55,1.55,0,0,0,1.1,2.65,1.55,1.55,0,0,0,1.1-.45l1-1,1,1a1.55,1.55,0,0,0,2.19-2.2l-1-1,1-1A1.54,1.54,0,0,0,88.69,5.3Z"/><path class="cls-1" d="M6.6,29.29a1.57,1.57,0,0,0,2.2,0l1.62-1.62L12,29.29a1.55,1.55,0,0,0,2.19-2.2l-1.62-1.62,1.62-1.62A1.55,1.55,0,1,0,12,21.65l-1.62,1.62L8.8,21.65a1.56,1.56,0,1,0-2.2,2.2l1.62,1.62L6.6,27.09A1.57,1.57,0,0,0,6.6,29.29Z"/><path class="cls-1" d="M132.09,77.43a1.55,1.55,0,0,0-2.2,0,1.57,1.57,0,0,0,0,2.2l1.62,1.62-1.62,1.62a1.56,1.56,0,0,0,0,2.19,1.55,1.55,0,0,0,2.2,0l1.62-1.62,1.62,1.62a1.53,1.53,0,0,0,2.19,0,1.54,1.54,0,0,0,0-2.19l-1.62-1.62,1.62-1.62a1.55,1.55,0,0,0-2.19-2.2l-1.62,1.62Z"/><path class="cls-1" d="M6,98.5a1.56,1.56,0,0,0,2.19,0l1.62-1.62,1.62,1.62a1.57,1.57,0,0,0,1.1.45,1.55,1.55,0,0,0,1.1-2.65L12,94.68l1.62-1.62a1.55,1.55,0,0,0,0-2.2,1.57,1.57,0,0,0-2.2,0L9.83,92.48,8.21,90.86A1.55,1.55,0,0,0,6,93.06l1.62,1.62L6,96.3A1.55,1.55,0,0,0,6,98.5Z"/><path class="cls-1" d="M102.34,20.1c.48,1.3,1.9,2.81,5.7,3.1a14,14,0,0,0,24.68-9.13c2.71-2.7,2.8-4.77,2.31-6.08s-1.88-2.8-5.71-3.09A14,14,0,0,0,104.66,14C101.89,16.75,101.87,18.83,102.34,20.1Zm20.14,4.2a10.85,10.85,0,0,1-8.37-.31,11.27,11.27,0,0,1-1.65-1,41,41,0,0,0,8.73-2.21,40.47,40.47,0,0,0,8.07-4,11.53,11.53,0,0,1-.63,1.79A10.88,10.88,0,0,1,122.48,24.3Zm9.64-15.23a1.16,1.16,0,0,1-.07.71c-.07-.21-.12-.41-.19-.61s-.17-.39-.26-.59A1.07,1.07,0,0,1,132.12,9.07ZM114.89,3.78a10.93,10.93,0,0,1,14,6.47,10.63,10.63,0,0,1,.6,2.52,33.29,33.29,0,0,1-9.43,5.13,33.24,33.24,0,0,1-10.5,2.24,10.93,10.93,0,0,1,5.28-16.36Zm-9.38,15.14c.08.2.17.39.25.58a1.08,1.08,0,0,1-.51-.48,1.16,1.16,0,0,1,.08-.68C105.39,18.54,105.44,18.73,105.51,18.92Z"/></g></g></svg>