<svg xmlns="http://www.w3.org/2000/svg" viewBox="0 0 124.21 119.55"><defs><style>.cls-1{fill:#1d1d1b;}</style></defs><title>Asset 2</title><g id="Layer_2" data-name="Layer 2"><g id="Layer_1-2" data-name="Layer 1"><path class="cls-1" d="M82.83,37c-5.53.83-22.54,1.07-22.67,1.08S43,37.81,37.44,37A16,16,0,0,0,24.7,40.45c-4.72,4.07-7.11,11.16-7.11,21.1,0,22.37,2.55,29.53,19.48,33.86,6.25,1.6,14.66,2.4,23.07,2.4S77,97,83.2,95.41c16.93-4.33,19.49-11.49,19.49-33.86,0-9.94-2.4-17-7.11-21.1A16.08,16.08,0,0,0,82.83,37ZM20.69,61.55c0-9,2-15.3,6-18.75a12.39,12.39,0,0,1,8.19-2.89,15,15,0,0,1,2.06.14c5.74.86,22.43,1.1,23.18,1.11.34,0,4.46-.06,9.26-.22a73.27,73.27,0,0,0-11,9.61A81.16,81.16,0,0,0,37.74,92.38C23.41,88.69,20.69,83.76,20.69,61.55ZM98.4,78.32c-1.68,1.32-8.91,6.18-24.28,6.44a5.18,5.18,0,1,0,0,3.11c11.47-.2,18.76-2.83,22.8-5-2.39,5.19-6.76,7.52-14.51,9.5-11,2.8-29.52,3-41.66.65,6.35-35.9,32-50.82,34.89-52.37,3.06-.16,5.86-.36,7.63-.63A13,13,0,0,1,93.55,42.8c4,3.45,6,9.76,6,18.75C99.58,68.79,99.29,74.19,98.4,78.32Zm-27.11,8a2.09,2.09,0,1,1-2.09-2.08A2.1,2.1,0,0,1,71.29,86.34Z"/><path class="cls-1" d="M123.56,29.2,112.7,9.88a5.15,5.15,0,0,0-7-2l-10,5.86A52.72,52.72,0,0,0,7.49,49.69H5.26A4.65,4.65,0,0,0,.8,53.07C.26,55,0,58.21,0,62.89a35.74,35.74,0,0,0,.8,9.19,4.65,4.65,0,0,0,4.46,3.38H7.4v33.09c0,8.7,34.5,11,52.74,11s52.74-2.3,52.74-11V75.46H115a4.64,4.64,0,0,0,4.45-3.38c.57-2,.8-4.76.8-9.19,0-4.68-.26-7.89-.8-9.82A4.64,4.64,0,0,0,115,49.69h-2.24a53.31,53.31,0,0,0-1-7.75l9.82-5.74a5.15,5.15,0,0,0,2-7ZM5.26,72.36a1.52,1.52,0,0,1-1.47-1.12,35.76,35.76,0,0,1-.68-8.35,39.53,39.53,0,0,1,.68-9A1.51,1.51,0,0,1,5.26,52.8H7.4V72.36Zm54.88,44.09c-32.12,0-49.64-5.22-49.64-7.9v-7.37c8.87,5.34,34.7,6.88,49.64,6.88s40.76-1.54,49.63-6.88v7.37C109.77,111.23,92.25,116.45,60.14,116.45Zm0-11.49C28,105,10.5,99.74,10.5,97.06V52.7a49.64,49.64,0,0,1,99.27,0V97.06C109.77,99.74,92.25,105,60.14,105Zm56.34-51a38.78,38.78,0,0,1,.69,9,35.73,35.73,0,0,1-.69,8.35A1.5,1.5,0,0,1,115,72.36h-2.14V52.8H115A1.49,1.49,0,0,1,116.48,53.91ZM121,32.27a2,2,0,0,1-1,1.23l-9,5.29A52.66,52.66,0,0,0,98,16l9.27-5.41a2,2,0,0,1,2.77.78l10.85,19.33A2,2,0,0,1,121,32.27Z"/><path class="cls-1" d="M109.6,23a4.06,4.06,0,1,0-5.53-1.55A4.06,4.06,0,0,0,109.6,23Zm-1.07-3.28a1,1,0,0,1-1.75.21,1,1,0,0,1-.09-.73,1,1,0,0,1,.45-.57,1,1,0,0,1,.47-.12.92.92,0,0,1,.83.49A.91.91,0,0,1,108.53,19.72Z"/><path class="cls-1" d="M110.73,25a4.06,4.06,0,1,0,4,7.08h0a4.06,4.06,0,0,0,1.55-5.53A4.06,4.06,0,0,0,110.73,25Zm2.45,4.37a1,1,0,1,1-.93-1.66.93.93,0,0,1,.46-.12.95.95,0,0,1,.47,1.78Z"/></g></g></svg>