<?xml version="1.0" encoding="utf-8"?>
<!-- Generator: Adobe Illustrator 22.1.0, SVG Export Plug-In . SVG Version: 6.00 Build 0)  -->
<svg version="1.1" id="Layer_1" xmlns="http://www.w3.org/2000/svg" xmlns:xlink="http://www.w3.org/1999/xlink" x="0px" y="0px"
	 viewBox="0 0 1654.2 5034.7" style="enable-background:new 0 0 1654.2 5034.7;" xml:space="preserve">
<style type="text/css">
	.st0{opacity:0.98;fill:#FFFFFF;enable-background:new    ;}
	.st1{opacity:0.51;fill:#FFFFFF;enable-background:new    ;}
	.st2{opacity:0.89;fill:#FFFFFF;enable-background:new    ;}
	.st3{opacity:0.53;fill:#FFFFFF;enable-background:new    ;}
	.st4{opacity:0.86;fill:#FFFFFF;enable-background:new    ;}
	.st5{opacity:0.61;fill:#FFFFFF;enable-background:new    ;}
	.st6{opacity:0.67;fill:#FFFFFF;enable-background:new    ;}
	.st7{opacity:0.65;fill:#FFFFFF;enable-background:new    ;}
	.st8{opacity:0.7;fill:#FFFFFF;enable-background:new    ;}
	.st9{opacity:0.77;fill:#FFFFFF;enable-background:new    ;}
	.st10{opacity:0.97;fill:#FFFFFF;enable-background:new    ;}
	.st11{opacity:0.57;fill:#FFFFFF;enable-background:new    ;}
	.st12{opacity:0.76;fill:#FFFFFF;enable-background:new    ;}
	.st13{opacity:0.94;fill:#FFFFFF;enable-background:new    ;}
	.st14{opacity:0.9;fill:#FFFFFF;enable-background:new    ;}
	.st15{opacity:0.63;fill:#FFFFFF;enable-background:new    ;}
	.st16{opacity:0.52;fill:#FFFFFF;enable-background:new    ;}
	.st17{opacity:0.59;fill:#FFFFFF;enable-background:new    ;}
	.st18{opacity:0.66;fill:#FFFFFF;enable-background:new    ;}
	.st19{opacity:0.62;fill:#FFFFFF;enable-background:new    ;}
	.st20{opacity:0.99;fill:#FFFFFF;enable-background:new    ;}
	.st21{opacity:0.73;fill:#FFFFFF;enable-background:new    ;}
	.st22{opacity:0.8;fill:#FFFFFF;enable-background:new    ;}
	.st23{opacity:0.91;fill:#FFFFFF;enable-background:new    ;}
	.st24{opacity:0.58;fill:#FFFFFF;enable-background:new    ;}
	.st25{opacity:0.83;fill:#FFFFFF;enable-background:new    ;}
	.st26{opacity:0.95;fill:#FFFFFF;enable-background:new    ;}
	.st27{opacity:0.92;fill:#FFFFFF;enable-background:new    ;}
	.st28{opacity:0.82;fill:#FFFFFF;enable-background:new    ;}
	.st29{opacity:0.68;fill:#FFFFFF;enable-background:new    ;}
	.st30{opacity:0.69;fill:#FFFFFF;enable-background:new    ;}
	.st31{opacity:0.72;fill:#FFFFFF;enable-background:new    ;}
	.st32{opacity:0.56;fill:#FFFFFF;enable-background:new    ;}
	.st33{opacity:0.74;fill:#FFFFFF;enable-background:new    ;}
	.st34{opacity:0.79;fill:#FFFFFF;enable-background:new    ;}
	.st35{fill:#FFFFFF;}
	.st36{opacity:0.64;fill:#FFFFFF;enable-background:new    ;}
	.st37{opacity:0.75;fill:#FFFFFF;enable-background:new    ;}
	.st38{opacity:0.88;fill:#FFFFFF;enable-background:new    ;}
	.st39{opacity:0.54;fill:#FFFFFF;enable-background:new    ;}
	.st40{opacity:0.78;fill:#FFFFFF;enable-background:new    ;}
	.st41{opacity:0.93;fill:#FFFFFF;enable-background:new    ;}
	.st42{opacity:0.87;fill:#FFFFFF;enable-background:new    ;}
	.st43{opacity:0.71;fill:#FFFFFF;enable-background:new    ;}
	.st44{opacity:0.81;fill:#FFFFFF;enable-background:new    ;}
	.st45{opacity:0.85;fill:#FFFFFF;enable-background:new    ;}
	.st46{opacity:0.55;fill:#FFFFFF;enable-background:new    ;}
	.st47{opacity:0.84;fill:#FFFFFF;enable-background:new    ;}
	.st48{opacity:0.6;fill:#FFFFFF;enable-background:new    ;}
</style>
<title>bigstars</title>
<g>
	<g>
		<path class="st0" d="M656.7,3021.9c-0.7-0.5-0.8-1.5-0.3-2.2c0.5-0.7,1.5-0.8,2.1-0.3c0,0,0,0,0,0c0.7,0.5,0.8,1.5,0.3,2.2
			C658.3,3022.3,657.4,3022.4,656.7,3021.9C656.7,3021.9,656.7,3021.9,656.7,3021.9z"/>
		<path class="st1" d="M414.3,2258c-0.5-0.4-0.7-1.2-0.2-1.8c0.4-0.5,1.2-0.6,1.7-0.2c0,0,0,0,0,0c0.5,0.4,0.6,1.2,0.2,1.8
			C415.6,2258.4,414.8,2258.4,414.3,2258C414.3,2258,414.3,2258,414.3,2258z"/>
		<path class="st2" d="M222.9,4670.8c-0.6-0.5-0.8-1.4-0.3-2.1c0.5-0.6,1.4-0.7,2-0.3c0,0,0,0,0,0c0.6,0.5,0.8,1.4,0.3,2
			C224.4,4671.2,223.5,4671.3,222.9,4670.8C222.9,4670.8,222.9,4670.8,222.9,4670.8z"/>
		<path class="st3" d="M800.5,4322.7c-0.7-0.5-0.8-1.5-0.3-2.2c0.5-0.7,1.5-0.8,2.2-0.3c0,0,0,0,0,0c0.7,0.5,0.8,1.5,0.3,2.2
			C802.2,4323.2,801.2,4323.3,800.5,4322.7C800.5,4322.8,800.5,4322.8,800.5,4322.7z"/>
		<path class="st4" d="M388.5,1534.6c-0.4-0.3-0.5-0.8-0.2-1.2c0.3-0.4,0.8-0.4,1.2-0.1c0,0,0,0,0,0c0.4,0.3,0.5,0.8,0.2,1.2
			C389.5,1534.8,388.9,1534.9,388.5,1534.6C388.5,1534.6,388.5,1534.6,388.5,1534.6z"/>
		<path class="st5" d="M1002.8,2746.7c-0.5-0.4-0.6-1.1-0.2-1.6c0.4-0.5,1.1-0.6,1.6-0.2c0,0,0,0,0,0c0.5,0.4,0.6,1.1,0.2,1.6
			C1004,2747,1003.3,2747.1,1002.8,2746.7C1002.8,2746.7,1002.8,2746.7,1002.8,2746.7z"/>
		<path class="st6" d="M1065.5,4843.6c-0.5-0.4-0.6-1.2-0.2-1.7c0.4-0.5,1.2-0.6,1.7-0.2c0,0,0,0,0,0c0.5,0.4,0.6,1.2,0.2,1.7
			C1066.8,4843.9,1066,4844,1065.5,4843.6C1065.5,4843.6,1065.5,4843.6,1065.5,4843.6z"/>
		<path class="st7" d="M720.1,2068.2c-0.5-0.4-0.6-1.1-0.2-1.7c0.4-0.5,1.1-0.6,1.6-0.2c0,0,0,0,0,0c0.5,0.4,0.6,1.1,0.2,1.6
			C721.3,2068.5,720.6,2068.6,720.1,2068.2C720.1,2068.2,720.1,2068.2,720.1,2068.2z"/>
		<path class="st8" d="M92.7,3839.5c-0.5-0.4-0.6-1.1-0.2-1.6c0.4-0.5,1.1-0.6,1.5-0.2c0,0,0,0,0,0c0.5,0.4,0.6,1.1,0.2,1.6
			C93.9,3839.8,93.2,3839.8,92.7,3839.5C92.8,3839.5,92.8,3839.5,92.7,3839.5z"/>
		<path class="st9" d="M129.2,3336.3c-0.5-0.4-0.6-1.1-0.2-1.6c0.4-0.5,1.1-0.6,1.6-0.2c0,0,0,0,0,0c0.5,0.4,0.6,1.1,0.2,1.6
			C130.4,3336.7,129.7,3336.7,129.2,3336.3C129.2,3336.3,129.2,3336.3,129.2,3336.3z"/>
		<path class="st10" d="M1373,402c-0.5-0.4-0.6-1.1-0.2-1.6c0.4-0.5,1.1-0.6,1.6-0.2c0,0,0,0,0,0c0.5,0.4,0.6,1.1,0.2,1.6
			C1374.2,402.3,1373.5,402.4,1373,402C1373,402,1373,402,1373,402z"/>
		<path class="st11" d="M964.6,4737.4c-0.5-0.4-0.7-1.2-0.2-1.8c0.4-0.5,1.2-0.6,1.7-0.2c0,0,0,0,0,0c0.5,0.4,0.7,1.2,0.2,1.8
			C966,4737.8,965.2,4737.8,964.6,4737.4C964.7,4737.4,964.7,4737.4,964.6,4737.4z"/>
		<path class="st5" d="M1230.3,2148.4c-0.6-0.5-0.7-1.3-0.3-1.9c0.5-0.6,1.3-0.7,1.9-0.2c0,0,0,0,0,0c0.6,0.5,0.7,1.3,0.3,1.9
			C1231.8,2148.7,1230.9,2148.8,1230.3,2148.4C1230.3,2148.4,1230.3,2148.4,1230.3,2148.4z"/>
		<path class="st12" d="M668.1,252.2c-0.5-0.4-0.6-1.2-0.2-1.7c0.4-0.5,1.2-0.6,1.7-0.2c0,0,0,0,0,0c0.5,0.4,0.6,1.2,0.2,1.7
			C669.4,252.6,668.7,252.6,668.1,252.2C668.2,252.2,668.2,252.2,668.1,252.2z"/>
		<path class="st13" d="M215.9,4087.4c-0.3-0.3-0.8-0.2-1.1,0.1c0,0,0,0,0,0c-0.3,0.3-0.2,0.8,0.2,1.1c0.3,0.3,0.8,0.2,1.1-0.1
			c0,0,0,0,0,0C216.3,4088.1,216.2,4087.6,215.9,4087.4z"/>
		<path class="st14" d="M373,3780.6c-0.5-0.4-1.2-0.3-1.6,0.2c0,0,0,0,0,0c-0.4,0.5-0.3,1.2,0.2,1.6c0.5,0.4,1.2,0.3,1.6-0.2
			c0,0,0,0,0,0C373.6,3781.7,373.5,3781,373,3780.6z"/>
		<path class="st15" d="M1094.9,5012.2c-0.5-0.4-1.1-0.3-1.5,0.2c-0.4,0.5-0.3,1.1,0.2,1.5c0,0,0,0,0,0c0.4,0.4,1.1,0.3,1.4-0.1
			c0,0,0,0,0,0C1095.4,5013.2,1095.3,5012.5,1094.9,5012.2z"/>
		<path class="st10" d="M1426.4,4989.8c-0.6-0.5-1.5-0.4-2,0.2c0,0,0,0,0,0c-0.5,0.6-0.4,1.5,0.3,2.1c0.6,0.5,1.5,0.4,2-0.2
			c0,0,0,0,0,0C1427.2,4991.2,1427.1,4990.3,1426.4,4989.8z"/>
		<path class="st6" d="M1160.3,2987.3c-0.4-0.3-0.9-0.2-1.2,0.1c0,0,0,0,0,0c-0.3,0.4-0.2,0.9,0.2,1.2c0.4,0.3,0.9,0.3,1.2-0.1
			c0,0,0,0,0,0C1160.8,2988.1,1160.7,2987.6,1160.3,2987.3C1160.3,2987.3,1160.3,2987.3,1160.3,2987.3z"/>
		<path class="st16" d="M1001.1,2765.3c-0.7,0.6-0.9,1.6-0.3,2.3c0.1,0.1,0.2,0.2,0.3,0.3V2765.3z"/>
		<path class="st16" d="M992.7,3902.2c-0.3-0.3-0.8-0.2-1.1,0.1c0,0,0,0,0,0c-0.3,0.4-0.2,0.9,0.2,1.1c0.3,0.3,0.8,0.2,1.1-0.1
			c0,0,0,0,0,0C993.1,3903,993,3902.5,992.7,3902.2z"/>
		<path class="st17" d="M1569.6,4092.5c-0.4-0.3-1-0.3-1.3,0.1c0,0,0,0,0,0c-0.3,0.4-0.2,1,0.2,1.3c0.4,0.3,1,0.3,1.3-0.1
			c0,0,0,0,0,0C1570.1,4093.4,1570,4092.8,1569.6,4092.5z"/>
		<path class="st18" d="M991.2,3699c-0.4-0.3-1-0.3-1.4,0.1c0,0,0,0,0,0c-0.3,0.4-0.2,1.1,0.2,1.4c0.4,0.3,1,0.3,1.4-0.1
			c0,0,0,0,0,0C991.8,3700,991.7,3699.4,991.2,3699z"/>
		<path class="st19" d="M196.8,1316.2c-0.5-0.4-1.3-0.3-1.8,0.2c0,0,0,0,0,0c-0.4,0.6-0.3,1.4,0.2,1.8c0.5,0.4,1.3,0.3,1.8-0.2
			c0,0,0,0,0,0C197.4,1317.4,197.3,1316.6,196.8,1316.2z"/>
		<path class="st4" d="M379.9,1139.1c-0.5-0.4-1.2-0.3-1.6,0.1c0,0,0,0,0,0c-0.4,0.5-0.3,1.2,0.2,1.6c0.5,0.4,1.2,0.3,1.6-0.2
			c0,0,0,0,0,0C380.5,1140.2,380.4,1139.5,379.9,1139.1C379.9,1139.1,379.9,1139.1,379.9,1139.1z"/>
		<path class="st20" d="M1331.1,1776.8c-0.5-0.4-1.1-0.3-1.5,0.2c0,0,0,0,0,0c-0.3,0.5-0.3,1.1,0.2,1.5c0.5,0.4,1.1,0.3,1.5-0.2
			C1331.7,1777.8,1331.6,1777.1,1331.1,1776.8z"/>
		<path class="st6" d="M619.2,792.9c-0.5-0.4-1.1-0.3-1.5,0.2c0,0,0,0,0,0c-0.4,0.5-0.3,1.2,0.2,1.5c0.5,0.4,1.1,0.3,1.5-0.1
			c0,0,0,0,0,0C619.8,794,619.7,793.3,619.2,792.9L619.2,792.9z"/>
		<path class="st21" d="M465.2,1982c-0.5-0.4-1.2-0.3-1.6,0.2c0,0,0,0,0,0c-0.4,0.5-0.3,1.2,0.2,1.6c0.5,0.4,1.2,0.3,1.6-0.2
			c0,0,0,0,0,0C465.7,1983.1,465.7,1982.4,465.2,1982z"/>
		<path class="st2" d="M1422.4,805.2c-0.4-0.3-1.1-0.3-1.4,0.2c0,0,0,0,0,0c-0.3,0.4-0.2,1.1,0.2,1.4c0.4,0.4,1.1,0.3,1.4-0.1
			c0,0,0,0,0,0C1422.9,806.2,1422.9,805.5,1422.4,805.2C1422.4,805.2,1422.4,805.2,1422.4,805.2z"/>
		<path class="st22" d="M319.6,4408c-0.5-0.4-1.1-0.3-1.5,0.2c0,0,0,0,0,0c-0.3,0.5-0.2,1.2,0.3,1.5c0.5,0.3,1.1,0.2,1.5-0.2
			C320.2,4409.1,320.1,4408.4,319.6,4408z"/>
		<path class="st21" d="M1398.5,2823.7c-0.5-0.4-1.1-0.3-1.5,0.2c0,0,0,0,0,0c-0.4,0.5-0.3,1.2,0.2,1.5c0.5,0.4,1.1,0.3,1.5-0.2
			C1399.1,2824.8,1399,2824.1,1398.5,2823.7L1398.5,2823.7z"/>
		<path class="st12" d="M1366.2,2193.4c-0.1-0.1-0.3-0.1-0.4,0c0,0,0,0,0,0c-0.1,0.1-0.1,0.3,0.1,0.4c0.1,0.1,0.3,0.1,0.4,0
			c0,0,0,0,0,0C1366.4,2193.7,1366.4,2193.5,1366.2,2193.4z"/>
		<path class="st14" d="M1159.3,3707.5c-0.3,0-0.6-0.2-0.7-0.5c0-0.3,0.2-0.6,0.5-0.7c0,0,0,0,0,0c0.3,0,0.6,0.2,0.7,0.5
			C1159.9,3707.2,1159.6,3707.5,1159.3,3707.5C1159.3,3707.5,1159.3,3707.5,1159.3,3707.5z"/>
		<path class="st23" d="M1484.6,4945.6c-0.4,0-0.8-0.3-0.8-0.7c0-0.4,0.2-0.8,0.6-0.8c0,0,0,0,0,0c0.4,0,0.8,0.3,0.8,0.7
			C1485.3,4945.1,1485,4945.5,1484.6,4945.6C1484.6,4945.6,1484.6,4945.6,1484.6,4945.6z"/>
		<path class="st1" d="M663.4,1292.7c-0.4,0-0.7-0.2-0.7-0.6c0-0.4,0.2-0.7,0.6-0.7c0,0,0,0,0,0c0.4,0,0.7,0.2,0.7,0.6
			C664.1,1292.3,663.8,1292.6,663.4,1292.7C663.5,1292.7,663.4,1292.7,663.4,1292.7z"/>
		<path class="st24" d="M831,1598.8c-0.3,0-0.6-0.2-0.7-0.6c0-0.3,0.2-0.6,0.5-0.7c0,0,0,0,0,0c0.3,0,0.6,0.2,0.7,0.6
			C831.6,1598.4,831.4,1598.7,831,1598.8C831,1598.8,831,1598.8,831,1598.8z"/>
		<path class="st21" d="M58.9,1132.6c-0.4,0-0.8-0.3-0.8-0.7c0-0.4,0.3-0.8,0.7-0.8c0,0,0,0,0,0c0.4,0,0.8,0.3,0.8,0.7
			C59.6,1132.1,59.3,1132.5,58.9,1132.6C58.9,1132.6,58.9,1132.6,58.9,1132.6z"/>
		<path class="st1" d="M1261.6,3366.8c-0.4,0-0.8-0.3-0.9-0.7c0-0.4,0.3-0.8,0.7-0.9c0,0,0,0,0,0c0.4,0,0.8,0.3,0.9,0.7
			C1262.4,3366.4,1262.1,3366.8,1261.6,3366.8C1261.6,3366.8,1261.6,3366.8,1261.6,3366.8z"/>
		<path class="st25" d="M189.2,2442.8c-0.5,0-0.9-0.3-0.9-0.8c-0.1-0.4,0.3-0.9,0.7-0.9c0,0,0,0,0,0c0.5,0,0.9,0.3,0.9,0.8
			C190,2442.3,189.6,2442.7,189.2,2442.8C189.2,2442.8,189.2,2442.8,189.2,2442.8z"/>
		<path class="st20" d="M454.6,1602.5c-0.5,0-1-0.3-1-0.9c-0.1-0.5,0.3-1,0.8-1c0,0,0,0,0,0c0.5,0,1,0.3,1,0.9
			C455.5,1602,455.1,1602.4,454.6,1602.5C454.6,1602.5,454.6,1602.5,454.6,1602.5z"/>
		<path class="st26" d="M592.5,3220.6c-0.4,0-0.8-0.3-0.8-0.7c-0.1-0.4,0.2-0.8,0.7-0.8c0,0,0,0,0,0c0.4,0,0.8,0.3,0.9,0.7
			C593.3,3220.1,593,3220.5,592.5,3220.6C592.6,3220.6,592.6,3220.6,592.5,3220.6z"/>
		<path class="st27" d="M247.3,1528.2c-0.4,0-0.7-0.2-0.7-0.6c0,0,0,0,0,0c0-0.4,0.2-0.7,0.6-0.7c0,0,0,0,0,0c0.4,0,0.7,0.2,0.7,0.6
			c0,0,0,0,0,0C247.9,1527.8,247.6,1528.2,247.3,1528.2C247.3,1528.2,247.3,1528.2,247.3,1528.2z"/>
		<path class="st28" d="M566.8,1547.5c-0.4,0-0.8-0.3-0.9-0.7c0-0.4,0.3-0.8,0.7-0.9c0,0,0,0,0,0c0.4,0,0.8,0.3,0.9,0.7
			C567.5,1547,567.2,1547.4,566.8,1547.5C566.8,1547.5,566.8,1547.5,566.8,1547.5z"/>
		<path class="st29" d="M657.2,1833.1c-0.3,0-0.6-0.2-0.6-0.5c0-0.3,0.2-0.6,0.5-0.6c0,0,0,0,0,0c0.3,0,0.6,0.2,0.6,0.5
			C657.7,1832.8,657.5,1833.1,657.2,1833.1C657.2,1833.1,657.2,1833.1,657.2,1833.1z"/>
		<path class="st17" d="M713.4,3056.4c-0.5,0-0.9-0.3-0.9-0.8c-0.1-0.4,0.3-0.9,0.7-0.9c0,0,0,0,0,0c0.5,0,0.9,0.3,0.9,0.8
			C714.2,3055.9,713.9,3056.3,713.4,3056.4C713.4,3056.4,713.4,3056.4,713.4,3056.4z"/>
		<path class="st28" d="M136.8,914.2c-0.5,0-1-0.4-1.1-0.9c-0.1-0.5,0.3-1,0.8-1.1c0,0,0,0,0,0c0.5,0,1,0.3,1.1,0.9
			C137.7,913.6,137.3,914.1,136.8,914.2C136.8,914.2,136.8,914.2,136.8,914.2z"/>
		<path class="st29" d="M158.2,4783.2c-0.9,0.1-1.7-0.6-1.8-1.5c-0.1-0.9,0.5-1.7,1.4-1.8c0,0,0,0,0,0c0.9-0.1,1.7,0.6,1.8,1.5
			C159.8,4782.3,159.1,4783.1,158.2,4783.2C158.2,4783.2,158.2,4783.2,158.2,4783.2z"/>
		<path class="st0" d="M696.6,4451.1c-0.6,0-1.1-0.4-1.2-1c-0.1-0.5,0.3-1.1,0.9-1.1c0,0,0,0,0.1,0c0.6,0,1.1,0.4,1.2,0.9
			C697.6,4450.6,697.2,4451.1,696.6,4451.1C696.6,4451.1,696.6,4451.1,696.6,4451.1z"/>
		<path class="st12" d="M736,931.7c-0.7,0.1-1.3-0.5-1.4-1.1c-0.1-0.7,0.4-1.3,1.1-1.4c0,0,0,0,0,0c0.7-0.1,1.3,0.4,1.4,1.1
			C737.2,931,736.7,931.6,736,931.7C736.1,931.7,736.1,931.7,736,931.7z"/>
		<path class="st14" d="M1168.2,4399.6c-0.5,0-0.9-0.3-1-0.8c0-0.5,0.3-0.9,0.8-1c0.5,0,0.9,0.3,1,0.8
			C1169.1,4399.1,1168.7,4399.6,1168.2,4399.6C1168.2,4399.6,1168.2,4399.6,1168.2,4399.6z"/>
		<path class="st29" d="M545.8,4861.9c-0.5,0-0.9-0.3-1-0.8c-0.1-0.5,0.3-0.9,0.8-1c0,0,0,0,0,0c0.5,0,0.9,0.3,1,0.8
			C546.7,4861.3,546.3,4861.8,545.8,4861.9C545.8,4861.9,545.8,4861.9,545.8,4861.9z"/>
		<path class="st30" d="M235.5,3813.3c-0.4,0-0.8-0.3-0.9-0.7c0-0.4,0.3-0.8,0.7-0.9c0,0,0,0,0,0c0.4,0,0.8,0.3,0.9,0.7
			C236.3,3812.9,236,3813.2,235.5,3813.3C235.6,3813.3,235.6,3813.3,235.5,3813.3z"/>
		<path class="st14" d="M75.9,167c-0.3,0-0.6-0.2-0.7-0.5c0-0.3,0.2-0.6,0.5-0.6c0.3,0,0.6,0.2,0.7,0.5
			C76.5,166.6,76.2,166.9,75.9,167z"/>
		<path class="st9" d="M416.7,1571.8c-0.9,0.1-1.7-0.6-1.8-1.5c-0.1-0.9,0.5-1.7,1.4-1.8c0,0,0,0,0,0c0.9-0.1,1.7,0.6,1.8,1.5
			C418.2,1570.9,417.6,1571.7,416.7,1571.8C416.7,1571.8,416.7,1571.8,416.7,1571.8z"/>
		<path class="st4" d="M1441.6,2616.6c-0.7,0.1-1.3-0.4-1.4-1.1c-0.1-0.7,0.4-1.3,1.1-1.4c0,0,0,0,0,0c0.7-0.1,1.3,0.4,1.4,1.1
			C1442.8,2615.9,1442.3,2616.5,1441.6,2616.6C1441.6,2616.6,1441.6,2616.6,1441.6,2616.6z"/>
		<path class="st31" d="M615,572.6c-0.4,0-0.7-0.2-0.7-0.6c0-0.3,0.2-0.7,0.6-0.7c0,0,0,0,0,0c0.4,0,0.7,0.2,0.7,0.6
			C615.6,572.2,615.3,572.5,615,572.6C615,572.6,615,572.6,615,572.6z"/>
		<path class="st10" d="M1623.2,2032.7c-0.7,0.1-1.3-0.4-1.4-1.1c-0.1-0.7,0.4-1.3,1.1-1.3c0,0,0,0,0,0c0.7-0.1,1.3,0.4,1.4,1.1
			C1624.3,2032,1623.9,2032.6,1623.2,2032.7C1623.2,2032.7,1623.2,2032.7,1623.2,2032.7z"/>
		<path class="st8" d="M102.6,1315.8c0.1,0.5,0.6,0.9,1.1,0.9L102.6,1315.8z"/>
		<path class="st32" d="M1536.1,2392.8c-0.4,0-0.8-0.3-0.8-0.7c0-0.4,0.2-0.8,0.6-0.8c0,0,0,0,0,0c0.4,0,0.8,0.3,0.8,0.7
			C1536.8,2392.4,1536.5,2392.8,1536.1,2392.8C1536.1,2392.8,1536.1,2392.8,1536.1,2392.8z"/>
		<path class="st33" d="M1288.1,1632.5c-0.6,0-1.1-0.4-1.2-1c-0.1-0.6,0.4-1.1,0.9-1.2c0,0,0,0,0,0c0.6,0,1.1,0.4,1.2,1
			C1289.1,1631.9,1288.7,1632.5,1288.1,1632.5C1288.1,1632.5,1288.1,1632.5,1288.1,1632.5z"/>
		<path class="st3" d="M1090.2,1629.8c-0.6,0.1-1.2-0.4-1.3-1.1c-0.1-0.6,0.4-1.2,1-1.3c0,0,0,0,0,0c0.6-0.1,1.2,0.4,1.3,1.1
			C1091.3,1629.2,1090.9,1629.8,1090.2,1629.8C1090.2,1629.8,1090.2,1629.8,1090.2,1629.8z"/>
		<path class="st34" d="M1127.9,1983.5c-0.4,0-0.7-0.2-0.8-0.6c0-0.4,0.2-0.7,0.6-0.7c0,0,0,0,0,0c0.4,0,0.7,0.2,0.7,0.6
			C1128.6,1983.1,1128.3,1983.4,1127.9,1983.5C1127.9,1983.5,1127.9,1983.5,1127.9,1983.5z"/>
		<path class="st18" d="M-0.7,581.6c-0.5,0-1-0.3-1-0.9c-0.1-0.5,0.3-1,0.8-1c0,0,0,0,0,0c0.5,0,1,0.3,1,0.9
			C0.2,581.1-0.1,581.5-0.7,581.6C-0.7,581.6-0.7,581.6-0.7,581.6z"/>
		<path class="st35" d="M225.7,1532.6c-0.4,0-0.7-0.2-0.7-0.6c0-0.4,0.2-0.7,0.6-0.7c0,0,0,0,0,0c0.4,0,0.7,0.2,0.7,0.6
			C226.3,1532.3,226,1532.6,225.7,1532.6C225.7,1532.6,225.7,1532.6,225.7,1532.6z"/>
		<path class="st31" d="M41.6,2389.5c-0.7,0.1-1.4-0.5-1.5-1.2c-0.1-0.7,0.4-1.4,1.1-1.5c0,0,0,0,0,0c0.7-0.1,1.4,0.5,1.5,1.2
			C42.9,2388.8,42.3,2389.5,41.6,2389.5C41.6,2389.5,41.6,2389.5,41.6,2389.5z"/>
		<path class="st16" d="M749.4,118.1c-0.5,0-1-0.3-1-0.9c-0.1-0.5,0.3-1,0.8-1c0,0,0,0,0,0c0.5,0,1,0.3,1,0.9
			C750.3,117.6,749.9,118,749.4,118.1C749.4,118.1,749.4,118.1,749.4,118.1z"/>
		<path class="st5" d="M1534.1,1363.2c-0.5,0-0.9-0.3-1-0.8c-0.1-0.5,0.3-0.9,0.7-1c0,0,0,0,0,0c0.5,0,0.9,0.3,1,0.8
			C1535,1362.7,1534.6,1363.1,1534.1,1363.2C1534.1,1363.2,1534.1,1363.2,1534.1,1363.2z"/>
		<path class="st36" d="M808.6,639.1c-0.5,0-1-0.4-1.1-0.9c-0.1-0.5,0.3-1,0.8-1.1c0,0,0,0,0,0c0.5,0,1,0.4,1.1,0.9
			C809.5,638.6,809.1,639.1,808.6,639.1C808.6,639.1,808.6,639.1,808.6,639.1z"/>
		<path class="st37" d="M1263.3,3162.5c0-0.1,0-0.1,0-0.2l-1,1.2c0.1,0,0.1,0,0.2,0C1262.9,3163.5,1263.3,3163.1,1263.3,3162.5
			C1263.3,3162.5,1263.3,3162.5,1263.3,3162.5z"/>
		<path class="st14" d="M195.8,2716.7c-0.5,0-0.9-0.3-0.9-0.8c-0.1-0.4,0.3-0.9,0.7-0.9c0,0,0,0,0,0c0.5,0,0.9,0.3,0.9,0.8
			C196.6,2716.2,196.2,2716.6,195.8,2716.7C195.8,2716.7,195.8,2716.7,195.8,2716.7z"/>
		<path class="st38" d="M51.3,2148.5c-0.3,0-0.6,0.3-0.6,0.7c0,0,0,0,0,0c0,0.4,0.3,0.6,0.7,0.6c0.3,0,0.6-0.3,0.6-0.7c0,0,0,0,0,0
			C52,2148.7,51.7,2148.5,51.3,2148.5z"/>
		<path class="st12" d="M424.4,4301.5c-0.3,0-0.6,0.3-0.5,0.7c0,0,0,0,0,0c0,0.3,0.3,0.6,0.7,0.6c0.3,0,0.6-0.3,0.5-0.6c0,0,0,0,0,0
			C425.1,4301.7,424.8,4301.4,424.4,4301.5C424.4,4301.5,424.4,4301.5,424.4,4301.5z"/>
		<path class="st4" d="M1532.4,4579.7c-0.5,0.1-1,0.5-0.9,1.1c0,0,0,0,0,0c0.1,0.6,0.6,1,1.1,0.9c0.5-0.1,1-0.5,0.9-1.1c0,0,0,0,0,0
			C1533.4,4580.1,1532.9,4579.7,1532.4,4579.7z"/>
		<path class="st39" d="M527.1,4227.8c-0.7,0.1-1.2,0.7-1.2,1.4c0,0,0,0,0,0c0.1,0.7,0.7,1.3,1.5,1.2c0.7-0.1,1.2-0.7,1.2-1.4
			c0,0,0,0,0,0C528.5,4228.2,527.9,4227.7,527.1,4227.8z"/>
		<path class="st10" d="M1169.6,806.8c-0.4,0-0.7,0.4-0.6,0.8c0,0,0,0,0,0c0,0.4,0.4,0.7,0.8,0.7c0.4,0,0.7-0.4,0.6-0.8c0,0,0,0,0,0
			C1170.3,807.1,1170,806.8,1169.6,806.8z"/>
		<path class="st27" d="M618.5,483.6c-0.6,0.1-1.1,0.6-1,1.3c0,0,0,0,0,0c0.1,0.6,0.6,1.1,1.3,1c0.6-0.1,1.1-0.6,1-1.2c0,0,0,0,0,0
			C619.7,484,619.2,483.5,618.5,483.6z"/>
		<path class="st2" d="M1545.6,3354.9c-0.6,0-1,0.5-0.9,1.1c0,0,0,0.1,0,0.1c0.1,0.6,0.6,1,1.2,1c0.6-0.1,1-0.6,0.9-1.1c0,0,0,0,0,0
			C1546.7,3355.3,1546.2,3354.8,1545.6,3354.9z"/>
		<path class="st40" d="M275.1,3830.9c-0.4,0-0.7,0.4-0.7,0.8c0,0,0,0,0,0c0,0.4,0.4,0.7,0.8,0.7c0.4,0,0.7-0.4,0.7-0.8c0,0,0,0,0,0
			C275.9,3831.2,275.5,3830.9,275.1,3830.9z"/>
		<path class="st23" d="M1499.4,4120.9c-0.7,0.1-1.1,0.6-1.1,1.3c0,0,0,0,0,0c0.1,0.7,0.7,1.1,1.3,1.1c0.6-0.1,1.1-0.6,1.1-1.3
			c0,0,0,0,0,0C1500.6,4121.4,1500,4120.9,1499.4,4120.9z"/>
		<path class="st41" d="M753.3,2046.5c-0.6,0.1-1.1,0.6-1,1.2c0,0,0,0,0,0c0.1,0.6,0.6,1.1,1.2,1c0.6-0.1,1.1-0.6,1-1.2c0,0,0,0,0,0
			C754.5,2046.9,754,2046.5,753.3,2046.5z"/>
		<path class="st42" d="M469.7,2710.1c-0.5,0-0.8,0.5-0.8,0.9c0,0,0,0,0,0c0.1,0.5,0.5,0.8,0.9,0.8c0.5-0.1,0.8-0.5,0.7-0.9
			c0,0,0,0,0,0C470.6,2710.4,470.1,2710.1,469.7,2710.1z"/>
		<path class="st0" d="M359.7,167.3c-0.7,0.1-1.2,0.7-1.1,1.3c0,0,0,0,0,0c0.1,0.7,0.7,1.2,1.4,1.1c0.7-0.1,1.2-0.7,1.1-1.3
			c0,0,0,0,0,0C361.1,167.7,360.4,167.2,359.7,167.3z"/>
		<path class="st42" d="M1390,3344.6c-0.5,0-0.9,0.5-0.9,1c0,0,0,0,0,0c0.1,0.5,0.5,0.9,1.1,0.9c0.5,0,0.9-0.5,0.9-1c0,0,0,0,0,0
			C1391,3345,1390.6,3344.6,1390,3344.6z"/>
		<path class="st41" d="M800.1,2700.1c-0.3,0-0.6,0.3-0.5,0.6c0,0,0,0,0,0c0,0.3,0.3,0.6,0.7,0.6c0.3,0,0.6-0.3,0.5-0.7c0,0,0,0,0,0
			C800.7,2700.3,800.4,2700.1,800.1,2700.1z"/>
		<path class="st39" d="M1085,1421.9c-0.4,0-0.6,0.3-0.6,0.7c0,0,0,0,0,0c0,0.4,0.4,0.6,0.7,0.6c0.4,0,0.6-0.4,0.6-0.7c0,0,0,0,0,0
			C1085.7,1422.1,1085.4,1421.9,1085,1421.9z"/>
		<path class="st40" d="M374.9,2181.8c-0.4,0-0.8,0.4-0.7,0.9c0,0,0,0,0,0c0,0.5,0.5,0.8,0.9,0.8c0.5,0,0.8-0.4,0.7-0.9c0,0,0,0,0,0
			C375.8,2182.1,375.4,2181.8,374.9,2181.8z"/>
		<path class="st6" d="M1605.2,2292.7c-0.5,0.1-0.9,0.5-0.8,1c0,0,0,0,0,0c0.1,0.5,0.5,0.9,1.1,0.9c0.5,0,0.9-0.5,0.9-1c0,0,0,0,0,0
			C1606.2,2293.1,1605.7,2292.7,1605.2,2292.7z"/>
		<path class="st12" d="M1000.3,262.2c-0.3,0-0.6,0.3-0.6,0.7c0,0,0,0,0,0c0,0.3,0.3,0.6,0.7,0.6c0.3,0,0.6-0.3,0.5-0.7
			C1000.9,262.4,1000.6,262.2,1000.3,262.2z"/>
		<path class="st43" d="M430,3372.1c-0.5,0.1-0.8,0.5-0.8,1c0,0,0,0,0,0c0,0.5,0.5,0.9,1,0.8c0.5,0,0.8-0.5,0.8-0.9c0,0,0,0,0,0
			C431,3372.5,430.5,3372.1,430,3372.1z"/>
		<path class="st44" d="M1526,1699.6c-0.5,0-0.9,0.5-0.9,1c0,0,0,0,0,0c0.1,0.5,0.5,0.9,1.1,0.9c0.5,0,0.9-0.5,0.8-1c0,0,0,0,0,0
			C1527,1700,1526.5,1699.6,1526,1699.6z"/>
		<path class="st37" d="M883.9,767.7c-0.6,0.1-1,0.6-0.9,1.1c0,0,0,0,0,0c0.1,0.6,0.6,1,1.2,1c0.6-0.1,1-0.6,0.9-1.1c0,0,0,0,0,0
			C885,768.1,884.5,767.7,883.9,767.7z"/>
		<path class="st7" d="M250,4078.6c-0.5,0-0.9,0.5-0.8,1c0,0,0,0,0,0c0.1,0.5,0.5,0.9,1,0.8c0.5,0,0.9-0.5,0.8-1c0,0,0,0,0,0
			C250.9,4078.9,250.5,4078.5,250,4078.6z"/>
		<path class="st10" d="M849.4,1704.2c-0.5,0-0.8,0.5-0.8,1c0,0,0,0,0,0c0.1,0.5,0.5,0.8,1,0.8c0.5,0,0.8-0.4,0.8-0.9c0,0,0,0,0,0
			C850.3,1704.5,849.8,1704.2,849.4,1704.2z"/>
		<path class="st39" d="M928,3735.3c-0.5,0.1-0.9,0.5-0.8,1c0,0,0,0,0,0c0.1,0.5,0.5,0.9,1.1,0.9c0.5,0,0.9-0.5,0.9-1c0,0,0,0,0,0
			C929,3735.6,928.6,3735.2,928,3735.3z"/>
		<path class="st29" d="M600.4,695.8c-0.6-0.5-0.7-1.3-0.3-1.9c0.4-0.6,1.3-0.7,1.8-0.2c0,0,0,0,0,0c0.6,0.5,0.7,1.3,0.3,1.9
			C601.9,696.1,601,696.2,600.4,695.8C600.4,695.8,600.4,695.8,600.4,695.8z"/>
		<path class="st40" d="M878.8,3308.1c-0.4-0.3-0.4-0.8-0.2-1.2c0.3-0.4,0.8-0.4,1.2-0.2c0,0,0,0,0,0c0.4,0.3,0.4,0.8,0.2,1.2
			C879.7,3308.4,879.2,3308.4,878.8,3308.1C878.8,3308.1,878.8,3308.1,878.8,3308.1z"/>
		<path class="st22" d="M1157.1,2973.3c-0.6-0.5-0.7-1.4-0.3-2c0.5-0.6,1.4-0.7,2-0.3c0,0,0,0,0,0c0.6,0.5,0.7,1.4,0.3,2
			C1158.6,2973.6,1157.7,2973.8,1157.1,2973.3C1157.1,2973.3,1157.1,2973.3,1157.1,2973.3z"/>
		<path class="st28" d="M1543.9,2983.8c-0.6-0.5-0.8-1.4-0.3-2.1c0.5-0.6,1.4-0.7,2-0.3c0,0,0,0,0,0c0.6,0.5,0.8,1.4,0.3,2.1
			C1545.5,2984.2,1544.6,2984.3,1543.9,2983.8C1544,2983.9,1544,2983.8,1543.9,2983.8z"/>
		<path class="st17" d="M152.5,2129c-0.5-0.4-0.6-1.1-0.2-1.7c0.4-0.5,1.1-0.6,1.6-0.2c0,0,0,0,0,0c0.5,0.4,0.6,1.1,0.2,1.7
			C153.8,2129.3,153,2129.4,152.5,2129C152.5,2129,152.5,2129,152.5,2129z"/>
		<path class="st37" d="M348.2,2603.8c-0.8-0.6-0.9-1.7-0.3-2.5c0.6-0.8,1.7-0.9,2.4-0.3c0,0,0,0,0,0c0.8,0.6,0.9,1.7,0.3,2.5
			C350,2604.3,349,2604.5,348.2,2603.8C348.2,2603.9,348.2,2603.9,348.2,2603.8z"/>
		<path class="st34" d="M1063.3,2929.7c-0.8-0.6-0.9-1.7-0.3-2.5c0.6-0.8,1.7-0.9,2.4-0.3c0,0,0,0,0,0c0.8,0.6,0.9,1.7,0.3,2.5
			C1065.2,2930.1,1064.1,2930.3,1063.3,2929.7C1063.3,2929.7,1063.3,2929.7,1063.3,2929.7z"/>
		<path class="st45" d="M446.6,1987c-0.6-0.5-0.7-1.3-0.3-1.9c0.5-0.6,1.3-0.7,1.9-0.2c0,0,0,0,0,0c0.6,0.5,0.7,1.3,0.3,1.9
			C448.1,1987.4,447.2,1987.5,446.6,1987C446.6,1987,446.6,1987,446.6,1987z"/>
		<path class="st46" d="M1331.7,1445.5c-0.7-0.5-0.8-1.5-0.3-2.2c0.5-0.7,1.5-0.8,2.2-0.3c0,0,0,0,0,0c0.7,0.5,0.8,1.5,0.3,2.2
			C1333.4,1445.9,1332.4,1446,1331.7,1445.5C1331.7,1445.5,1331.7,1445.5,1331.7,1445.5z"/>
		<path class="st43" d="M904.1,4092.9c-0.7-0.5-0.8-1.5-0.3-2.2c0.5-0.7,1.4-0.8,2.1-0.3c0,0,0,0,0,0c0.7,0.5,0.8,1.5,0.3,2.2
			C905.7,4093.3,904.7,4093.4,904.1,4092.9C904.1,4092.9,904.1,4092.9,904.1,4092.9z"/>
		<path class="st16" d="M21.5,4822.2c-0.8-0.7-1-1.9-0.4-2.7c0.7-0.8,1.9-1,2.7-0.3c0,0,0,0,0,0c0.8,0.7,1,1.9,0.4,2.8
			C23.6,4822.7,22.4,4822.8,21.5,4822.2C21.5,4822.2,21.5,4822.2,21.5,4822.2z"/>
		<path class="st47" d="M1634.5,4113.5c-0.4-0.3-0.5-0.8-0.2-1.2c0.3-0.4,0.8-0.4,1.2-0.1c0,0,0,0,0,0c0.4,0.3,0.5,0.8,0.2,1.2
			C1635.4,4113.7,1634.8,4113.8,1634.5,4113.5C1634.5,4113.5,1634.5,4113.5,1634.5,4113.5z"/>
		<path class="st15" d="M1282.7,2425.6L1282.7,2425.6c0.5-0.6,0.4-1.3-0.2-1.7c-0.3-0.3-0.7-0.3-1.1-0.2L1282.7,2425.6z"/>
		<path class="st30" d="M655.7,1188.4c-0.6-0.5-0.7-1.3-0.3-2c0.5-0.6,1.3-0.7,1.9-0.2c0,0,0,0,0,0c0.6,0.5,0.7,1.3,0.3,2
			C657.2,1188.8,656.3,1188.9,655.7,1188.4C655.7,1188.4,655.7,1188.4,655.7,1188.4z"/>
		<path class="st29" d="M1128.8,1150.7c-0.6-0.5-0.7-1.3-0.3-1.9c0.4-0.6,1.3-0.7,1.9-0.2c0,0,0,0,0,0c0.6,0.5,0.7,1.3,0.3,1.9
			C1130.2,1151.1,1129.4,1151.2,1128.8,1150.7C1128.8,1150.7,1128.8,1150.7,1128.8,1150.7z"/>
		<path class="st39" d="M1550.5,3522.3c-0.6-0.5-0.7-1.3-0.3-1.9c0.5-0.6,1.3-0.7,1.9-0.2c0,0,0,0,0,0c0.6,0.5,0.7,1.3,0.3,1.9
			C1552,3522.7,1551.1,3522.8,1550.5,3522.3C1550.5,3522.4,1550.5,3522.4,1550.5,3522.3z"/>
		<path class="st12" d="M1276.3,818.5c-0.6-0.4-0.7-1.2-0.2-1.8c0.4-0.5,1.2-0.6,1.8-0.2c0,0,0,0,0,0c0.6,0.4,0.7,1.2,0.2,1.8
			C1277.6,818.8,1276.8,818.9,1276.3,818.5C1276.3,818.5,1276.3,818.5,1276.3,818.5z"/>
		<path class="st21" d="M206.2,2756.3c-0.3-0.3-0.8-0.2-1,0.1c0,0,0,0,0,0c-0.3,0.3-0.2,0.8,0.1,1.1c0.3,0.3,0.8,0.2,1-0.1
			c0,0,0,0,0,0C206.6,2757,206.6,2756.5,206.2,2756.3z"/>
		<path class="st48" d="M399.3,2394.6c-0.4-0.3-1-0.3-1.4,0.1c0,0,0,0,0,0c-0.3,0.4-0.2,1.1,0.2,1.4c0.4,0.3,1,0.2,1.4-0.2
			C399.8,2395.5,399.7,2394.9,399.3,2394.6z"/>
		<path class="st21" d="M1493.6,5011.6c-0.4-0.3-1-0.3-1.3,0.1c0,0,0,0,0,0c-0.3,0.4-0.2,1,0.2,1.3c0.4,0.3,1,0.2,1.3-0.2
			c0,0,0,0,0,0C1494.1,5012.5,1494,5012,1493.6,5011.6z"/>
		<path class="st28" d="M1472.7,4519.8c-0.3-0.3-0.8-0.2-1.1,0.1c0,0,0,0,0,0c-0.3,0.4-0.2,0.9,0.2,1.2c0.3,0.3,0.8,0.2,1.1-0.1
			c0,0,0,0,0,0C1473.1,4520.6,1473.1,4520.1,1472.7,4519.8C1472.7,4519.8,1472.7,4519.8,1472.7,4519.8z"/>
		<path class="st22" d="M1625.8,498.1c-0.4-0.3-1-0.3-1.3,0.1c0,0,0,0,0,0c-0.3,0.4-0.2,1,0.2,1.3c0.4,0.3,1,0.3,1.3-0.1
			c0,0,0,0,0,0C1626.3,499,1626.2,498.4,1625.8,498.1z"/>
		<path class="st3" d="M991.4,4587.7c-0.7-0.5-1.7-0.4-2.2,0.2c0,0,0,0,0,0c-0.5,0.7-0.4,1.7,0.3,2.3c0.7,0.5,1.7,0.4,2.2-0.2
			c0,0,0,0,0,0C992.2,4589.2,992.1,4588.2,991.4,4587.7z"/>
		<path class="st9" d="M421.3,3644c-0.7-0.6-1.7-0.5-2.3,0.2c0,0,0,0,0,0c-0.5,0.7-0.4,1.8,0.3,2.3c0.7,0.6,1.7,0.5,2.3-0.2
			c0,0,0,0,0,0C422.2,3645.6,422,3644.6,421.3,3644z"/>
		<path class="st7" d="M897.8,1003.6c-0.4-0.3-0.9-0.2-1.2,0.2c0,0,0,0,0,0c-0.3,0.4-0.2,0.9,0.2,1.2c0.4,0.3,0.9,0.2,1.2-0.1
			c0,0,0,0,0,0C898.3,1004.4,898.2,1003.9,897.8,1003.6z"/>
		<path class="st31" d="M1349.8,4314.3c-0.4-0.4-1.1-0.3-1.5,0.2c0,0,0,0,0,0c-0.3,0.5-0.3,1.1,0.2,1.5c0.4,0.4,1.1,0.3,1.4-0.2
			c0,0,0,0,0,0C1350.4,4315.3,1350.3,4314.7,1349.8,4314.3z"/>
		<path class="st48" d="M286.6,4652.3c-0.5-0.4-1.2-0.3-1.6,0.2c0,0,0,0,0,0c-0.4,0.5-0.3,1.3,0.2,1.7c0.5,0.4,1.2,0.3,1.6-0.2
			c0,0,0,0,0,0C287.3,4653.4,287.2,4652.7,286.6,4652.3C286.7,4652.3,286.7,4652.3,286.6,4652.3z"/>
		<path class="st37" d="M1356.6,269c-0.3-0.3-0.8-0.2-1,0.1c0,0,0,0,0,0c-0.2,0.3-0.2,0.8,0.1,1.1c0.3,0.2,0.8,0.2,1-0.1
			C1356.9,269.7,1356.9,269.3,1356.6,269z"/>
		<path class="st11" d="M1528.9,290.8c-0.4-0.4-1.1-0.3-1.5,0.2c0,0,0,0,0,0c-0.4,0.5-0.3,1.1,0.2,1.5c0,0,0,0,0,0
			c0.4,0.4,1.1,0.3,1.4-0.1c0,0,0,0,0,0C1529.5,291.8,1529.4,291.1,1528.9,290.8C1528.9,290.8,1528.9,290.8,1528.9,290.8z"/>
		<path class="st16" d="M100.1,5030.1c-2.2,0.7-3.5,3.1-2.7,5.4c0,0,0,0,0,0.1c0.7,2.3,3.2,3.5,5.4,2.8c2.2-0.7,3.4-3.1,2.7-5.3
			c0,0,0-0.1,0-0.1C104.8,5030.7,102.4,5029.4,100.1,5030.1z"/>
		<path class="st12" d="M502.3,1028.1c-0.5-0.4-1.3-0.3-1.7,0.2c0,0,0,0,0,0c-0.4,0.5-0.3,1.3,0.2,1.7c0.5,0.4,1.3,0.3,1.7-0.2
			c0,0,0,0,0,0C503,1029.3,502.9,1028.5,502.3,1028.1z"/>
		<path class="st36" d="M1170.8,3427.1c-0.3-0.3-0.8-0.2-1.1,0.1c0,0,0,0,0,0c-0.3,0.4-0.2,0.9,0.2,1.1c0.3,0.3,0.8,0.2,1.1-0.1
			c0,0,0,0,0,0C1171.2,3427.8,1171.1,3427.3,1170.8,3427.1z"/>
		<path class="st31" d="M319.2,3330.9c-0.6-0.5-1.5-0.4-1.9,0.2c0,0,0,0,0,0c-0.5,0.6-0.3,1.5,0.3,2c0.6,0.5,1.5,0.4,1.9-0.2
			c0,0,0,0,0,0C320,3332.3,319.9,3331.4,319.2,3330.9z"/>
		<path class="st31" d="M1554.3,913.2c-0.5-0.4-1.1-0.3-1.5,0.2c0,0,0,0,0,0c-0.4,0.5-0.3,1.2,0.2,1.6c0.5,0.4,1.2,0.3,1.5-0.2
			c0,0,0,0,0,0C1554.9,914.2,1554.8,913.5,1554.3,913.2z"/>
		<path class="st44" d="M1285.6,2232.8c-0.4-0.3-1-0.3-1.4,0.1c0,0,0,0,0,0c-0.3,0.4-0.2,1.1,0.2,1.4c0.4,0.3,1,0.3,1.4-0.1
			c0,0,0,0,0,0C1286.1,2233.7,1286,2233.1,1285.6,2232.8z"/>
		<path class="st48" d="M1066.3,4929.8c-0.6-0.5-1.4-0.4-1.8,0.2c0,0,0,0,0,0c-0.4,0.6-0.3,1.4,0.2,1.9c0.6,0.5,1.4,0.4,1.9-0.2
			c0,0,0,0,0,0C1067,4931.1,1066.9,4930.2,1066.3,4929.8z"/>
		<path class="st1" d="M585.8,102.9c-0.4-0.3-1-0.3-1.4,0.1c0,0,0,0,0,0c-0.3,0.4-0.2,1.1,0.2,1.4c0.4,0.3,1,0.3,1.4-0.1
			c0,0,0,0,0,0C586.3,103.8,586.2,103.2,585.8,102.9z"/>
		<path class="st12" d="M1381.1,2230.9c-0.4-0.3-1.1-0.3-1.4,0.2c-0.3,0.4-0.3,1.1,0.2,1.4c0,0,0,0,0,0c0.4,0.3,1.1,0.3,1.4-0.2
			C1381.6,2231.9,1381.5,2231.3,1381.1,2230.9z"/>
		<path class="st9" d="M333.2,411c-0.4-0.3-1-0.3-1.3,0.1c0,0,0,0,0,0c-0.3,0.4-0.2,1,0.2,1.4c0.4,0.3,1,0.3,1.3-0.1c0,0,0,0,0,0
			C333.7,411.9,333.6,411.3,333.2,411z"/>
		<path class="st25" d="M1174.5,599c-0.5-0.4-1.1-0.3-1.5,0.2c0,0,0,0,0,0c-0.4,0.5-0.3,1.2,0.2,1.6c0.5,0.4,1.2,0.3,1.5-0.2
			c0,0,0,0,0,0C1175.1,600.1,1175,599.4,1174.5,599z"/>
		<path class="st26" d="M608.9,2144.3l1,1.5c0.4,0,0.7-0.1,1-0.4c0.4-0.5,0.3-1.2-0.2-1.6c0,0,0,0,0,0c-0.5-0.4-1.2-0.4-1.6,0.1
			C609,2144,609,2144.1,608.9,2144.3L608.9,2144.3z"/>
		<path class="st26" d="M131.3,14.6c-0.4-0.4-1.1-0.3-1.5,0.1c0,0,0,0,0,0c-0.4,0.5-0.3,1.2,0.2,1.5c0.5,0.4,1.1,0.3,1.5-0.2
			C131.8,15.7,131.7,15,131.3,14.6z"/>
		<path class="st27" d="M677,3264.9c-0.7,0.1-1.3-0.4-1.4-1.1c-0.1-0.7,0.4-1.3,1.1-1.3c0,0,0,0,0,0c0.7-0.1,1.3,0.4,1.4,1.1
			C678.2,3264.2,677.7,3264.8,677,3264.9C677,3264.9,677,3264.9,677,3264.9z"/>
		<path class="st40" d="M458,4969.3c-0.8,0.1-1.4-0.5-1.5-1.3c-0.1-0.7,0.4-1.4,1.2-1.5c0,0,0,0,0,0c0.8,0,1.4,0.5,1.5,1.3
			C459.3,4968.6,458.7,4969.2,458,4969.3C458,4969.3,458,4969.3,458,4969.3z"/>
		<path class="st5" d="M782.4,4852.7c-0.6,0.1-1.1-0.4-1.2-1c-0.1-0.6,0.3-1.1,0.9-1.1c0,0,0,0,0,0c0.6-0.1,1.1,0.4,1.2,1
			C783.4,4852.2,783,4852.7,782.4,4852.7C782.4,4852.7,782.4,4852.7,782.4,4852.7z"/>
		<path class="st14" d="M1174.2,1997.8c-0.6,0.1-1.1-0.4-1.2-1c-0.1-0.6,0.3-1.1,0.9-1.2c0,0,0,0,0,0c0.6,0,1.1,0.4,1.2,1
			C1175.2,1997.2,1174.8,1997.7,1174.2,1997.8C1174.2,1997.8,1174.2,1997.8,1174.2,1997.8z"/>
		<path class="st3" d="M160.9,4673.4c-0.5,0-0.9-0.3-1-0.8c-0.1-0.5,0.3-0.9,0.8-1c0,0,0,0,0,0c0.5,0,0.9,0.3,1,0.8
			C161.8,4672.9,161.4,4673.4,160.9,4673.4C160.9,4673.4,160.9,4673.4,160.9,4673.4z"/>
		<path class="st46" d="M338.8,1538c-0.9,0.1-1.7-0.6-1.8-1.5c-0.1-0.9,0.5-1.7,1.4-1.8c0,0,0,0,0,0c0.9-0.1,1.7,0.6,1.8,1.5
			C340.3,1537.1,339.7,1537.9,338.8,1538C338.8,1538,338.8,1538,338.8,1538z"/>
		<path class="st23" d="M742.3,914.4c-0.6-0.5-1.4-0.4-1.9,0.2c0,0,0,0,0,0c-0.5,0.6-0.3,1.5,0.3,1.9c0.6,0.5,1.4,0.4,1.9-0.2
			c0,0,0,0,0,0C743,915.7,742.9,914.9,742.3,914.4z"/>
		<path class="st31" d="M106.5,3251.5c-0.5,0-0.9-0.3-0.9-0.8c-0.1-0.5,0.3-0.9,0.7-0.9c0,0,0,0,0,0c0.5,0,0.9,0.3,0.9,0.8
			C107.3,3251.1,107,3251.5,106.5,3251.5C106.5,3251.5,106.5,3251.5,106.5,3251.5z"/>
		<path class="st6" d="M1236.1,3448.7c-0.5,0-0.9-0.3-0.9-0.8c-0.1-0.4,0.3-0.8,0.7-0.9c0,0,0,0,0,0c0.5,0,0.9,0.3,0.9,0.7
			C1236.9,3448.3,1236.6,3448.7,1236.1,3448.7C1236.1,3448.7,1236.1,3448.7,1236.1,3448.7z"/>
		<path class="st5" d="M472.5,3477.4c-0.5-0.4-0.6-1.1-0.2-1.7c0.4-0.5,1.1-0.6,1.6-0.2c0,0,0,0,0,0c0.5,0.4,0.6,1.1,0.2,1.7
			C473.7,3477.7,473,3477.8,472.5,3477.4C472.5,3477.4,472.5,3477.4,472.5,3477.4z"/>
		<path class="st6" d="M401.3,226.7c-0.6-0.5-0.7-1.4-0.3-2c0.5-0.6,1.3-0.7,2-0.3c0,0,0,0,0,0c0.6,0.5,0.7,1.4,0.3,2
			C402.8,227.1,401.9,227.2,401.3,226.7C401.3,226.7,401.3,226.7,401.3,226.7z"/>
		<path class="st44" d="M276.3,4842.9c-0.6-0.5-1.5-0.4-2,0.2c0,0,0,0,0,0c-0.5,0.6-0.4,1.5,0.3,2c0.6,0.5,1.5,0.4,2-0.2
			C277.1,4844.3,277,4843.4,276.3,4842.9C276.3,4842.9,276.3,4842.9,276.3,4842.9z"/>
		<path class="st27" d="M987.5,308.6c-0.6-0.5-0.7-1.4-0.3-2c0.5-0.6,1.3-0.7,2-0.2c0,0,0,0,0,0c0.6,0.5,0.7,1.4,0.3,2c0,0,0,0,0,0
			C989,309,988.1,309.1,987.5,308.6C987.5,308.6,987.5,308.6,987.5,308.6z"/>
		<path class="st7" d="M426.7,1037.3c-0.4-0.3-1-0.2-1.3,0.2c0,0,0,0,0,0c-0.3,0.4-0.2,1,0.2,1.3c0.4,0.3,1,0.3,1.3-0.1c0,0,0,0,0,0
			C427.2,1038.2,427.2,1037.6,426.7,1037.3z"/>
		<path class="st3" d="M1,20.8c-0.4-0.3-1-0.3-1.3,0.1c0,0,0,0,0,0c-0.3,0.4-0.2,1,0.2,1.4c0.4,0.3,1,0.3,1.3-0.1c0,0,0,0,0,0
			C1.5,21.7,1.4,21.1,1,20.8z"/>
		<path class="st48" d="M1480.1,1056.5c-0.5-0.4-1.3-0.3-1.7,0.2c-0.4,0.5-0.3,1.3,0.2,1.7c0.5,0.4,1.2,0.3,1.6-0.2c0,0,0,0,0,0
			C1480.7,1057.7,1480.6,1056.9,1480.1,1056.5z"/>
		<path class="st15" d="M1500.7,1485.3c-0.5-0.4-1.1-0.3-1.5,0.1c0,0,0,0,0,0c-0.4,0.5-0.3,1.2,0.2,1.5c0.5,0.4,1.1,0.3,1.5-0.2
			c0,0,0,0,0,0C1501.2,1486.3,1501.1,1485.7,1500.7,1485.3z"/>
		<path class="st23" d="M1202.2,2430.8c-0.6-0.5-1.5-0.4-2,0.2c0,0,0,0,0,0c-0.5,0.7-0.4,1.6,0.3,2.1c0.6,0.5,1.5,0.4,2-0.2
			c0,0,0,0,0,0C1203,2432.2,1202.9,2431.3,1202.2,2430.8z"/>
		<path class="st36" d="M1136.2,1575.5c-0.7-0.5-1.6-0.4-2.2,0.2c0,0,0,0,0,0c-0.5,0.7-0.4,1.7,0.3,2.2c0.7,0.5,1.7,0.4,2.2-0.2
			c0,0,0,0,0,0C1137,1577.1,1136.9,1576.1,1136.2,1575.5z"/>
		<path class="st29" d="M1314.4,1879.2c-0.6-0.5-1.4-0.4-1.8,0.2c0,0,0,0,0,0c-0.4,0.6-0.3,1.4,0.2,1.9c0.6,0.5,1.4,0.4,1.9-0.2
			c0,0,0,0,0,0C1315.1,1880.5,1315,1879.6,1314.4,1879.2C1314.4,1879.2,1314.4,1879.2,1314.4,1879.2z"/>
		<path class="st21" d="M768.7,1381.2c-0.6-0.5-1.4-0.4-1.9,0.2c0,0,0,0,0,0c-0.5,0.6-0.3,1.5,0.3,1.9c0.6,0.5,1.5,0.4,1.9-0.2
			c0,0,0,0,0,0C769.4,1382.6,769.3,1381.7,768.7,1381.2z"/>
	</g>
</g>
</svg>
