<svg xmlns="http://www.w3.org/2000/svg" viewBox="0 0 1654.25 5034.72"><defs><style>.a{isolation:isolate;}.b{mix-blend-mode:screen;}.aa,.ab,.ac,.ad,.ae,.af,.ag,.ah,.ai,.aj,.ak,.al,.am,.an,.ao,.ap,.aq,.ar,.as,.at,.au,.av,.aw,.ax,.ay,.az,.ba,.bb,.bc,.bd,.be,.bf,.bg,.bh,.bi,.bj,.bk,.bl,.bm,.bn,.bo,.bp,.bq,.br,.bs,.bt,.bu,.bv,.bw,.bx,.by,.bz,.c,.ca,.cb,.cc,.cd,.ce,.cf,.cg,.ch,.ci,.cj,.ck,.cl,.cm,.cn,.co,.cp,.cq,.cr,.cs,.ct,.cu,.cv,.cw,.cx,.cy,.cz,.d,.da,.db,.dc,.dd,.de,.df,.dg,.dh,.di,.dj,.dk,.dl,.dm,.dn,.do,.dp,.dq,.dr,.ds,.dt,.du,.dv,.dw,.dx,.dy,.dz,.e,.ea,.eb,.ec,.ed,.ee,.ef,.eg,.eh,.ei,.ej,.ek,.el,.em,.en,.eo,.ep,.eq,.er,.es,.et,.eu,.ev,.ew,.ex,.ey,.ez,.f,.fa,.fb,.fc,.fd,.fe,.ff,.fg,.g,.h,.i,.j,.k,.l,.m,.n,.o,.p,.q,.r,.s,.t,.u,.v,.w,.x,.y,.z{fill:#fff;}.c{opacity:0.98;}.d{opacity:0.51;}.e{opacity:0.89;}.f{opacity:0.53;}.g{opacity:0.52;}.h{opacity:0.86;}.i{opacity:0.61;}.j{opacity:0.67;}.k{opacity:0.65;}.l{opacity:0.7;}.m{opacity:0.77;}.n{opacity:0.97;}.o{opacity:0.57;}.p{opacity:0.61;}.q{opacity:0.76;}.r{opacity:0.94;}.s{opacity:0.9;}.t{opacity:0.63;}.u{opacity:0.97;}.v{opacity:0.67;}.w{opacity:0.52;}.x{opacity:0.52;}.y{opacity:0.59;}.z{opacity:0.66;}.aa{opacity:0.62;}.ab{opacity:0.86;}.ac{opacity:0.99;}.ad{opacity:0.67;}.ae{opacity:0.73;}.af{opacity:0.89;}.ag{opacity:0.8;}.ah{opacity:0.73;}.ai{opacity:0.76;}.aj{opacity:0.9;}.ak{opacity:0.91;}.al{opacity:0.51;}.am{opacity:0.58;}.an{opacity:0.73;}.ao{opacity:0.51;}.ap{opacity:0.83;}.aq{opacity:0.99;}.ar{opacity:0.95;}.as{opacity:0.92;}.at{opacity:0.82;}.au{opacity:0.68;}.av{opacity:0.59;}.aw{opacity:0.82;}.ax{opacity:0.68;}.ay{opacity:0.98;}.az{opacity:0.76;}.ba{opacity:0.9;}.bb{opacity:0.68;}.bc{opacity:0.69;}.bd{opacity:0.9;}.be{opacity:0.77;}.bf{opacity:0.86;}.bg{opacity:0.72;}.bh{opacity:0.97;}.bi{opacity:0.7;}.bj{opacity:0.56;}.bk{opacity:0.74;}.bl{opacity:0.53;}.bm{opacity:0.79;}.bn{opacity:0.66;}.bo{opacity:1;}.bp{opacity:0.72;}.bq{opacity:0.52;}.br{opacity:0.61;}.bs{opacity:0.64;}.bt{opacity:0.75;}.bu{opacity:0.9;}.bv{opacity:0.88;}.bw{opacity:0.76;}.bx{opacity:0.86;}.by{opacity:0.54;}.bz{opacity:0.97;}.ca{opacity:0.92;}.cb{opacity:0.89;}.cc{opacity:0.78;}.cd{opacity:0.91;}.ce{opacity:0.93;}.cf{opacity:0.87;}.cg{opacity:0.98;}.ch{opacity:0.87;}.ci{opacity:0.93;}.cj{opacity:0.54;}.ck{opacity:0.78;}.cl{opacity:0.67;}.cm{opacity:0.76;}.cn{opacity:0.71;}.co{opacity:0.81;}.cp{opacity:0.75;}.cq{opacity:0.65;}.cr{opacity:0.97;}.cs{opacity:0.54;}.ct{opacity:0.68;}.cu{opacity:0.78;}.cv{opacity:0.8;}.cw{opacity:0.82;}.cx{opacity:0.79;}.cy{opacity:0.59;}.cz{opacity:0.75;}.da{opacity:0.79;}.db{opacity:0.85;}.dc{opacity:0.55;}.dd{opacity:0.71;}.de{opacity:0.52;}.df{opacity:0.84;}.dg{opacity:0.63;}.dh{opacity:0.69;}.di{opacity:0.68;}.dj{opacity:0.54;}.dk{opacity:0.76;}.dl{opacity:0.73;}.dm{opacity:0.6;}.dn{opacity:0.73;}.do{opacity:0.82;}.dp{opacity:0.8;}.dq{opacity:0.53;}.dr{opacity:0.77;}.ds{opacity:0.65;}.dt{opacity:0.72;}.du{opacity:0.6;}.dv{opacity:0.75;}.dw{opacity:0.57;}.dx{opacity:0.9;}.dy{opacity:0.52;}.dz{opacity:0.76;}.ea{opacity:0.64;}.eb{opacity:0.72;}.ec{opacity:0.72;}.ed{opacity:0.81;}.ee{opacity:0.6;}.ef{opacity:0.51;}.eg{opacity:0.76;}.eh{opacity:0.77;}.ei{opacity:0.83;}.ej{opacity:0.95;}.ek{opacity:0.95;}.el{opacity:0.92;}.em{opacity:0.78;}.en{opacity:0.61;}.eo{opacity:0.9;}.ep{opacity:0.53;}.eq{opacity:0.55;}.er{opacity:0.91;}.es{opacity:0.72;}.et{opacity:0.67;}.eu{opacity:0.61;}.ev{opacity:0.67;}.ew{opacity:0.81;}.ex{opacity:0.92;}.ey{opacity:0.65;}.ez{opacity:0.53;}.fa{opacity:0.6;}.fb{opacity:0.63;}.fc{opacity:0.91;}.fd{opacity:0.64;}.fe{opacity:0.68;}.ff{opacity:0.73;}.fg{opacity:0.57;}</style></defs><title>bigstars</title><g class="a"><g class="b"><path class="c" d="M655.77,3023.09a3.14,3.14,0,0,1-.59-4.35,3.05,3.05,0,0,1,4.31-.49,3.13,3.13,0,0,1,.58,4.34A3,3,0,0,1,655.77,3023.09Z"/><path class="d" d="M413.52,2259a2.52,2.52,0,0,1-.48-3.5,2.46,2.46,0,0,1,3.47-.41,2.53,2.53,0,0,1,.47,3.51A2.45,2.45,0,0,1,413.52,2259Z"/><path class="e" d="M222,4671.94a2.94,2.94,0,0,1-.55-4.1,2.86,2.86,0,0,1,4.06-.47,2.94,2.94,0,0,1,.54,4.09A2.85,2.85,0,0,1,222,4671.94Z"/><path class="f" d="M799.54,4324a3.22,3.22,0,0,1-.6-4.48,3.12,3.12,0,0,1,4.43-.52,3.21,3.21,0,0,1,.6,4.47A3.13,3.13,0,0,1,799.54,4324Z"/><path class="g" d="M478.41,3084.47a9.6,9.6,0,0,1-11.14-7.48,9.26,9.26,0,0,1,7.21-11.09,9.61,9.61,0,0,1,11.14,7.48A9.27,9.27,0,0,1,478.41,3084.47Z"/><path class="h" d="M388,1535.3a1.79,1.79,0,0,1-.34-2.47,1.74,1.74,0,0,1,2.45-.29,1.78,1.78,0,0,1,.33,2.47A1.72,1.72,0,0,1,388,1535.3Z"/><path class="i" d="M1002.05,2747.58a2.38,2.38,0,0,1-.46-3.29,2.32,2.32,0,0,1,3.27-.37,2.37,2.37,0,0,1,.44,3.29A2.3,2.3,0,0,1,1002.05,2747.58Z"/><path class="j" d="M1064.75,4844.58a2.44,2.44,0,0,1-.46-3.4,2.39,2.39,0,0,1,3.37-.4,2.45,2.45,0,0,1,.45,3.4A2.36,2.36,0,0,1,1064.75,4844.58Z"/><path class="k" d="M719.36,2069.14a2.38,2.38,0,0,1-.45-3.3,2.3,2.3,0,0,1,3.26-.38,2.37,2.37,0,0,1,.45,3.29A2.3,2.3,0,0,1,719.36,2069.14Z"/><path class="l" d="M92.08,3840.34a2.24,2.24,0,0,1-.41-3.12,2.18,2.18,0,0,1,3.08-.36,2.23,2.23,0,0,1,.41,3.11A2.17,2.17,0,0,1,92.08,3840.34Z"/><path class="m" d="M128.52,3337.26a2.36,2.36,0,0,1-.44-3.28,2.28,2.28,0,0,1,3.23-.37,2.34,2.34,0,0,1,.45,3.26A2.3,2.3,0,0,1,128.52,3337.26Z"/><path class="n" d="M1372.25,402.91a2.37,2.37,0,0,1-.44-3.3,2.31,2.31,0,0,1,3.26-.38,2.38,2.38,0,0,1,.45,3.3A2.29,2.29,0,0,1,1372.25,402.91Z"/><path class="o" d="M963.9,4738.4a2.53,2.53,0,0,1-.48-3.51,2.46,2.46,0,0,1,3.48-.41,2.53,2.53,0,0,1,.47,3.52A2.45,2.45,0,0,1,963.9,4738.4Z"/><path class="p" d="M1229.52,2149.42a2.76,2.76,0,0,1-.51-3.82,2.67,2.67,0,0,1,3.78-.44,2.75,2.75,0,0,1,.51,3.81A2.67,2.67,0,0,1,1229.52,2149.42Z"/><path class="q" d="M667.41,253.19a2.48,2.48,0,0,1-.46-3.45,2.39,2.39,0,0,1,3.4-.4,2.48,2.48,0,0,1,.48,3.45A2.42,2.42,0,0,1,667.41,253.19Z"/><path class="r" d="M216.34,4086.77a1.52,1.52,0,0,0-2.15.24,1.55,1.55,0,0,0,.32,2.16,1.5,1.5,0,0,0,2.14-.24A1.55,1.55,0,0,0,216.34,4086.77Z"/><path class="s" d="M373.7,3779.68a2.3,2.3,0,0,0-3.25.4,2.36,2.36,0,0,0,.45,3.26,2.26,2.26,0,0,0,3.22-.37A2.36,2.36,0,0,0,373.7,3779.68Z"/><path class="t" d="M1095.5,5011.33a2.09,2.09,0,0,0-2.92.35,2.12,2.12,0,0,0,.39,3,2.06,2.06,0,0,0,2.93-.34A2.15,2.15,0,0,0,1095.5,5011.33Z"/><path class="u" d="M1427.3,4988.63a2.87,2.87,0,0,0-4.07.51,3,3,0,0,0,.54,4.1,2.88,2.88,0,0,0,4.07-.48A3,3,0,0,0,1427.3,4988.63Z"/><path class="v" d="M1160.84,2986.56a1.74,1.74,0,0,0-2.48.31,1.78,1.78,0,0,0,.33,2.49,1.76,1.76,0,0,0,2.51-.26A1.81,1.81,0,0,0,1160.84,2986.56Z"/><path class="w" d="M1001.38,2764a3.28,3.28,0,0,0,0,5.2Z"/><path class="x" d="M993.17,3901.57a1.58,1.58,0,0,0-2.24.24,1.64,1.64,0,0,0,.3,2.29,1.59,1.59,0,0,0,2.24-.29A1.63,1.63,0,0,0,993.17,3901.57Z"/><path class="y" d="M1570.17,4091.78a1.83,1.83,0,0,0-2.59.29,1.9,1.9,0,0,0,.34,2.64,1.84,1.84,0,0,0,2.63-.31A1.88,1.88,0,0,0,1570.17,4091.78Z"/><path class="z" d="M991.84,3698.27a1.93,1.93,0,0,0-2.76.32,2,2,0,0,0,.38,2.78,1.93,1.93,0,0,0,2.75-.32A2,2,0,0,0,991.84,3698.27Z"/><path class="aa" d="M197.54,1315.15a2.51,2.51,0,0,0-3.57.44,2.61,2.61,0,0,0,.48,3.59,2.53,2.53,0,0,0,3.57-.41A2.59,2.59,0,0,0,197.54,1315.15Z"/><path class="ab" d="M380.6,1138.23a2.23,2.23,0,0,0-3.21.34,2.34,2.34,0,0,0,.44,3.27,2.25,2.25,0,0,0,3.21-.4A2.29,2.29,0,0,0,380.6,1138.23Z"/><path class="ac" d="M1331.78,1775.94a2.11,2.11,0,0,0-3,.34,2.19,2.19,0,0,0,.42,3,2.14,2.14,0,0,0,3-.35A2.19,2.19,0,0,0,1331.78,1775.94Z"/><path class="ad" d="M619.89,792a2.17,2.17,0,0,0-3.09.38,2.23,2.23,0,0,0,.42,3.1,2.15,2.15,0,0,0,3.09-.34A2.24,2.24,0,0,0,619.89,792Z"/><path class="ae" d="M465.86,1981.1a2.25,2.25,0,0,0-3.17.36,2.33,2.33,0,0,0,.43,3.22,2.23,2.23,0,0,0,3.16-.41A2.3,2.3,0,0,0,465.86,1981.1Z"/><path class="af" d="M1423,804.39a2,2,0,0,0-2.82.35,2.05,2.05,0,0,0,.38,2.84,2,2,0,0,0,2.84-.31A2.05,2.05,0,0,0,1423,804.39Z"/><path class="ag" d="M320.26,4407.17a2.15,2.15,0,0,0-3.06.35,2.22,2.22,0,0,0,3.49,2.73A2.26,2.26,0,0,0,320.26,4407.17Z"/><path class="ah" d="M1399.18,2822.88a2.11,2.11,0,0,0-3,.34,2.23,2.23,0,0,0,.39,3.06,2.14,2.14,0,1,0,2.6-3.4Z"/><path class="ai" d="M1374.29,2194.29a5.43,5.43,0,0,0-7.75.89,5.63,5.63,0,0,0,1.08,7.81,5.43,5.43,0,0,0,7.7-.91A5.56,5.56,0,0,0,1374.29,2194.29Z"/><path class="aj" d="M1159.37,3708.09a1.23,1.23,0,0,1-1.32-1.09,1.17,1.17,0,0,1,1.06-1.31,1.22,1.22,0,0,1,1.32,1.09A1.18,1.18,0,0,1,1159.37,3708.09Z"/><path class="ak" d="M1484.65,4946.31a1.53,1.53,0,0,1-1.65-1.37,1.47,1.47,0,0,1,1.32-1.64,1.54,1.54,0,0,1,1.66,1.37A1.46,1.46,0,0,1,1484.65,4946.31Z"/><path class="al" d="M663.51,1293.32a1.33,1.33,0,0,1-1.44-1.19,1.29,1.29,0,0,1,1.16-1.44,1.35,1.35,0,0,1,1.45,1.2A1.29,1.29,0,0,1,663.51,1293.32Z"/><path class="am" d="M831.1,1599.37a1.25,1.25,0,0,1-1.35-1.11,1.2,1.2,0,0,1,1.08-1.34,1.25,1.25,0,0,1,1.35,1.11A1.2,1.2,0,0,1,831.1,1599.37Z"/><path class="an" d="M59,1133.32a1.56,1.56,0,0,1-1.68-1.39,1.51,1.51,0,0,1,1.35-1.67,1.55,1.55,0,0,1,1.68,1.39A1.5,1.5,0,0,1,59,1133.32Z"/><path class="ao" d="M1261.7,3367.63a1.64,1.64,0,0,1-1.76-1.46,1.57,1.57,0,0,1,1.41-1.74,1.63,1.63,0,0,1,1.75,1.46A1.56,1.56,0,0,1,1261.7,3367.63Z"/><path class="ap" d="M189.28,2443.61a1.71,1.71,0,0,1-1.83-1.52,1.63,1.63,0,0,1,1.46-1.82,1.7,1.7,0,0,1,1.83,1.52A1.64,1.64,0,0,1,189.28,2443.61Z"/><path class="aq" d="M454.67,1603.46a1.94,1.94,0,0,1-2.08-1.73,1.84,1.84,0,0,1,1.67-2.06,1.92,1.92,0,0,1,2.08,1.72A1.86,1.86,0,0,1,454.67,1603.46Z"/><path class="ar" d="M592.63,3221.35a1.59,1.59,0,0,1-1.7-1.42,1.51,1.51,0,0,1,1.37-1.69,1.59,1.59,0,0,1,1.71,1.41A1.53,1.53,0,0,1,592.63,3221.35Z"/><path class="as" d="M247.33,1528.89a1.35,1.35,0,0,1-1.47-1.22,1.31,1.31,0,0,1,1.18-1.46,1.35,1.35,0,0,1,1.47,1.22A1.3,1.3,0,0,1,247.33,1528.89Z"/><path class="at" d="M566.86,1548.29a1.68,1.68,0,0,1-1.79-1.49,1.6,1.6,0,0,1,1.44-1.77,1.67,1.67,0,0,1,1.79,1.48A1.6,1.6,0,0,1,566.86,1548.29Z"/><path class="au" d="M657.21,1833.64a1.15,1.15,0,0,1-1.23-1,1.08,1.08,0,0,1,1-1.21,1.14,1.14,0,0,1,1.23,1A1.09,1.09,0,0,1,657.21,1833.64Z"/><path class="av" d="M713.49,3057.22a1.71,1.71,0,0,1-1.85-1.53,1.64,1.64,0,0,1,1.49-1.83,1.7,1.7,0,0,1,1.84,1.52A1.64,1.64,0,0,1,713.49,3057.22Z"/><path class="aw" d="M136.88,915.13a2,2,0,0,1-2.14-1.79,1.9,1.9,0,0,1,1.72-2.12,2,2,0,0,1,2.15,1.77A1.93,1.93,0,0,1,136.88,915.13Z"/><path class="ax" d="M158.39,4784.88a3.39,3.39,0,0,1-3.64-3,3.24,3.24,0,0,1,2.92-3.61,3.38,3.38,0,0,1,3.64,3A3.24,3.24,0,0,1,158.39,4784.88Z"/><path class="ay" d="M696.68,4452.19a2.14,2.14,0,0,1-2.3-1.9,2,2,0,0,1,1.85-2.27,2.14,2.14,0,0,1,2.3,1.9A2,2,0,0,1,696.68,4452.19Z"/><path class="az" d="M736.18,932.91a2.55,2.55,0,0,1-2.74-2.28,2.43,2.43,0,0,1,2.2-2.71,2.54,2.54,0,0,1,2.74,2.26A2.45,2.45,0,0,1,736.18,932.91Z"/><path class="ba" d="M1168.29,4400.55a1.9,1.9,0,0,1-2-1.69,1.83,1.83,0,0,1,1.64-2,1.9,1.9,0,0,1,2,1.69A1.81,1.81,0,0,1,1168.29,4400.55Z"/><path class="bb" d="M545.91,4862.77a1.89,1.89,0,0,1-2-1.67,1.8,1.8,0,0,1,1.62-2,1.88,1.88,0,0,1,2,1.67A1.8,1.8,0,0,1,545.91,4862.77Z"/><path class="bc" d="M235.63,3814.09a1.61,1.61,0,0,1-1.74-1.44,1.55,1.55,0,0,1,1.39-1.72,1.61,1.61,0,0,1,1.74,1.44A1.54,1.54,0,0,1,235.63,3814.09Z"/><path class="bd" d="M76,167.57a1.21,1.21,0,0,1-1.3-1.08,1.16,1.16,0,0,1,1-1.3A1.21,1.21,0,0,1,77,166.27,1.17,1.17,0,0,1,76,167.57Z"/><path class="be" d="M416.84,1573.44a3.34,3.34,0,0,1-3.58-3,3.19,3.19,0,0,1,2.87-3.54,3.31,3.31,0,0,1,3.58,3A3.17,3.17,0,0,1,416.84,1573.44Z"/><path class="bf" d="M1441.73,2617.85a2.55,2.55,0,0,1-2.74-2.27,2.46,2.46,0,0,1,2.2-2.72,2.55,2.55,0,0,1,2.74,2.27A2.44,2.44,0,0,1,1441.73,2617.85Z"/><path class="bg" d="M615.05,573.22a1.33,1.33,0,0,1-1.41-1.18,1.26,1.26,0,0,1,1.13-1.4,1.32,1.32,0,0,1,1.41,1.17A1.27,1.27,0,0,1,615.05,573.22Z"/><path class="bh" d="M1623.31,2033.9a2.55,2.55,0,0,1-2.74-2.26,2.44,2.44,0,0,1,2.19-2.7,2.55,2.55,0,0,1,2.74,2.26A2.44,2.44,0,0,1,1623.31,2033.9Z"/><path class="bi" d="M102.09,1315.36a2.42,2.42,0,0,0,2.22,1.75Z"/><path class="bj" d="M1536.22,2393.57a1.52,1.52,0,0,1-1.64-1.36,1.46,1.46,0,0,1,1.32-1.62,1.51,1.51,0,0,1,1.63,1.35A1.47,1.47,0,0,1,1536.22,2393.57Z"/><path class="bk" d="M1288.24,1633.62a2.22,2.22,0,0,1-2.37-2,2.12,2.12,0,0,1,1.9-2.35,2.2,2.2,0,0,1,2.36,2A2.11,2.11,0,0,1,1288.24,1633.62Z"/><path class="bl" d="M1090.37,1631a2.37,2.37,0,0,1-2.55-2.1,2.28,2.28,0,0,1,2-2.53,2.37,2.37,0,0,1,2.55,2.11A2.26,2.26,0,0,1,1090.37,1631Z"/><path class="bm" d="M1128,1984.17a1.39,1.39,0,0,1-1.5-1.24,1.33,1.33,0,0,1,1.2-1.49,1.39,1.39,0,0,1,1.49,1.24A1.33,1.33,0,0,1,1128,1984.17Z"/><path class="bn" d="M-.58,582.53a1.94,1.94,0,0,1-2.09-1.73A1.86,1.86,0,0,1-1,578.73a1.94,1.94,0,0,1,2.09,1.73A1.85,1.85,0,0,1-.58,582.53Z"/><path class="bo" d="M225.74,1533.3a1.35,1.35,0,0,1-1.46-1.2,1.31,1.31,0,0,1,1.17-1.45,1.36,1.36,0,0,1,1.46,1.21A1.29,1.29,0,0,1,225.74,1533.3Z"/><path class="bp" d="M41.75,2390.87a2.72,2.72,0,0,1-2.93-2.43,2.61,2.61,0,0,1,2.35-2.91A2.72,2.72,0,0,1,44.1,2388,2.61,2.61,0,0,1,41.75,2390.87Z"/><path class="bq" d="M749.47,119.05a2,2,0,0,1-2.1-1.73,1.88,1.88,0,0,1,1.69-2.08,2,2,0,0,1,2.1,1.73A1.87,1.87,0,0,1,749.47,119.05Z"/><path class="br" d="M1534.23,1364.05a1.8,1.8,0,0,1-1.94-1.61,1.71,1.71,0,0,1,1.55-1.91,1.79,1.79,0,0,1,1.94,1.6A1.72,1.72,0,0,1,1534.23,1364.05Z"/><path class="bs" d="M808.66,640.12a2,2,0,0,1-2.14-1.77,1.91,1.91,0,0,1,1.71-2.13,2,2,0,0,1,2.14,1.78A1.91,1.91,0,0,1,808.66,640.12Z"/><path class="bt" d="M1263.76,3162.1a1.36,1.36,0,0,0-.09-.41l-1.92,2.5a1.69,1.69,0,0,0,.32,0A1.89,1.89,0,0,0,1263.76,3162.1Z"/><path class="bu" d="M195.87,2717.53A1.71,1.71,0,0,1,194,2716a1.63,1.63,0,0,1,1.48-1.83,1.7,1.7,0,0,1,1.85,1.53A1.63,1.63,0,0,1,195.87,2717.53Z"/><path class="bv" d="M51.26,2147.88a1.25,1.25,0,0,0-1.12,1.38,1.31,1.31,0,0,0,1.4,1.17,1.26,1.26,0,0,0,1.12-1.4A1.29,1.29,0,0,0,51.26,2147.88Z"/><path class="bw" d="M424.35,4300.84a1.22,1.22,0,0,0-1.09,1.35,1.27,1.27,0,0,0,1.36,1.13,1.2,1.2,0,0,0,1.09-1.35A1.25,1.25,0,0,0,424.35,4300.84Z"/><path class="bx" d="M1532.25,4578.68a2,2,0,0,0-1.79,2.24,2.07,2.07,0,0,0,2.24,1.86,2,2,0,0,0,1.8-2.22A2.1,2.1,0,0,0,1532.25,4578.68Z"/><path class="by" d="M527,4226.43a2.6,2.6,0,0,0-2.35,2.89,2.7,2.7,0,0,0,2.92,2.41,2.58,2.58,0,0,0,2.33-2.89A2.69,2.69,0,0,0,527,4226.43Z"/><path class="bz" d="M1169.49,806.11a1.41,1.41,0,0,0-1.28,1.55,1.48,1.48,0,0,0,1.59,1.33,1.42,1.42,0,0,0,1.28-1.59A1.46,1.46,0,0,0,1169.49,806.11Z"/><path class="ca" d="M618.38,482.4a2.28,2.28,0,0,0-2,2.54,2.35,2.35,0,0,0,2.53,2.09,2.25,2.25,0,0,0,2-2.5A2.36,2.36,0,0,0,618.38,482.4Z"/><path class="cb" d="M1545.53,3353.83a2,2,0,0,0-1.85,2.28,2.15,2.15,0,0,0,2.3,1.93,2.07,2.07,0,0,0,1.86-2.31A2.14,2.14,0,0,0,1545.53,3353.83Z"/><path class="cc" d="M275,3830.16a1.48,1.48,0,0,0-1.32,1.68,1.55,1.55,0,0,0,1.65,1.37,1.49,1.49,0,0,0,1.34-1.64A1.56,1.56,0,0,0,275,3830.16Z"/><path class="cd" d="M1499.23,4119.73a2.37,2.37,0,0,0-2.15,2.65,2.48,2.48,0,0,0,2.67,2.17,2.35,2.35,0,0,0,2.12-2.61A2.45,2.45,0,0,0,1499.23,4119.73Z"/><path class="ce" d="M753.23,2045.4a2.2,2.2,0,0,0-2,2.44,2.31,2.31,0,0,0,2.46,2.06,2.21,2.21,0,0,0,2-2.46A2.28,2.28,0,0,0,753.23,2045.4Z"/><path class="cf" d="M469.58,2709.23a1.69,1.69,0,0,0-1.5,1.88,1.77,1.77,0,0,0,1.88,1.57,1.68,1.68,0,0,0,1.48-1.88A1.75,1.75,0,0,0,469.58,2709.23Z"/><path class="cg" d="M359.6,166a2.46,2.46,0,0,0-2.23,2.75,2.58,2.58,0,0,0,2.78,2.28,2.47,2.47,0,0,0,2.22-2.73A2.56,2.56,0,0,0,359.6,166Z"/><path class="ch" d="M1389.9,3343.65a1.92,1.92,0,0,0-1.73,2.16,2,2,0,0,0,2.16,1.76,1.92,1.92,0,0,0,1.75-2.12A2,2,0,0,0,1389.9,3343.65Z"/><path class="ci" d="M800,2699.49a1.19,1.19,0,0,0-1.09,1.31,1.26,1.26,0,0,0,1.35,1.12,1.2,1.2,0,0,0,1.06-1.34A1.24,1.24,0,0,0,800,2699.49Z"/><path class="cj" d="M1084.92,1421.24a1.28,1.28,0,0,0-1.15,1.43,1.36,1.36,0,0,0,1.44,1.2,1.3,1.3,0,0,0,1.16-1.43A1.34,1.34,0,0,0,1084.92,1421.24Z"/><path class="ck" d="M374.83,2181a1.62,1.62,0,0,0-1.47,1.82,1.72,1.72,0,0,0,1.84,1.54,1.65,1.65,0,0,0,1.48-1.84A1.71,1.71,0,0,0,374.83,2181Z"/><path class="cl" d="M1605.11,2291.76a1.89,1.89,0,0,0-1.69,2.1,2,2,0,0,0,2.1,1.74,1.87,1.87,0,0,0,1.71-2.08A2,2,0,0,0,1605.11,2291.76Z"/><path class="cm" d="M1000.21,261.58a1.22,1.22,0,0,0-1.1,1.37,1.28,1.28,0,0,0,1.38,1.15,1.25,1.25,0,0,0,1.1-1.38A1.29,1.29,0,0,0,1000.21,261.58Z"/><path class="cn" d="M429.94,3371.22a1.76,1.76,0,0,0-1.55,2,1.8,1.8,0,0,0,1.94,1.62,1.74,1.74,0,0,0,1.59-1.94A1.86,1.86,0,0,0,429.94,3371.22Z"/><path class="co" d="M1525.92,1698.65a1.9,1.9,0,0,0-1.73,2.09,2,2,0,0,0,2.15,1.77,1.88,1.88,0,0,0,1.69-2.12A2,2,0,0,0,1525.92,1698.65Z"/><path class="cp" d="M883.77,766.68A2.08,2.08,0,0,0,881.9,769a2.17,2.17,0,0,0,2.33,1.94,2.09,2.09,0,0,0,1.89-2.33A2.17,2.17,0,0,0,883.77,766.68Z"/><path class="cq" d="M249.86,4077.66a1.81,1.81,0,0,0-1.62,2,1.88,1.88,0,0,0,2,1.69,1.8,1.8,0,0,0,1.61-2A1.87,1.87,0,0,0,249.86,4077.66Z"/><path class="cr" d="M849.26,1703.33a1.74,1.74,0,0,0-1.56,1.93,1.79,1.79,0,0,0,1.94,1.58,1.7,1.7,0,0,0,1.55-1.89A1.81,1.81,0,0,0,849.26,1703.33Z"/><path class="cs" d="M927.91,3734.31a1.89,1.89,0,0,0-1.69,2.12,1.94,1.94,0,0,0,2.11,1.74,1.87,1.87,0,0,0,1.7-2.09A2,2,0,0,0,927.91,3734.31Z"/><path class="ct" d="M599.63,696.81a2.72,2.72,0,0,1-.51-3.77,2.63,2.63,0,0,1,3.73-.43,2.7,2.7,0,0,1,.51,3.76A2.63,2.63,0,0,1,599.63,696.81Z"/><path class="cu" d="M878.32,3308.81a1.72,1.72,0,0,1-.32-2.4,1.67,1.67,0,0,1,2.37-.28,1.72,1.72,0,0,1,.33,2.4A1.68,1.68,0,0,1,878.32,3308.81Z"/><path class="cv" d="M1156.2,2974.38a2.9,2.9,0,0,1-.54-4,2.82,2.82,0,0,1,4-.47,2.91,2.91,0,0,1,.55,4A2.82,2.82,0,0,1,1156.2,2974.38Z"/><path class="cw" d="M1543.06,2985a3,3,0,0,1-.55-4.13,2.87,2.87,0,0,1,4.09-.48,3,3,0,0,1,.56,4.13A2.9,2.9,0,0,1,1543.06,2985Z"/><path class="cx" d="M519.93,952.83a3.71,3.71,0,0,0-3.58,1.38,3.8,3.8,0,0,0-.43,3.85Z"/><path class="cy" d="M151.78,2129.89a2.41,2.41,0,0,1-.45-3.34,2.34,2.34,0,0,1,3.31-.39,2.41,2.41,0,0,1,.45,3.35A2.33,2.33,0,0,1,151.78,2129.89Z"/><path class="cz" d="M347.1,2605.24a3.6,3.6,0,0,1-.67-5,3.49,3.49,0,0,1,4.93-.57,3.59,3.59,0,0,1,.68,5A3.48,3.48,0,0,1,347.1,2605.24Z"/><path class="da" d="M1062.22,2931.09a3.57,3.57,0,0,1-.67-5,3.45,3.45,0,0,1,4.9-.57,3.57,3.57,0,0,1,.68,4.95A3.46,3.46,0,0,1,1062.22,2931.09Z"/><path class="db" d="M445.81,1988.08a2.81,2.81,0,0,1-.52-3.89,2.7,2.7,0,0,1,3.84-.45,2.79,2.79,0,0,1,.53,3.88A2.73,2.73,0,0,1,445.81,1988.08Z"/><path class="dc" d="M1330.76,1446.69a3.2,3.2,0,0,1-.59-4.43,3.11,3.11,0,0,1,4.39-.51,3.2,3.2,0,0,1,.59,4.43A3.09,3.09,0,0,1,1330.76,1446.69Z"/><path class="dd" d="M903.13,4094.11a3.12,3.12,0,0,1-.59-4.33,3,3,0,0,1,4.29-.5,3.11,3.11,0,0,1,.58,4.33A3,3,0,0,1,903.13,4094.11Z"/><path class="de" d="M20.31,4823.69a4,4,0,0,1-.73-5.49,3.84,3.84,0,0,1,5.43-.64,4,4,0,0,1,.74,5.5A3.83,3.83,0,0,1,20.31,4823.69Z"/><path class="df" d="M1633.94,4114.2a1.79,1.79,0,0,1-.34-2.47,1.74,1.74,0,0,1,2.45-.29,1.79,1.79,0,0,1,.34,2.47A1.74,1.74,0,0,1,1633.94,4114.2Z"/><path class="dg" d="M1283.24,2426.58l.12-.12a2.37,2.37,0,0,0-.44-3.3,2.32,2.32,0,0,0-2.24-.36Z"/><path class="dh" d="M654.86,1189.5a2.83,2.83,0,0,1-.53-3.92,2.75,2.75,0,0,1,3.88-.45,2.82,2.82,0,0,1,.53,3.92A2.73,2.73,0,0,1,654.86,1189.5Z"/><path class="di" d="M1128,1151.77a2.73,2.73,0,0,1-.51-3.8,2.65,2.65,0,0,1,3.75-.44,2.73,2.73,0,0,1,.52,3.8A2.65,2.65,0,0,1,1128,1151.77Z"/><path class="dj" d="M1549.7,3523.42a2.77,2.77,0,0,1-.51-3.85,2.7,2.7,0,0,1,3.81-.45,2.77,2.77,0,0,1,.52,3.85A2.69,2.69,0,0,1,1549.7,3523.42Z"/><path class="dk" d="M1275.52,819.49a2.6,2.6,0,0,1-.49-3.59,2.53,2.53,0,0,1,3.56-.41,2.59,2.59,0,0,1,.48,3.59A2.51,2.51,0,0,1,1275.52,819.49Z"/><path class="dl" d="M206.7,2755.68a1.47,1.47,0,0,0-2.09.24,1.51,1.51,0,0,0,.29,2.11,1.48,1.48,0,0,0,2.08-.24A1.52,1.52,0,0,0,206.7,2755.68Z"/><path class="dm" d="M399.91,2393.8a1.92,1.92,0,0,0-2.77.32,2,2,0,0,0,.38,2.79,2,2,0,0,0,2.74-.33A2,2,0,0,0,399.91,2393.8Z"/><path class="dn" d="M1494.16,5010.91a1.85,1.85,0,0,0-2.62.27,1.93,1.93,0,0,0,.37,2.68,1.86,1.86,0,0,0,2.62-.33A1.89,1.89,0,0,0,1494.16,5010.91Z"/><path class="do" d="M1473.2,4519.19a1.6,1.6,0,0,0-2.28.25,1.65,1.65,0,0,0,.31,2.31,1.59,1.59,0,0,0,2.28-.27A1.63,1.63,0,0,0,1473.2,4519.19Z"/><path class="dp" d="M1626.33,497.38a1.84,1.84,0,0,0-2.6.31,1.9,1.9,0,0,0,.36,2.62,1.82,1.82,0,0,0,2.59-.3A1.88,1.88,0,0,0,1626.33,497.38Z"/><path class="dq" d="M992.32,4586.45a3.15,3.15,0,0,0-4.45.52,3.27,3.27,0,0,0,.6,4.51,3.14,3.14,0,0,0,4.45-.54A3.22,3.22,0,0,0,992.32,4586.45Z"/><path class="dr" d="M422.3,3642.69a3.27,3.27,0,0,0-4.64.54,3.37,3.37,0,0,0,.64,4.68,3.24,3.24,0,0,0,4.61-.54A3.35,3.35,0,0,0,422.3,3642.69Z"/><path class="ds" d="M898.35,1002.88a1.74,1.74,0,0,0-2.45.31,1.78,1.78,0,0,0,.33,2.46,1.72,1.72,0,0,0,2.44-.28A1.79,1.79,0,0,0,898.35,1002.88Z"/><path class="dt" d="M1350.46,4313.48a2.07,2.07,0,0,0-2.91.35,2.12,2.12,0,0,0,.39,2.95,2.06,2.06,0,0,0,2.91-.36A2.12,2.12,0,0,0,1350.46,4313.48Z"/><path class="du" d="M287.36,4651.34a2.31,2.31,0,0,0-3.29.37,2.4,2.4,0,0,0,.44,3.34,2.31,2.31,0,0,0,3.3-.4A2.36,2.36,0,0,0,287.36,4651.34Z"/><path class="dv" d="M1357,268.43a1.45,1.45,0,0,0-2.06.23,1.53,1.53,0,0,0,.27,2.11,1.5,1.5,0,0,0,2.08-.25A1.52,1.52,0,0,0,1357,268.43Z"/><path class="dw" d="M1529.55,289.92a2.08,2.08,0,0,0-2.93.33,2.14,2.14,0,0,0,.4,3,2.06,2.06,0,0,0,2.94-.33A2.13,2.13,0,0,0,1529.55,289.92Z"/><path class="dx" d="M40.61,655.91a7.94,7.94,0,0,1-9.87-5.14,7.7,7.7,0,0,1,4.9-9.83,7.91,7.91,0,0,1,9.87,5.12A7.72,7.72,0,0,1,40.61,655.91Z"/><path class="dy" d="M98.78,5026a8.52,8.52,0,0,0-5.41,10.85,8.72,8.72,0,0,0,10.87,5.61,8.44,8.44,0,0,0,5.37-10.8A8.71,8.71,0,0,0,98.78,5026Z"/><path class="dz" d="M503.09,1027.11a2.42,2.42,0,0,0-3.44.39,2.49,2.49,0,0,0,.47,3.48,2.41,2.41,0,0,0,3.44-.4A2.49,2.49,0,0,0,503.09,1027.11Z"/><path class="ea" d="M1171.25,3426.44a1.58,1.58,0,0,0-2.24.23,1.64,1.64,0,0,0,.3,2.29,1.58,1.58,0,0,0,2.24-.29A1.62,1.62,0,0,0,1171.25,3426.44Z"/><path class="eb" d="M320.09,3329.81a2.77,2.77,0,0,0-3.92.46,2.87,2.87,0,0,0,.54,3.95,2.76,2.76,0,0,0,3.9-.46A2.82,2.82,0,0,0,320.09,3329.81Z"/><path class="ec" d="M1555,912.28a2.17,2.17,0,0,0-3.09.36,2.26,2.26,0,0,0,.41,3.14,2.19,2.19,0,0,0,3.1-.38A2.24,2.24,0,0,0,1555,912.28Z"/><path class="ed" d="M1286.16,2232a1.94,1.94,0,0,0-2.75.32,2,2,0,0,0,.37,2.78,1.94,1.94,0,0,0,2.76-.31A2,2,0,0,0,1286.16,2232Z"/><path class="ee" d="M1067.11,4928.71a2.61,2.61,0,0,0-3.73.45,2.73,2.73,0,0,0,.49,3.79,2.65,2.65,0,0,0,3.76-.45A2.71,2.71,0,0,0,1067.11,4928.71Z"/><path class="ef" d="M586.37,102.08a1.93,1.93,0,0,0-2.76.32,2,2,0,0,0,.38,2.78,1.94,1.94,0,0,0,2.75-.31A2,2,0,0,0,586.37,102.08Z"/><path class="eg" d="M1381.71,2230.12a2,2,0,0,0-2.8.34,2,2,0,0,0,.38,2.83,2,2,0,0,0,2.81-.32A2.08,2.08,0,0,0,1381.71,2230.12Z"/><path class="eh" d="M333.76,410.2a1.88,1.88,0,0,0-2.66.32,2,2,0,0,0,.35,2.7,1.88,1.88,0,0,0,2.67-.32A1.93,1.93,0,0,0,333.76,410.2Z"/><path class="ei" d="M1175.17,598.16a2.16,2.16,0,0,0-3.07.35,2.23,2.23,0,0,0,.42,3.11,2.17,2.17,0,0,0,3.07-.36A2.24,2.24,0,0,0,1175.17,598.16Z"/><path class="ej" d="M607.79,2143.87l2.09,3.09a2.25,2.25,0,0,0,1.91-.89,2.28,2.28,0,0,0-.45-3.21,2.2,2.2,0,0,0-3.55,1Z"/><path class="ek" d="M131.91,13.8a2.1,2.1,0,0,0-3,.34,2.2,2.2,0,0,0,.42,3.05,2.15,2.15,0,0,0,3-.35A2.2,2.2,0,0,0,131.91,13.8Z"/><path class="el" d="M677.16,3266.14a2.53,2.53,0,0,1-2.73-2.25,2.43,2.43,0,0,1,2.19-2.69,2.52,2.52,0,0,1,2.71,2.25A2.42,2.42,0,0,1,677.16,3266.14Z"/><path class="em" d="M458.1,4970.71a2.81,2.81,0,0,1-3-2.51,2.7,2.7,0,0,1,2.43-3,2.84,2.84,0,0,1,3,2.51A2.7,2.7,0,0,1,458.1,4970.71Z"/><path class="en" d="M782.5,4853.79a2.13,2.13,0,0,1-2.31-1.91,2.05,2.05,0,0,1,1.85-2.28,2.14,2.14,0,0,1,2.32,1.91A2.05,2.05,0,0,1,782.5,4853.79Z"/><path class="eo" d="M1174.31,1998.84a2.18,2.18,0,0,1-2.36-1.94,2.09,2.09,0,0,1,1.89-2.33,2.2,2.2,0,0,1,2.36,1.94A2.09,2.09,0,0,1,1174.31,1998.84Z"/><path class="ep" d="M161,4674.33a1.84,1.84,0,0,1-2-1.64,1.77,1.77,0,0,1,1.59-2,1.84,1.84,0,0,1,2,1.65A1.76,1.76,0,0,1,161,4674.33Z"/><path class="eq" d="M339,1539.63a3.3,3.3,0,0,1-3.55-2.94,3.16,3.16,0,0,1,2.84-3.51,3.29,3.29,0,0,1,3.55,2.93A3.17,3.17,0,0,1,339,1539.63Z"/><path class="er" d="M743.15,913.36a2.68,2.68,0,0,0-3.81.41,2.8,2.8,0,0,0,.51,3.89,2.7,2.7,0,0,0,3.83-.47A2.74,2.74,0,0,0,743.15,913.36Z"/><path class="es" d="M106.56,3252.39a1.72,1.72,0,0,1-1.84-1.53,1.65,1.65,0,0,1,1.48-1.84,1.71,1.71,0,0,1,1.85,1.53A1.64,1.64,0,0,1,106.56,3252.39Z"/><path class="et" d="M1236.23,3449.53a1.69,1.69,0,0,1-1.81-1.5,1.6,1.6,0,0,1,1.45-1.79,1.67,1.67,0,0,1,1.81,1.49A1.62,1.62,0,0,1,1236.23,3449.53Z"/><path class="eu" d="M471.76,3478.32a2.41,2.41,0,0,1-.45-3.33,2.33,2.33,0,0,1,3.29-.38,2.39,2.39,0,0,1,.45,3.32A2.33,2.33,0,0,1,471.76,3478.32Z"/><path class="ev" d="M400.41,227.8a2.89,2.89,0,0,1-.54-4,2.79,2.79,0,0,1,4-.46,2.87,2.87,0,0,1,.54,4A2.8,2.8,0,0,1,400.41,227.8Z"/><path class="ew" d="M277.18,4841.74a2.83,2.83,0,0,0-4,.46,2.94,2.94,0,0,0,.55,4.07,2.85,2.85,0,0,0,4-.46A2.9,2.9,0,0,0,277.18,4841.74Z"/><path class="ex" d="M986.62,309.7a2.86,2.86,0,0,1-.54-4,2.78,2.78,0,0,1,3.92-.46,2.85,2.85,0,0,1,.53,4A2.76,2.76,0,0,1,986.62,309.7Z"/><path class="ey" d="M427.3,1036.59a1.84,1.84,0,0,0-2.59.32,1.89,1.89,0,0,0,.36,2.59,1.81,1.81,0,0,0,2.58-.28A1.88,1.88,0,0,0,427.3,1036.59Z"/><path class="ez" d="M1.53,20a1.9,1.9,0,0,0-2.68.3,2,2,0,0,0,.37,2.72,1.89,1.89,0,0,0,2.69-.32A1.94,1.94,0,0,0,1.53,20Z"/><path class="fa" d="M1480.81,1055.59a2.38,2.38,0,0,0-3.32.37,2.41,2.41,0,0,0,.45,3.37,2.32,2.32,0,0,0,3.31-.4A2.43,2.43,0,0,0,1480.81,1055.59Z"/><path class="fb" d="M1501.32,1484.49a2.13,2.13,0,0,0-3,.3,2.22,2.22,0,0,0,.42,3.07,2.13,2.13,0,0,0,3-.38A2.17,2.17,0,0,0,1501.32,1484.49Z"/><path class="fc" d="M1203.12,2429.59a2.9,2.9,0,0,0-4.13.47,3,3,0,0,0,.56,4.19,2.9,2.9,0,0,0,4.14-.49A3,3,0,0,0,1203.12,2429.59Z"/><path class="fd" d="M1137.15,1574.29a3.11,3.11,0,0,0-4.41.52,3.21,3.21,0,0,0,.58,4.48,3.14,3.14,0,0,0,4.45-.53A3.23,3.23,0,0,0,1137.15,1574.29Z"/><path class="fe" d="M1315.15,1878.11a2.59,2.59,0,0,0-3.72.43,2.71,2.71,0,0,0,.5,3.78,2.65,2.65,0,0,0,3.75-.43A2.69,2.69,0,0,0,1315.15,1878.11Z"/><path class="ff" d="M769.49,1380.15a2.71,2.71,0,0,0-3.87.45,2.8,2.8,0,0,0,.54,3.9,2.74,2.74,0,0,0,3.88-.43A2.83,2.83,0,0,0,769.49,1380.15Z"/><path class="fg" d="M1344.34,1634.93a9,9,0,0,0-.32,6.5,9.14,9.14,0,0,0,9,6.28Z"/></g></g></svg>