<svg id="Layer_1" data-name="Layer 1" xmlns="http://www.w3.org/2000/svg" viewBox="0 0 62 62"><defs><style>.cls-1{fill:#4cc3c8;}.cls-2{fill:#fff;}</style></defs><title>CC</title><path class="cls-1" d="M25.54,17.26a1.42,1.42,0,0,0,.13.12l.15.08.17,0a.55.55,0,0,0,.18,0,.5.5,0,0,0,.17,0l.17,0,.15-.08a.5.5,0,0,0,.13-.12A.76.76,0,0,0,27,17a1.09,1.09,0,0,0,.07-.35,1,1,0,0,0-.07-.34.69.69,0,0,0-.2-.28.91.91,0,0,0-1.25,0,1,1,0,0,0-.2.28,1,1,0,0,0-.06.34,1.07,1.07,0,0,0,.06.35A1.1,1.1,0,0,0,25.54,17.26Z"/><path class="cls-1" d="M15.44,16a.93.93,0,0,0-1.26,0,.77.77,0,0,0-.19.28.8.8,0,0,0-.07.34.88.88,0,0,0,.26.63.81.81,0,0,0,.14.12l.15.08.17,0a.47.47,0,0,0,.17,0,.58.58,0,0,0,.18,0l.17,0a.71.71,0,0,1,.15-.08,1.42,1.42,0,0,0,.13-.12,1.1,1.1,0,0,0,.2-.28,1.07,1.07,0,0,0,.06-.35,1,1,0,0,0-.06-.34A1,1,0,0,0,15.44,16Z"/><path class="cls-1" d="M20.74,22.15,20.61,22a.6.6,0,0,0-.16-.08.52.52,0,0,0-.16-.06.92.92,0,0,0-.52.06.85.85,0,0,0-.29.19.92.92,0,0,0-.26.63.89.89,0,0,0,.89.89l.18,0,.16,0,.16-.08.13-.11a.94.94,0,0,0,.26-.63.8.8,0,0,0-.07-.34A.81.81,0,0,0,20.74,22.15Z"/><path class="cls-1" d="M26.17,23.67h6.5a.89.89,0,0,0,0-1.78h-6.5a.89.89,0,0,0,0,1.78Z"/><path class="cls-1" d="M45.52,40.58a.93.93,0,0,0-1.26,0,1,1,0,0,0-.2.3.93.93,0,0,0-.07.33.91.91,0,0,0,.27.64.85.85,0,0,0,.62.26.9.9,0,0,0,.64-.26.93.93,0,0,0,.25-.64.75.75,0,0,0-.06-.33A.85.85,0,0,0,45.52,40.58Z"/><path class="cls-1" d="M23.53,52.88a.91.91,0,0,0-1-.2.94.94,0,0,0-.29.2.87.87,0,0,0-.19.28.89.89,0,0,0,0,.69.9.9,0,0,0,1.45.29,1.15,1.15,0,0,0,.2-.29,1.07,1.07,0,0,0,.06-.35.83.83,0,0,0-.07-.34A.87.87,0,0,0,23.53,52.88Z"/><path class="cls-1" d="M12.62,40.32H8.71a.9.9,0,0,0,0,1.79h3.91a.9.9,0,0,0,0-1.79Z"/><path class="cls-1" d="M31.94,40.32H28a.9.9,0,1,0,0,1.79h3.9a.9.9,0,0,0,0-1.79Z"/><path class="cls-1" d="M36.08,37.81H33c1.6.75,2.77,2,2.77,3.31,0,2-2.87,4-5.79,4s-5.79-2-5.79-4c0-1.28,1.16-2.56,2.77-3.31H23.9a4.75,4.75,0,0,0-1.49,3.31c0,3.32,4,5.8,7.58,5.8s7.57-2.48,7.57-5.8A4.74,4.74,0,0,0,36.08,37.81Z"/><path class="cls-1" d="M54.49,28H44v1.78H54.49a.89.89,0,1,0,0-1.78Z"/><path class="cls-1" d="M61,31a29.78,29.78,0,0,0-3.85-14.68.83.83,0,0,0-.09-.16A30,30,0,0,0,9.78,9.82a.46.46,0,0,0-.12.12,30,30,0,0,0-7.4,12.48l0,.08A30,30,0,0,0,31,61a29.88,29.88,0,0,0,19-6.81l.1-.08a30.11,30.11,0,0,0,9-12.52l0-.08a29.19,29.19,0,0,0,1.62-6.42h0A30.61,30.61,0,0,0,61,31ZM49.12,52.61H37.86a.9.9,0,0,0,0,1.79h8.9a28.18,28.18,0,0,1-31.52,0H18.4a.9.9,0,0,0,0-1.79h-5a1,1,0,0,0-.37.09,28.56,28.56,0,0,1-4.31-4.48h11.5a6.13,6.13,0,0,1,3.41,1,12.25,12.25,0,0,0,6.7,2.17,11.34,11.34,0,0,0,6.54-2.18,5.94,5.94,0,0,1,3.4-1H53.34A28.35,28.35,0,0,1,49.12,52.61ZM59,34.19H44V36H58.77a28.35,28.35,0,0,1-1.14,4.35H49.46a.9.9,0,0,0,0,1.79h7.48a29,29,0,0,1-2.33,4.32H40.22a7.79,7.79,0,0,0-4.42,1.35,9.55,9.55,0,0,1-11.23,0,7.91,7.91,0,0,0-4.4-1.34H7.4A28,28,0,0,1,3.23,36H18V34.18H3A28,28,0,0,1,2.78,31c0-.4,0-.79,0-1.19H18V28H2.94a28.43,28.43,0,0,1,.81-4.36H14.81a.89.89,0,0,0,0-1.78H4.3a28.1,28.1,0,0,1,6.45-10.51H23.3a.89.89,0,1,0,0-1.78H12.64a28.12,28.12,0,0,1,36.72,0H31.92a.89.89,0,0,0,0,1.78H51.25a28.15,28.15,0,0,1,3.47,4.36H31.3a.89.89,0,0,0,0,1.78H55.79a28.9,28.9,0,0,1,1.91,4.37H43.18a.89.89,0,0,0,0,1.78H58.25A27.77,27.77,0,0,1,59,34.19Z"/><path class="cls-2" d="M25,25.24a5.23,5.23,0,0,1,5.49,4.46H26.78A1.93,1.93,0,0,0,25,28.52c-1.2,0-1.94,1-1.94,2.48s.74,2.48,1.94,2.48a1.93,1.93,0,0,0,1.81-1.18h3.74A5.23,5.23,0,0,1,25,36.76c-3.47,0-5.6-2.38-5.6-5.76S21.56,25.24,25,25.24Z"/><path class="cls-2" d="M37.08,25.24a5.23,5.23,0,0,1,5.49,4.46H38.82A1.91,1.91,0,0,0,37,28.52c-1.2,0-1.94,1-1.94,2.48s.74,2.48,1.94,2.48a1.91,1.91,0,0,0,1.8-1.18h3.75a5.23,5.23,0,0,1-5.49,4.46c-3.47,0-5.6-2.38-5.6-5.76S33.61,25.24,37.08,25.24Z"/></svg>