<svg id="Layer_1" data-name="Layer 1" xmlns="http://www.w3.org/2000/svg" viewBox="0 0 62 62"><defs><style>.cls-1{fill:#4cc3c8;}.cls-2{fill:#fff;}</style></defs><title>CSS</title><path class="cls-1" d="M36.35,37.81l.13,4.68a1.26,1.26,0,0,1-.22.76c-.29.41-.74.94-1.21,1.5-1.37,1.61-2.79,3.29-2.77,4.66a3.16,3.16,0,0,0,.91,2.1c.18.23.4.51.66.88a.37.37,0,0,1,0,.37.38.38,0,0,1-.28.23l-.48.09a1.52,1.52,0,0,1-1.4-.46l-2.83-2.36a2.88,2.88,0,0,1-.61-1.19l-1-4.23a3,3,0,0,0-2.69-2.28,9.2,9.2,0,0,0-1.88.1,3.33,3.33,0,0,1-2.58-.38c-.66-.43-.66-1-.6-1.92a3,3,0,0,0-.24-1.79,2.56,2.56,0,0,0-.8-.76H14.64a13.41,13.41,0,0,1,3.14,1.64,2.93,2.93,0,0,1,0,.79,3.47,3.47,0,0,0,1.42,3.54,5.09,5.09,0,0,0,3.75.65,8,8,0,0,1,1.56-.09,1.17,1.17,0,0,1,1.07.91l1,4.22a4.56,4.56,0,0,0,1.05,2l2.84,2.37a3.32,3.32,0,0,0,2.4,1,3.15,3.15,0,0,0,.61-.06l.49-.09a2.17,2.17,0,0,0,1.35-3.38c-.28-.4-.52-.7-.71-.94-.5-.65-.53-.71-.53-1,0-.7,1.46-2.44,2.34-3.48.5-.59,1-1.15,1.31-1.63a3,3,0,0,0,.54-1.83l-.13-4.63Z"/><path class="cls-1" d="M13.52,30.37a2,2,0,0,0-.47,1.74,2,2,0,0,0,.77,1.17V30Z"/><path class="cls-1" d="M59.29,21A30,30,0,1,0,41,59.29,30,30,0,0,0,59.29,21ZM44,6a28.3,28.3,0,0,1,7.61,5.77l-4.08,1.44a5.39,5.39,0,0,1-2.64.25l-1.6-.23a3.89,3.89,0,0,0-1.52.07l-3.8.95a.41.41,0,0,1-.32-.06.43.43,0,0,1-.16-.28L37.36,12a.4.4,0,0,1,.22-.37L41,10a4.09,4.09,0,0,0,1.88-1.82ZM31,2.78a28.4,28.4,0,0,1,3.93.29,9.09,9.09,0,0,1-7.6,0A26.84,26.84,0,0,1,31,2.78ZM27.15,58.94a9.07,9.07,0,0,1,7.49,0A28,28,0,0,1,27.15,58.94ZM57.61,40.33l-3.7-2a2.6,2.6,0,0,1-1.34-1.91l-.27-1.88a3.67,3.67,0,0,0-.67-1.66L49.56,30a4.08,4.08,0,0,0-1.38-1.21v2.34l2,2.77a2.13,2.13,0,0,1,.35.87l.27,1.88a4.37,4.37,0,0,0,2.25,3.23L57,42a28.14,28.14,0,0,1-16.57,15.6,28.63,28.63,0,0,1-2.93.85c-.75-.49-7.14-4.43-12.91,0A28.18,28.18,0,0,1,2.83,29.37l5.69,5.75a5,5,0,0,0,2.24,1.31,30.09,30.09,0,0,1,3.06,1v-1.9c-1.12-.41-2.11-.73-2.59-.87a3.3,3.3,0,0,1-1.45-.85L3.07,27.07a28.39,28.39,0,0,1,2.67-8.6l14.85-5.24c.24.1.75.32,1.86.84a.77.77,0,0,1,.43.89l-.46,2a3.23,3.23,0,0,0,.22,2.12,1.5,1.5,0,0,1-.25,1.63l-3.22,3.51h2.42l2.11-2.3a3.27,3.27,0,0,0,.55-3.59,1.44,1.44,0,0,1-.09-1l.46-2a2.58,2.58,0,0,0-1.41-2.92c-2.49-1.16-2.56-1.13-2.94-1L7.05,16.12A27.92,27.92,0,0,1,24.5,3.55a13.5,13.5,0,0,0,6.91,2.11,9.72,9.72,0,0,0,6.08-2.11,29.23,29.23,0,0,1,4.93,1.68L41.31,7.39a2.35,2.35,0,0,1-1.06,1l-3.44,1.64a2.19,2.19,0,0,0-1.23,2.13l.16,1.86a2.12,2.12,0,0,0,.89,1.58,2.15,2.15,0,0,0,1.26.41,2.39,2.39,0,0,0,.53-.06l3.8-1A2.07,2.07,0,0,1,43,15l1.61.24a7.26,7.26,0,0,0,3.49-.34l4.75-1.67a29.47,29.47,0,0,1,1.85,2.54l-7.9,2.78a3.41,3.41,0,0,1-1.82.13,9.09,9.09,0,0,1-1.35-.42,5,5,0,0,0-3.52-.33,12.32,12.32,0,0,0-2.6,1.46,4.5,4.5,0,0,0-1.93,3.95l.05.86h1.78l-.05-1a2.71,2.71,0,0,1,1.16-2.37,11.53,11.53,0,0,1,2.18-1.25,3.37,3.37,0,0,1,2.32.33,11.3,11.3,0,0,0,1.61.49,5.19,5.19,0,0,0,2.76-.2l8.24-2.9a28.77,28.77,0,0,1,1.94,4.29A28.09,28.09,0,0,1,57.61,40.33Z"/><path class="cls-2" d="M21,25.26a5.23,5.23,0,0,1,5.49,4.47H22.79A1.94,1.94,0,0,0,21,28.54c-1.2,0-1.94,1-1.94,2.48s.74,2.49,1.94,2.49a1.94,1.94,0,0,0,1.81-1.19h3.74A5.24,5.24,0,0,1,21,36.79c-3.47,0-5.6-2.39-5.6-5.77S17.57,25.26,21,25.26Z"/><path class="cls-2" d="M32.24,36.82c-2.59,0-4.63-1.2-4.79-3.75h3.78c.07.84.51,1,.87,1s.68-.16.68-.56c0-1.54-5.36-1-5.29-4.85,0-2.27,1.92-3.46,4.33-3.46,2.74,0,4.5,1.31,4.6,3.67H32.59c0-.69-.4-.9-.78-.9s-.51.19-.51.58c0,1.42,5.26,1.18,5.26,4.67C36.56,35.28,35,36.82,32.24,36.82Z"/><path class="cls-2" d="M42.24,36.82c-2.59,0-4.63-1.2-4.79-3.75h3.78c.07.84.51,1,.87,1s.68-.16.68-.56c0-1.54-5.36-1-5.29-4.85,0-2.27,1.92-3.46,4.33-3.46,2.74,0,4.5,1.31,4.6,3.67H42.59c0-.69-.4-.9-.78-.9s-.51.19-.51.58c0,1.42,5.26,1.18,5.26,4.67C46.56,35.28,45,36.82,42.24,36.82Z"/></svg>