<svg id="Layer_1" data-name="Layer 1" xmlns="http://www.w3.org/2000/svg" viewBox="0 0 62 62"><defs><style>.cls-1{fill:#4cc3c8;}.cls-2{fill:#fff;}</style></defs><title>GH</title><path class="cls-1" d="M57.25,16.51a.45.45,0,0,0-.06-.12,31.4,31.4,0,0,0-2.44-3.69,1.09,1.09,0,0,0-.13-.17,30,30,0,0,0-47.24,0,1.09,1.09,0,0,0-.13.17,31.4,31.4,0,0,0-2.44,3.69.45.45,0,0,0-.06.12A29.93,29.93,0,0,0,14,55.67l0,0a29.93,29.93,0,0,0,34,0l0,0a29.93,29.93,0,0,0,9.21-39.16ZM31,2.78A28.14,28.14,0,0,1,52.1,12.3H9.9A28.14,28.14,0,0,1,31,2.78ZM8.43,14.08H53.57c.45.6.87,1.22,1.27,1.86H7.16C7.56,15.3,8,14.68,8.43,14.08ZM31,59.22a28,28,0,0,1-13.18-3.28H44.18A28,28,0,0,1,31,59.22Zm16.1-5.06H14.9A28.53,28.53,0,0,1,7.09,46H54.91A28.53,28.53,0,0,1,47.1,54.16Zm8.84-10H6.06A28,28,0,0,1,2.8,31.89H18V30.11H2.8A28,28,0,0,1,6.11,17.72H55.89A28,28,0,0,1,59.2,30.11H44v1.78H59.2A28,28,0,0,1,55.94,44.18Z"/><path class="cls-2" d="M30.59,29.22H26.85a1.69,1.69,0,0,0-1.52-.7c-1.38,0-2.15,1-2.15,2.48,0,1.76.8,2.64,2.55,2.64a2.33,2.33,0,0,0,2-1H24.88V30.14h5.78v3.55a5.92,5.92,0,0,1-5.32,3.07A5.42,5.42,0,0,1,19.58,31a5.41,5.41,0,0,1,5.73-5.76C28.32,25.24,30.26,26.81,30.59,29.22Z"/><path class="cls-2" d="M38.87,32.26H35.49v4.42H31.93V25.35h3.56v4.08h3.38V25.35h3.55V36.68H38.87Z"/></svg>