<svg id="Layer_1" data-name="Layer 1" xmlns="http://www.w3.org/2000/svg" viewBox="0 0 62 62"><defs><style>.cls-1{fill:#4cc3c8;}.cls-2{fill:#fff;}</style></defs><title>HTML</title><path class="cls-1" d="M57.26,16.51a.57.57,0,0,0-.08-.13,29.26,29.26,0,0,0-2.43-3.68,1.09,1.09,0,0,0-.13-.17,30,30,0,0,0-47.24,0,1.09,1.09,0,0,0-.13.17,29.26,29.26,0,0,0-2.43,3.68.57.57,0,0,0-.08.13A30,30,0,0,0,14,55.67l0,0a29.93,29.93,0,0,0,34,0l0,0a30,30,0,0,0,9.22-39.17ZM55.94,44.18H46.41a.89.89,0,0,0,0,1.78h8.5a28.53,28.53,0,0,1-7.81,8.2H35.57a.89.89,0,0,0,0,1.78h8.61a28.12,28.12,0,0,1-26.36,0H29.44a.89.89,0,0,0,0-1.78H14.9A28.53,28.53,0,0,1,7.09,46H18.3a.89.89,0,1,0,0-1.78H6.06A28,28,0,0,1,2.8,31.89h5V30.11H2.8A28,28,0,0,1,6.11,17.72H18.3a.89.89,0,1,0,0-1.78H7.16c.4-.64.82-1.26,1.27-1.86H38.8a.89.89,0,1,0,0-1.78H9.9a28.14,28.14,0,0,1,42.2,0H46.41a.89.89,0,0,0,0,1.78h7.16c.45.6.87,1.22,1.27,1.86h-28a.89.89,0,0,0,0,1.78h29A28,28,0,0,1,59.2,30.11h-5v1.78h5A28,28,0,0,1,55.94,44.18Z"/><path class="cls-2" d="M15.87,32.25H12.49v4.42H8.94V25.33h3.55v4.09h3.38V25.33h3.55V36.67H15.87Z"/><path class="cls-2" d="M20.37,25.33h9.54v2.82h-3v8.52H23.35V28.15h-3Z"/><path class="cls-2" d="M30.87,25.33h4.35l2.5,6.81,2.43-6.81h4.34V36.67H41V31l-1.74,5.65h-3L34.42,31v5.65H30.87Z"/><path class="cls-2" d="M49.64,25.33V34h3.42v2.69h-7V25.33Z"/></svg>