<svg xmlns="http://www.w3.org/2000/svg" viewBox="0 0 74 38.23"><defs><style>.cls-1{fill:#4bc2c6;}</style></defs><title>Asset 1</title><g id="Layer_2" data-name="Layer 2"><g id="Layer_1-2" data-name="Layer 1"><path class="cls-1" d="M74,17.66c0-5.59-11.57-9-22.71-10.33a17.59,17.59,0,0,0-28.58,0C11.65,8.67,0,12.07,0,17.66c0,4,7.19,8.24,20.76,10.14A17.88,17.88,0,0,0,53.2,28a.42.42,0,0,0,0-.15C66.82,25.9,74,21.69,74,17.66ZM37,1.91A15.77,15.77,0,0,1,52.75,17.66c0,1.28-5.56,3.78-15.75,3.78s-15.75-2.5-15.75-3.78A15.77,15.77,0,0,1,37,1.91Zm0,34.4a16,16,0,0,1-14-8.22A123.45,123.45,0,0,0,37,28.83a121.73,121.73,0,0,0,14-.75A16,16,0,0,1,37,36.31Zm0-9.4C16.32,26.91,1.91,22,1.91,17.66c0-2.74,6.13-6.4,19.47-8.23a17.56,17.56,0,0,0-2,8.23c0,3.74,8.88,5.69,17.66,5.69s17.66-2,17.66-5.69a17.45,17.45,0,0,0-2-8.23C66,11.25,72.09,14.9,72.09,17.66,72.09,22,57.68,26.91,37,26.91Z"/><path class="cls-1" d="M36.62,16.82a4.5,4.5,0,1,0-2.93-1.1A4.44,4.44,0,0,0,36.62,16.82Zm0-7.06A2.58,2.58,0,0,1,38.84,11a2.62,2.62,0,0,1,.35,1.31,2.57,2.57,0,1,1-2.57-2.57Z"/></g></g></svg>